<svg width="420" height="154" viewBox="0 0 420 154" fill="none" xmlns="http://www.w3.org/2000/svg">
<circle cx="50" cy="50" r="49" fill="#252525" stroke="white" stroke-width="2"/>
<circle cx="210" cy="50" r="49" fill="white" stroke="white" stroke-width="2"/>
<circle cx="370" cy="50" r="49" fill="black" stroke="white" stroke-width="2"/>
<path d="M14.2435 142.9L15.6835 138.94H19.0635L17.6235 142.9H14.2435ZM12.3835 148L14.1035 143.26H17.4835L15.7635 148H16.1835L17.9035 143.26H20.5635L20.7035 142.9H18.0435L19.4835 138.94H22.1435L22.2835 138.58H19.6235L21.3635 133.76H20.9435L19.2035 138.58H15.8235L17.5635 133.76H17.1435L15.4035 138.58H12.7435L12.6035 138.94H15.2635L13.8235 142.9H11.1635L11.0435 143.26H13.6835L11.9635 148H12.3835ZM29.5968 145.92H25.1968L28.1568 143L29.5968 141.52C30.0368 141.067 30.3901 140.633 30.6568 140.22C30.9368 139.807 31.1501 139.42 31.2968 139.06C31.4568 138.7 31.5635 138.373 31.6168 138.08C31.6835 137.787 31.7168 137.533 31.7168 137.32C31.7168 136.827 31.6368 136.347 31.4768 135.88C31.3301 135.413 31.0835 135 30.7368 134.64C30.4035 134.28 29.9701 133.993 29.4368 133.78C28.9035 133.553 28.2635 133.44 27.5168 133.44C26.7701 133.44 26.1301 133.547 25.5968 133.76C25.0768 133.96 24.6501 134.207 24.3168 134.5C23.9968 134.793 23.7568 135.107 23.5968 135.44C23.4501 135.76 23.3768 136.033 23.3768 136.26C23.3768 136.513 23.4235 136.713 23.5168 136.86C23.6101 136.993 23.7168 137.093 23.8368 137.16C23.9701 137.213 24.1035 137.247 24.2368 137.26C24.3835 137.273 24.5035 137.28 24.5968 137.28C24.9035 137.28 25.1701 137.22 25.3968 137.1C25.6235 136.967 25.7368 136.733 25.7368 136.4C25.7368 136.36 25.7301 136.287 25.7168 136.18C25.7035 136.073 25.6901 135.96 25.6768 135.84C25.6635 135.72 25.6501 135.607 25.6368 135.5C25.6235 135.393 25.6168 135.32 25.6168 135.28C25.6168 134.947 25.6635 134.68 25.7568 134.48C25.8635 134.28 25.9968 134.127 26.1568 134.02C26.3168 133.9 26.4901 133.82 26.6768 133.78C26.8768 133.74 27.0701 133.72 27.2568 133.72C27.6435 133.72 27.9501 133.813 28.1768 134C28.4168 134.173 28.5968 134.427 28.7168 134.76C28.8368 135.08 28.9168 135.467 28.9568 135.92C28.9968 136.36 29.0168 136.853 29.0168 137.4C29.0168 138.507 28.9168 139.453 28.7168 140.24C28.5168 141.027 28.1835 141.78 27.7168 142.5C27.2501 143.22 26.6235 143.98 25.8368 144.78C25.0635 145.567 24.0968 146.513 22.9368 147.62L22.8168 147.72V148H31.9368V143.9H31.6568C31.6301 144.407 31.5235 144.8 31.3368 145.08C31.1635 145.347 30.9568 145.547 30.7168 145.68C30.4901 145.8 30.2701 145.873 30.0568 145.9C29.8435 145.913 29.6901 145.92 29.5968 145.92ZM36.2301 133.58L34.8901 141.84H35.1501C35.2434 141.64 35.3567 141.407 35.4901 141.14C35.6367 140.86 35.8167 140.6 36.0301 140.36C36.2434 140.12 36.5034 139.913 36.8101 139.74C37.1167 139.567 37.4901 139.48 37.9301 139.48C38.2634 139.48 38.5701 139.527 38.8501 139.62C39.1434 139.7 39.3967 139.88 39.6101 140.16C39.8367 140.44 40.0101 140.847 40.1301 141.38C40.2634 141.9 40.3301 142.6 40.3301 143.48C40.3301 144.6 40.2434 145.467 40.0701 146.08C39.9101 146.693 39.7034 147.14 39.4501 147.42C39.2101 147.7 38.9367 147.867 38.6301 147.92C38.3367 147.973 38.0567 148 37.7901 148C37.6834 148 37.5567 147.987 37.4101 147.96C37.2767 147.92 37.1501 147.853 37.0301 147.76C36.9101 147.667 36.8034 147.54 36.7101 147.38C36.6301 147.22 36.5901 147.013 36.5901 146.76C36.5901 146.72 36.5967 146.66 36.6101 146.58C36.6234 146.487 36.6301 146.393 36.6301 146.3C36.6434 146.193 36.6567 146.1 36.6701 146.02C36.6834 145.927 36.6901 145.86 36.6901 145.82C36.6901 145.593 36.6101 145.393 36.4501 145.22C36.3034 145.033 35.9767 144.94 35.4701 144.94C35.4034 144.94 35.3034 144.947 35.1701 144.96C35.0367 144.973 34.8967 145.02 34.7501 145.1C34.6167 145.167 34.4967 145.273 34.3901 145.42C34.2967 145.567 34.2501 145.78 34.2501 146.06C34.2501 146.353 34.3367 146.633 34.5101 146.9C34.6967 147.167 34.9501 147.4 35.2701 147.6C35.6034 147.8 35.9901 147.96 36.4301 148.08C36.8834 148.2 37.3701 148.26 37.8901 148.26C38.7167 148.26 39.4434 148.107 40.0701 147.8C40.7101 147.493 41.2501 147.1 41.6901 146.62C42.1301 146.14 42.4634 145.607 42.6901 145.02C42.9167 144.433 43.0301 143.867 43.0301 143.32C43.0301 142.693 42.9034 142.127 42.6501 141.62C42.4101 141.1 42.0767 140.66 41.6501 140.3C41.2367 139.927 40.7501 139.64 40.1901 139.44C39.6434 139.24 39.0567 139.14 38.4301 139.14C37.9901 139.14 37.6167 139.18 37.3101 139.26C37.0034 139.327 36.7367 139.427 36.5101 139.56C36.2834 139.68 36.0901 139.827 35.9301 140C35.7701 140.16 35.6101 140.34 35.4501 140.54L35.4101 140.5L36.1301 136.12C36.3301 136.2 36.5567 136.293 36.8101 136.4C37.0634 136.493 37.3234 136.587 37.5901 136.68C37.8701 136.773 38.1434 136.853 38.4101 136.92C38.6901 136.973 38.9434 137 39.1701 137C39.5567 137 39.8901 136.953 40.1701 136.86C40.4634 136.753 40.7501 136.573 41.0301 136.32C41.3101 136.067 41.6034 135.733 41.9101 135.32C42.2301 134.907 42.6101 134.387 43.0501 133.76L42.7901 133.64C42.5501 133.987 42.2967 134.253 42.0301 134.44C41.7767 134.627 41.5301 134.767 41.2901 134.86C41.0634 134.953 40.8501 135.007 40.6501 135.02C40.4634 135.033 40.3234 135.04 40.2301 135.04C39.8167 135.04 39.4234 134.987 39.0501 134.88C38.6901 134.76 38.3567 134.62 38.0501 134.46C37.7567 134.3 37.5034 134.14 37.2901 133.98C37.0767 133.807 36.9234 133.673 36.8301 133.58H36.2301ZM51.8234 145.92H47.4234L50.3834 143L51.8234 141.52C52.2634 141.067 52.6167 140.633 52.8834 140.22C53.1634 139.807 53.3767 139.42 53.5234 139.06C53.6834 138.7 53.79 138.373 53.8434 138.08C53.91 137.787 53.9434 137.533 53.9434 137.32C53.9434 136.827 53.8634 136.347 53.7034 135.88C53.5567 135.413 53.31 135 52.9634 134.64C52.63 134.28 52.1967 133.993 51.6634 133.78C51.13 133.553 50.49 133.44 49.7434 133.44C48.9967 133.44 48.3567 133.547 47.8234 133.76C47.3034 133.96 46.8767 134.207 46.5434 134.5C46.2234 134.793 45.9834 135.107 45.8234 135.44C45.6767 135.76 45.6034 136.033 45.6034 136.26C45.6034 136.513 45.65 136.713 45.7434 136.86C45.8367 136.993 45.9434 137.093 46.0634 137.16C46.1967 137.213 46.33 137.247 46.4634 137.26C46.61 137.273 46.73 137.28 46.8234 137.28C47.13 137.28 47.3967 137.22 47.6234 137.1C47.85 136.967 47.9634 136.733 47.9634 136.4C47.9634 136.36 47.9567 136.287 47.9434 136.18C47.93 136.073 47.9167 135.96 47.9034 135.84C47.89 135.72 47.8767 135.607 47.8634 135.5C47.85 135.393 47.8434 135.32 47.8434 135.28C47.8434 134.947 47.89 134.68 47.9834 134.48C48.09 134.28 48.2234 134.127 48.3834 134.02C48.5434 133.9 48.7167 133.82 48.9034 133.78C49.1034 133.74 49.2967 133.72 49.4834 133.72C49.87 133.72 50.1767 133.813 50.4034 134C50.6434 134.173 50.8234 134.427 50.9434 134.76C51.0634 135.08 51.1434 135.467 51.1834 135.92C51.2234 136.36 51.2434 136.853 51.2434 137.4C51.2434 138.507 51.1434 139.453 50.9434 140.24C50.7434 141.027 50.41 141.78 49.9434 142.5C49.4767 143.22 48.85 143.98 48.0634 144.78C47.29 145.567 46.3234 146.513 45.1634 147.62L45.0434 147.72V148H54.1634V143.9H53.8834C53.8567 144.407 53.75 144.8 53.5634 145.08C53.39 145.347 53.1834 145.547 52.9434 145.68C52.7167 145.8 52.4967 145.873 52.2834 145.9C52.07 145.913 51.9167 145.92 51.8234 145.92ZM58.4566 133.58L57.1166 141.84H57.3766C57.47 141.64 57.5833 141.407 57.7166 141.14C57.8633 140.86 58.0433 140.6 58.2566 140.36C58.47 140.12 58.73 139.913 59.0366 139.74C59.3433 139.567 59.7166 139.48 60.1566 139.48C60.49 139.48 60.7966 139.527 61.0766 139.62C61.37 139.7 61.6233 139.88 61.8366 140.16C62.0633 140.44 62.2366 140.847 62.3566 141.38C62.49 141.9 62.5566 142.6 62.5566 143.48C62.5566 144.6 62.47 145.467 62.2966 146.08C62.1366 146.693 61.93 147.14 61.6766 147.42C61.4366 147.7 61.1633 147.867 60.8566 147.92C60.5633 147.973 60.2833 148 60.0166 148C59.91 148 59.7833 147.987 59.6366 147.96C59.5033 147.92 59.3766 147.853 59.2566 147.76C59.1366 147.667 59.03 147.54 58.9366 147.38C58.8566 147.22 58.8166 147.013 58.8166 146.76C58.8166 146.72 58.8233 146.66 58.8366 146.58C58.85 146.487 58.8566 146.393 58.8566 146.3C58.87 146.193 58.8833 146.1 58.8966 146.02C58.91 145.927 58.9166 145.86 58.9166 145.82C58.9166 145.593 58.8366 145.393 58.6766 145.22C58.53 145.033 58.2033 144.94 57.6966 144.94C57.63 144.94 57.53 144.947 57.3966 144.96C57.2633 144.973 57.1233 145.02 56.9766 145.1C56.8433 145.167 56.7233 145.273 56.6166 145.42C56.5233 145.567 56.4766 145.78 56.4766 146.06C56.4766 146.353 56.5633 146.633 56.7366 146.9C56.9233 147.167 57.1766 147.4 57.4966 147.6C57.83 147.8 58.2166 147.96 58.6566 148.08C59.11 148.2 59.5966 148.26 60.1166 148.26C60.9433 148.26 61.67 148.107 62.2966 147.8C62.9366 147.493 63.4766 147.1 63.9166 146.62C64.3566 146.14 64.69 145.607 64.9166 145.02C65.1433 144.433 65.2566 143.867 65.2566 143.32C65.2566 142.693 65.13 142.127 64.8766 141.62C64.6366 141.1 64.3033 140.66 63.8766 140.3C63.4633 139.927 62.9766 139.64 62.4166 139.44C61.87 139.24 61.2833 139.14 60.6566 139.14C60.2166 139.14 59.8433 139.18 59.5366 139.26C59.23 139.327 58.9633 139.427 58.7366 139.56C58.51 139.68 58.3166 139.827 58.1566 140C57.9966 140.16 57.8366 140.34 57.6766 140.54L57.6366 140.5L58.3566 136.12C58.5566 136.2 58.7833 136.293 59.0366 136.4C59.29 136.493 59.55 136.587 59.8166 136.68C60.0966 136.773 60.37 136.853 60.6366 136.92C60.9166 136.973 61.17 137 61.3966 137C61.7833 137 62.1166 136.953 62.3966 136.86C62.69 136.753 62.9766 136.573 63.2566 136.32C63.5366 136.067 63.83 135.733 64.1366 135.32C64.4566 134.907 64.8366 134.387 65.2766 133.76L65.0166 133.64C64.7766 133.987 64.5233 134.253 64.2566 134.44C64.0033 134.627 63.7566 134.767 63.5166 134.86C63.29 134.953 63.0766 135.007 62.8766 135.02C62.69 135.033 62.55 135.04 62.4566 135.04C62.0433 135.04 61.65 134.987 61.2766 134.88C60.9166 134.76 60.5833 134.62 60.2766 134.46C59.9833 134.3 59.73 134.14 59.5166 133.98C59.3033 133.807 59.15 133.673 59.0566 133.58H58.4566ZM74.0499 145.92H69.6499L72.6099 143L74.0499 141.52C74.4899 141.067 74.8433 140.633 75.1099 140.22C75.3899 139.807 75.6033 139.42 75.7499 139.06C75.9099 138.7 76.0166 138.373 76.0699 138.08C76.1366 137.787 76.1699 137.533 76.1699 137.32C76.1699 136.827 76.0899 136.347 75.9299 135.88C75.7833 135.413 75.5366 135 75.1899 134.64C74.8566 134.28 74.4233 133.993 73.8899 133.78C73.3566 133.553 72.7166 133.44 71.9699 133.44C71.2233 133.44 70.5833 133.547 70.0499 133.76C69.5299 133.96 69.1033 134.207 68.7699 134.5C68.4499 134.793 68.2099 135.107 68.0499 135.44C67.9033 135.76 67.8299 136.033 67.8299 136.26C67.8299 136.513 67.8766 136.713 67.9699 136.86C68.0633 136.993 68.1699 137.093 68.2899 137.16C68.4233 137.213 68.5566 137.247 68.6899 137.26C68.8366 137.273 68.9566 137.28 69.0499 137.28C69.3566 137.28 69.6233 137.22 69.8499 137.1C70.0766 136.967 70.1899 136.733 70.1899 136.4C70.1899 136.36 70.1833 136.287 70.1699 136.18C70.1566 136.073 70.1433 135.96 70.1299 135.84C70.1166 135.72 70.1033 135.607 70.0899 135.5C70.0766 135.393 70.0699 135.32 70.0699 135.28C70.0699 134.947 70.1166 134.68 70.2099 134.48C70.3166 134.28 70.4499 134.127 70.6099 134.02C70.7699 133.9 70.9433 133.82 71.1299 133.78C71.3299 133.74 71.5233 133.72 71.7099 133.72C72.0966 133.72 72.4033 133.813 72.6299 134C72.8699 134.173 73.0499 134.427 73.1699 134.76C73.2899 135.08 73.3699 135.467 73.4099 135.92C73.4499 136.36 73.4699 136.853 73.4699 137.4C73.4699 138.507 73.3699 139.453 73.1699 140.24C72.9699 141.027 72.6366 141.78 72.1699 142.5C71.7033 143.22 71.0766 143.98 70.2899 144.78C69.5166 145.567 68.5499 146.513 67.3899 147.62L67.2699 147.72V148H76.3899V143.9H76.1099C76.0833 144.407 75.9766 144.8 75.7899 145.08C75.6166 145.347 75.4099 145.547 75.1699 145.68C74.9433 145.8 74.7233 145.873 74.5099 145.9C74.2966 145.913 74.1433 145.92 74.0499 145.92ZM80.6832 133.58L79.3432 141.84H79.6032C79.6965 141.64 79.8099 141.407 79.9432 141.14C80.0899 140.86 80.2699 140.6 80.4832 140.36C80.6965 140.12 80.9565 139.913 81.2632 139.74C81.5699 139.567 81.9432 139.48 82.3832 139.48C82.7165 139.48 83.0232 139.527 83.3032 139.62C83.5965 139.7 83.8499 139.88 84.0632 140.16C84.2899 140.44 84.4632 140.847 84.5832 141.38C84.7165 141.9 84.7832 142.6 84.7832 143.48C84.7832 144.6 84.6965 145.467 84.5232 146.08C84.3632 146.693 84.1565 147.14 83.9032 147.42C83.6632 147.7 83.3899 147.867 83.0832 147.92C82.7899 147.973 82.5099 148 82.2432 148C82.1365 148 82.0099 147.987 81.8632 147.96C81.7299 147.92 81.6032 147.853 81.4832 147.76C81.3632 147.667 81.2565 147.54 81.1632 147.38C81.0832 147.22 81.0432 147.013 81.0432 146.76C81.0432 146.72 81.0499 146.66 81.0632 146.58C81.0765 146.487 81.0832 146.393 81.0832 146.3C81.0965 146.193 81.1099 146.1 81.1232 146.02C81.1365 145.927 81.1432 145.86 81.1432 145.82C81.1432 145.593 81.0632 145.393 80.9032 145.22C80.7565 145.033 80.4299 144.94 79.9232 144.94C79.8565 144.94 79.7565 144.947 79.6232 144.96C79.4899 144.973 79.3499 145.02 79.2032 145.1C79.0699 145.167 78.9499 145.273 78.8432 145.42C78.7499 145.567 78.7032 145.78 78.7032 146.06C78.7032 146.353 78.7899 146.633 78.9632 146.9C79.1499 147.167 79.4032 147.4 79.7232 147.6C80.0565 147.8 80.4432 147.96 80.8832 148.08C81.3365 148.2 81.8232 148.26 82.3432 148.26C83.1699 148.26 83.8965 148.107 84.5232 147.8C85.1632 147.493 85.7032 147.1 86.1432 146.62C86.5832 146.14 86.9165 145.607 87.1432 145.02C87.3699 144.433 87.4832 143.867 87.4832 143.32C87.4832 142.693 87.3565 142.127 87.1032 141.62C86.8632 141.1 86.5299 140.66 86.1032 140.3C85.6899 139.927 85.2032 139.64 84.6432 139.44C84.0965 139.24 83.5099 139.14 82.8832 139.14C82.4432 139.14 82.0699 139.18 81.7632 139.26C81.4565 139.327 81.1899 139.427 80.9632 139.56C80.7365 139.68 80.5432 139.827 80.3832 140C80.2232 140.16 80.0632 140.34 79.9032 140.54L79.8632 140.5L80.5832 136.12C80.7832 136.2 81.0099 136.293 81.2632 136.4C81.5165 136.493 81.7765 136.587 82.0432 136.68C82.3232 136.773 82.5965 136.853 82.8632 136.92C83.1432 136.973 83.3965 137 83.6232 137C84.0099 137 84.3432 136.953 84.6232 136.86C84.9165 136.753 85.2032 136.573 85.4832 136.32C85.7632 136.067 86.0565 135.733 86.3632 135.32C86.6832 134.907 87.0632 134.387 87.5032 133.76L87.2432 133.64C87.0032 133.987 86.7499 134.253 86.4832 134.44C86.2299 134.627 85.9832 134.767 85.7432 134.86C85.5165 134.953 85.3032 135.007 85.1032 135.02C84.9165 135.033 84.7765 135.04 84.6832 135.04C84.2699 135.04 83.8765 134.987 83.5032 134.88C83.1432 134.76 82.8099 134.62 82.5032 134.46C82.2099 134.3 81.9565 134.14 81.7432 133.98C81.5299 133.807 81.3765 133.673 81.2832 133.58H80.6832Z" fill="white"/>
<path d="M166.509 142.9L167.949 138.94H171.329L169.889 142.9H166.509ZM164.649 148L166.369 143.26H169.749L168.029 148H168.449L170.169 143.26H172.829L172.969 142.9H170.309L171.749 138.94H174.409L174.549 138.58H171.889L173.629 133.76H173.209L171.469 138.58H168.089L169.829 133.76H169.409L167.669 138.58H165.009L164.869 138.94H167.529L166.089 142.9H163.429L163.309 143.26H165.949L164.229 148H164.649ZM177.062 134.04V147.72H175.222V148H181.822V147.72H179.962V140.76H181.302C181.769 140.76 182.156 140.84 182.462 141C182.782 141.16 183.049 141.38 183.262 141.66C183.476 141.927 183.642 142.24 183.762 142.6C183.896 142.96 184.009 143.333 184.102 143.72H184.362V137.5H184.102C184.009 137.953 183.889 138.367 183.742 138.74C183.596 139.1 183.409 139.413 183.182 139.68C182.956 139.933 182.669 140.133 182.322 140.28C181.989 140.413 181.576 140.48 181.082 140.48H179.962V134.04H182.982C183.516 134.04 183.976 134.113 184.362 134.26C184.762 134.407 185.109 134.62 185.402 134.9C185.696 135.167 185.949 135.493 186.162 135.88C186.389 136.267 186.596 136.7 186.782 137.18H187.042V133.76H175.222V134.04H177.062ZM190.754 134.04V147.72H188.914V148H195.514V147.72H193.654V140.76H194.994C195.46 140.76 195.847 140.84 196.154 141C196.474 141.16 196.74 141.38 196.954 141.66C197.167 141.927 197.334 142.24 197.454 142.6C197.587 142.96 197.7 143.333 197.794 143.72H198.054V137.5H197.794C197.7 137.953 197.58 138.367 197.434 138.74C197.287 139.1 197.1 139.413 196.874 139.68C196.647 139.933 196.36 140.133 196.014 140.28C195.68 140.413 195.267 140.48 194.774 140.48H193.654V134.04H196.674C197.207 134.04 197.667 134.113 198.054 134.26C198.454 134.407 198.8 134.62 199.094 134.9C199.387 135.167 199.64 135.493 199.854 135.88C200.08 136.267 200.287 136.7 200.474 137.18H200.734V133.76H188.914V134.04H190.754ZM204.445 134.04V147.72H202.605V148H209.205V147.72H207.345V140.76H208.685C209.152 140.76 209.539 140.84 209.845 141C210.165 141.16 210.432 141.38 210.645 141.66C210.859 141.927 211.025 142.24 211.145 142.6C211.279 142.96 211.392 143.333 211.485 143.72H211.745V137.5H211.485C211.392 137.953 211.272 138.367 211.125 138.74C210.979 139.1 210.792 139.413 210.565 139.68C210.339 139.933 210.052 140.133 209.705 140.28C209.372 140.413 208.959 140.48 208.465 140.48H207.345V134.04H210.365C210.899 134.04 211.359 134.113 211.745 134.26C212.145 134.407 212.492 134.62 212.785 134.9C213.079 135.167 213.332 135.493 213.545 135.88C213.772 136.267 213.979 136.7 214.165 137.18H214.425V133.76H202.605V134.04H204.445ZM218.137 134.04V147.72H216.297V148H222.897V147.72H221.037V140.76H222.377C222.843 140.76 223.23 140.84 223.537 141C223.857 141.16 224.123 141.38 224.337 141.66C224.55 141.927 224.717 142.24 224.837 142.6C224.97 142.96 225.083 143.333 225.177 143.72H225.437V137.5H225.177C225.083 137.953 224.963 138.367 224.817 138.74C224.67 139.1 224.483 139.413 224.257 139.68C224.03 139.933 223.743 140.133 223.397 140.28C223.063 140.413 222.65 140.48 222.157 140.48H221.037V134.04H224.057C224.59 134.04 225.05 134.113 225.437 134.26C225.837 134.407 226.183 134.62 226.477 134.9C226.77 135.167 227.023 135.493 227.237 135.88C227.463 136.267 227.67 136.7 227.857 137.18H228.117V133.76H216.297V134.04H218.137ZM231.828 134.04V147.72H229.988V148H236.588V147.72H234.728V140.76H236.068C236.535 140.76 236.921 140.84 237.228 141C237.548 141.16 237.815 141.38 238.028 141.66C238.241 141.927 238.408 142.24 238.528 142.6C238.661 142.96 238.775 143.333 238.868 143.72H239.128V137.5H238.868C238.775 137.953 238.655 138.367 238.508 138.74C238.361 139.1 238.175 139.413 237.948 139.68C237.721 139.933 237.435 140.133 237.088 140.28C236.755 140.413 236.341 140.48 235.848 140.48H234.728V134.04H237.748C238.281 134.04 238.741 134.113 239.128 134.26C239.528 134.407 239.875 134.62 240.168 134.9C240.461 135.167 240.715 135.493 240.928 135.88C241.155 136.267 241.361 136.7 241.548 137.18H241.808V133.76H229.988V134.04H231.828ZM245.519 134.04V147.72H243.679V148H250.279V147.72H248.419V140.76H249.759C250.226 140.76 250.613 140.84 250.919 141C251.239 141.16 251.506 141.38 251.719 141.66C251.933 141.927 252.099 142.24 252.219 142.6C252.353 142.96 252.466 143.333 252.559 143.72H252.819V137.5H252.559C252.466 137.953 252.346 138.367 252.199 138.74C252.053 139.1 251.866 139.413 251.639 139.68C251.413 139.933 251.126 140.133 250.779 140.28C250.446 140.413 250.033 140.48 249.539 140.48H248.419V134.04H251.439C251.973 134.04 252.433 134.113 252.819 134.26C253.219 134.407 253.566 134.62 253.859 134.9C254.153 135.167 254.406 135.493 254.619 135.88C254.846 136.267 255.053 136.7 255.239 137.18H255.499V133.76H243.679V134.04H245.519Z" fill="white"/>
<path d="M334.244 142.9L335.684 138.94H339.064L337.624 142.9H334.244ZM332.384 148L334.104 143.26H337.484L335.764 148H336.184L337.904 143.26H340.564L340.704 142.9H338.044L339.484 138.94H342.144L342.284 138.58H339.624L341.364 133.76H340.944L339.204 138.58H335.824L337.564 133.76H337.144L335.404 138.58H332.744L332.604 138.94H335.264L333.824 142.9H331.164L331.044 143.26H333.684L331.964 148H332.384ZM345.597 140.86C345.597 139.593 345.61 138.513 345.637 137.62C345.677 136.713 345.77 135.973 345.917 135.4C346.063 134.827 346.277 134.407 346.557 134.14C346.85 133.86 347.257 133.72 347.777 133.72C348.297 133.72 348.697 133.847 348.977 134.1C349.27 134.34 349.49 134.747 349.637 135.32C349.783 135.88 349.87 136.613 349.897 137.52C349.937 138.427 349.957 139.54 349.957 140.86C349.957 142.113 349.937 143.193 349.897 144.1C349.87 145.007 349.783 145.747 349.637 146.32C349.49 146.893 349.27 147.32 348.977 147.6C348.697 147.867 348.297 148 347.777 148C347.257 148 346.85 147.867 346.557 147.6C346.277 147.32 346.063 146.893 345.917 146.32C345.77 145.747 345.677 145.007 345.637 144.1C345.61 143.193 345.597 142.113 345.597 140.86ZM342.897 140.86C342.897 141.113 342.903 141.473 342.917 141.94C342.93 142.407 342.983 142.913 343.077 143.46C343.17 144.007 343.31 144.567 343.497 145.14C343.697 145.7 343.977 146.213 344.337 146.68C344.697 147.147 345.157 147.527 345.717 147.82C346.277 148.113 346.963 148.26 347.777 148.26C348.51 148.26 349.137 148.127 349.657 147.86C350.19 147.58 350.637 147.22 350.997 146.78C351.357 146.327 351.643 145.827 351.857 145.28C352.083 144.733 352.25 144.187 352.357 143.64C352.477 143.08 352.557 142.56 352.597 142.08C352.637 141.587 352.657 141.18 352.657 140.86C352.657 140.607 352.65 140.253 352.637 139.8C352.623 139.333 352.57 138.827 352.477 138.28C352.383 137.72 352.237 137.153 352.037 136.58C351.85 136.007 351.577 135.493 351.217 135.04C350.857 134.573 350.397 134.193 349.837 133.9C349.277 133.593 348.59 133.44 347.777 133.44C347.043 133.44 346.41 133.58 345.877 133.86C345.357 134.14 344.917 134.5 344.557 134.94C344.197 135.38 343.903 135.88 343.677 136.44C343.463 136.987 343.297 137.54 343.177 138.1C343.07 138.647 342.997 139.167 342.957 139.66C342.917 140.14 342.897 140.54 342.897 140.86ZM356.71 140.86C356.71 139.593 356.723 138.513 356.75 137.62C356.79 136.713 356.883 135.973 357.03 135.4C357.177 134.827 357.39 134.407 357.67 134.14C357.963 133.86 358.37 133.72 358.89 133.72C359.41 133.72 359.81 133.847 360.09 134.1C360.383 134.34 360.603 134.747 360.75 135.32C360.897 135.88 360.983 136.613 361.01 137.52C361.05 138.427 361.07 139.54 361.07 140.86C361.07 142.113 361.05 143.193 361.01 144.1C360.983 145.007 360.897 145.747 360.75 146.32C360.603 146.893 360.383 147.32 360.09 147.6C359.81 147.867 359.41 148 358.89 148C358.37 148 357.963 147.867 357.67 147.6C357.39 147.32 357.177 146.893 357.03 146.32C356.883 145.747 356.79 145.007 356.75 144.1C356.723 143.193 356.71 142.113 356.71 140.86ZM354.01 140.86C354.01 141.113 354.017 141.473 354.03 141.94C354.043 142.407 354.097 142.913 354.19 143.46C354.283 144.007 354.423 144.567 354.61 145.14C354.81 145.7 355.09 146.213 355.45 146.68C355.81 147.147 356.27 147.527 356.83 147.82C357.39 148.113 358.077 148.26 358.89 148.26C359.623 148.26 360.25 148.127 360.77 147.86C361.303 147.58 361.75 147.22 362.11 146.78C362.47 146.327 362.757 145.827 362.97 145.28C363.197 144.733 363.363 144.187 363.47 143.64C363.59 143.08 363.67 142.56 363.71 142.08C363.75 141.587 363.77 141.18 363.77 140.86C363.77 140.607 363.763 140.253 363.75 139.8C363.737 139.333 363.683 138.827 363.59 138.28C363.497 137.72 363.35 137.153 363.15 136.58C362.963 136.007 362.69 135.493 362.33 135.04C361.97 134.573 361.51 134.193 360.95 133.9C360.39 133.593 359.703 133.44 358.89 133.44C358.157 133.44 357.523 133.58 356.99 133.86C356.47 134.14 356.03 134.5 355.67 134.94C355.31 135.38 355.017 135.88 354.79 136.44C354.577 136.987 354.41 137.54 354.29 138.1C354.183 138.647 354.11 139.167 354.07 139.66C354.03 140.14 354.01 140.54 354.01 140.86ZM367.823 140.86C367.823 139.593 367.837 138.513 367.863 137.62C367.903 136.713 367.997 135.973 368.143 135.4C368.29 134.827 368.503 134.407 368.783 134.14C369.077 133.86 369.483 133.72 370.003 133.72C370.523 133.72 370.923 133.847 371.203 134.1C371.497 134.34 371.717 134.747 371.863 135.32C372.01 135.88 372.097 136.613 372.123 137.52C372.163 138.427 372.183 139.54 372.183 140.86C372.183 142.113 372.163 143.193 372.123 144.1C372.097 145.007 372.01 145.747 371.863 146.32C371.717 146.893 371.497 147.32 371.203 147.6C370.923 147.867 370.523 148 370.003 148C369.483 148 369.077 147.867 368.783 147.6C368.503 147.32 368.29 146.893 368.143 146.32C367.997 145.747 367.903 145.007 367.863 144.1C367.837 143.193 367.823 142.113 367.823 140.86ZM365.123 140.86C365.123 141.113 365.13 141.473 365.143 141.94C365.157 142.407 365.21 142.913 365.303 143.46C365.397 144.007 365.537 144.567 365.723 145.14C365.923 145.7 366.203 146.213 366.563 146.68C366.923 147.147 367.383 147.527 367.943 147.82C368.503 148.113 369.19 148.26 370.003 148.26C370.737 148.26 371.363 148.127 371.883 147.86C372.417 147.58 372.863 147.22 373.223 146.78C373.583 146.327 373.87 145.827 374.083 145.28C374.31 144.733 374.477 144.187 374.583 143.64C374.703 143.08 374.783 142.56 374.823 142.08C374.863 141.587 374.883 141.18 374.883 140.86C374.883 140.607 374.877 140.253 374.863 139.8C374.85 139.333 374.797 138.827 374.703 138.28C374.61 137.72 374.463 137.153 374.263 136.58C374.077 136.007 373.803 135.493 373.443 135.04C373.083 134.573 372.623 134.193 372.063 133.9C371.503 133.593 370.817 133.44 370.003 133.44C369.27 133.44 368.637 133.58 368.103 133.86C367.583 134.14 367.143 134.5 366.783 134.94C366.423 135.38 366.13 135.88 365.903 136.44C365.69 136.987 365.523 137.54 365.403 138.1C365.297 138.647 365.223 139.167 365.183 139.66C365.143 140.14 365.123 140.54 365.123 140.86ZM378.937 140.86C378.937 139.593 378.95 138.513 378.977 137.62C379.017 136.713 379.11 135.973 379.257 135.4C379.403 134.827 379.617 134.407 379.897 134.14C380.19 133.86 380.597 133.72 381.117 133.72C381.637 133.72 382.037 133.847 382.317 134.1C382.61 134.34 382.83 134.747 382.977 135.32C383.123 135.88 383.21 136.613 383.237 137.52C383.277 138.427 383.297 139.54 383.297 140.86C383.297 142.113 383.277 143.193 383.237 144.1C383.21 145.007 383.123 145.747 382.977 146.32C382.83 146.893 382.61 147.32 382.317 147.6C382.037 147.867 381.637 148 381.117 148C380.597 148 380.19 147.867 379.897 147.6C379.617 147.32 379.403 146.893 379.257 146.32C379.11 145.747 379.017 145.007 378.977 144.1C378.95 143.193 378.937 142.113 378.937 140.86ZM376.237 140.86C376.237 141.113 376.243 141.473 376.257 141.94C376.27 142.407 376.323 142.913 376.417 143.46C376.51 144.007 376.65 144.567 376.837 145.14C377.037 145.7 377.317 146.213 377.677 146.68C378.037 147.147 378.497 147.527 379.057 147.82C379.617 148.113 380.303 148.26 381.117 148.26C381.85 148.26 382.477 148.127 382.997 147.86C383.53 147.58 383.977 147.22 384.337 146.78C384.697 146.327 384.983 145.827 385.197 145.28C385.423 144.733 385.59 144.187 385.697 143.64C385.817 143.08 385.897 142.56 385.937 142.08C385.977 141.587 385.997 141.18 385.997 140.86C385.997 140.607 385.99 140.253 385.977 139.8C385.963 139.333 385.91 138.827 385.817 138.28C385.723 137.72 385.577 137.153 385.377 136.58C385.19 136.007 384.917 135.493 384.557 135.04C384.197 134.573 383.737 134.193 383.177 133.9C382.617 133.593 381.93 133.44 381.117 133.44C380.383 133.44 379.75 133.58 379.217 133.86C378.697 134.14 378.257 134.5 377.897 134.94C377.537 135.38 377.243 135.88 377.017 136.44C376.803 136.987 376.637 137.54 376.517 138.1C376.41 138.647 376.337 139.167 376.297 139.66C376.257 140.14 376.237 140.54 376.237 140.86ZM390.05 140.86C390.05 139.593 390.063 138.513 390.09 137.62C390.13 136.713 390.223 135.973 390.37 135.4C390.517 134.827 390.73 134.407 391.01 134.14C391.303 133.86 391.71 133.72 392.23 133.72C392.75 133.72 393.15 133.847 393.43 134.1C393.723 134.34 393.943 134.747 394.09 135.32C394.237 135.88 394.323 136.613 394.35 137.52C394.39 138.427 394.41 139.54 394.41 140.86C394.41 142.113 394.39 143.193 394.35 144.1C394.323 145.007 394.237 145.747 394.09 146.32C393.943 146.893 393.723 147.32 393.43 147.6C393.15 147.867 392.75 148 392.23 148C391.71 148 391.303 147.867 391.01 147.6C390.73 147.32 390.517 146.893 390.37 146.32C390.223 145.747 390.13 145.007 390.09 144.1C390.063 143.193 390.05 142.113 390.05 140.86ZM387.35 140.86C387.35 141.113 387.357 141.473 387.37 141.94C387.383 142.407 387.437 142.913 387.53 143.46C387.623 144.007 387.763 144.567 387.95 145.14C388.15 145.7 388.43 146.213 388.79 146.68C389.15 147.147 389.61 147.527 390.17 147.82C390.73 148.113 391.417 148.26 392.23 148.26C392.963 148.26 393.59 148.127 394.11 147.86C394.643 147.58 395.09 147.22 395.45 146.78C395.81 146.327 396.097 145.827 396.31 145.28C396.537 144.733 396.703 144.187 396.81 143.64C396.93 143.08 397.01 142.56 397.05 142.08C397.09 141.587 397.11 141.18 397.11 140.86C397.11 140.607 397.103 140.253 397.09 139.8C397.077 139.333 397.023 138.827 396.93 138.28C396.837 137.72 396.69 137.153 396.49 136.58C396.303 136.007 396.03 135.493 395.67 135.04C395.31 134.573 394.85 134.193 394.29 133.9C393.73 133.593 393.043 133.44 392.23 133.44C391.497 133.44 390.863 133.58 390.33 133.86C389.81 134.14 389.37 134.5 389.01 134.94C388.65 135.38 388.357 135.88 388.13 136.44C387.917 136.987 387.75 137.54 387.63 138.1C387.523 138.647 387.45 139.167 387.41 139.66C387.37 140.14 387.35 140.54 387.35 140.86ZM401.163 140.86C401.163 139.593 401.177 138.513 401.203 137.62C401.243 136.713 401.337 135.973 401.483 135.4C401.63 134.827 401.843 134.407 402.123 134.14C402.417 133.86 402.823 133.72 403.343 133.72C403.863 133.72 404.263 133.847 404.543 134.1C404.837 134.34 405.057 134.747 405.203 135.32C405.35 135.88 405.437 136.613 405.463 137.52C405.503 138.427 405.523 139.54 405.523 140.86C405.523 142.113 405.503 143.193 405.463 144.1C405.437 145.007 405.35 145.747 405.203 146.32C405.057 146.893 404.837 147.32 404.543 147.6C404.263 147.867 403.863 148 403.343 148C402.823 148 402.417 147.867 402.123 147.6C401.843 147.32 401.63 146.893 401.483 146.32C401.337 145.747 401.243 145.007 401.203 144.1C401.177 143.193 401.163 142.113 401.163 140.86ZM398.463 140.86C398.463 141.113 398.47 141.473 398.483 141.94C398.497 142.407 398.55 142.913 398.643 143.46C398.737 144.007 398.877 144.567 399.063 145.14C399.263 145.7 399.543 146.213 399.903 146.68C400.263 147.147 400.723 147.527 401.283 147.82C401.843 148.113 402.53 148.26 403.343 148.26C404.077 148.26 404.703 148.127 405.223 147.86C405.757 147.58 406.203 147.22 406.563 146.78C406.923 146.327 407.21 145.827 407.423 145.28C407.65 144.733 407.817 144.187 407.923 143.64C408.043 143.08 408.123 142.56 408.163 142.08C408.203 141.587 408.223 141.18 408.223 140.86C408.223 140.607 408.217 140.253 408.203 139.8C408.19 139.333 408.137 138.827 408.043 138.28C407.95 137.72 407.803 137.153 407.603 136.58C407.417 136.007 407.143 135.493 406.783 135.04C406.423 134.573 405.963 134.193 405.403 133.9C404.843 133.593 404.157 133.44 403.343 133.44C402.61 133.44 401.977 133.58 401.443 133.86C400.923 134.14 400.483 134.5 400.123 134.94C399.763 135.38 399.47 135.88 399.243 136.44C399.03 136.987 398.863 137.54 398.743 138.1C398.637 138.647 398.563 139.167 398.523 139.66C398.483 140.14 398.463 140.54 398.463 140.86Z" fill="white"/>
</svg>
