<svg width="143" height="117" viewBox="0 0 143 117" fill="none" xmlns="http://www.w3.org/2000/svg">
<path d="M6.82 14.72C7.04667 14.7467 7.30667 14.7667 7.6 14.78C7.90667 14.7933 8.24 14.8 8.6 14.8C9.05333 14.8 9.5 14.78 9.94 14.74C10.3933 14.6867 10.82 14.5867 11.22 14.44C11.6333 14.28 12.0133 14.06 12.36 13.78C12.72 13.4867 13.04 13.1067 13.32 12.64C13.7467 11.92 14.04 11.1867 14.2 10.44C14.3733 9.68 14.46 8.85333 14.46 7.96C14.46 6.90667 14.36 5.95333 14.16 5.1C13.96 4.23333 13.6267 3.5 13.16 2.9C12.7067 2.28667 12.1 1.81333 11.34 1.48C10.58 1.14667 9.64 0.979999 8.52 0.979999C8.18667 0.979999 7.88 0.986666 7.6 0.999999C7.33333 1.01333 7.07333 1.02667 6.82 1.04V14.72ZM2.6 14.72H4.82V1.04H2.6V0.76H6.32C6.50667 0.76 6.69333 0.76 6.88 0.76C7.06667 0.746666 7.25333 0.733332 7.44 0.719999C7.62667 0.719999 7.81333 0.719999 8 0.719999C8.18667 0.706666 8.37333 0.699999 8.56 0.699999C8.96 0.699999 9.31333 0.706666 9.62 0.719999C9.94 0.733332 10.2333 0.759999 10.5 0.799999C10.78 0.826666 11.04 0.873333 11.28 0.94C11.5333 0.993332 11.8 1.06667 12.08 1.16C12.8933 1.42667 13.5933 1.78667 14.18 2.24C14.78 2.68 15.2667 3.19333 15.64 3.78C16.0267 4.36667 16.3067 5.00667 16.48 5.7C16.6667 6.39333 16.76 7.12 16.76 7.88C16.76 8.76 16.6533 9.55333 16.44 10.26C16.2267 10.9533 15.9333 11.5733 15.56 12.12C15.1867 12.6533 14.7467 13.12 14.24 13.52C13.7467 13.9067 13.2133 14.22 12.64 14.46C12.32 14.6067 12.0133 14.72 11.72 14.8C11.44 14.88 11.1467 14.94 10.84 14.98C10.5467 15.02 10.22 15.0467 9.86 15.06C9.5 15.0733 9.08667 15.08 8.62 15.08C8.42 15.08 8.20667 15.0733 7.98 15.06C7.75333 15.06 7.52667 15.0533 7.3 15.04C7.07333 15.0267 6.84667 15.0133 6.62 15C6.40667 15 6.2 15 6 15H2.6V14.72ZM20.1686 1.76C20.1686 1.46667 20.2686 1.22 20.4686 1.02C20.6819 0.806666 20.9353 0.699999 21.2286 0.699999C21.5219 0.699999 21.7686 0.806666 21.9686 1.02C22.1819 1.22 22.2886 1.46667 22.2886 1.76C22.2886 2.05333 22.1819 2.30667 21.9686 2.52C21.7686 2.72 21.5219 2.82 21.2286 2.82C20.9353 2.82 20.6819 2.72 20.4686 2.52C20.2686 2.30667 20.1686 2.05333 20.1686 1.76ZM18.8686 14.72H20.4086V6.7H18.8686V6.42H22.1286V14.72H23.6686V15H18.8686V14.72ZM27.2666 10.42C27.2666 11.1133 27.2866 11.7467 27.3266 12.32C27.3666 12.88 27.4666 13.36 27.6266 13.76C27.7866 14.16 28.0266 14.4667 28.3466 14.68C28.6666 14.8933 29.0999 15 29.6466 15C30.2066 15 30.6532 14.88 30.9866 14.64C31.3332 14.4 31.5999 14.0933 31.7866 13.72C31.9732 13.3333 32.0999 12.9067 32.1666 12.44C32.2332 11.9733 32.2666 11.52 32.2666 11.08C32.2666 10.56 32.2532 10.1133 32.2266 9.74C32.2132 9.35333 32.1799 9.01333 32.1266 8.72C32.0732 8.42667 31.9999 8.17333 31.9066 7.96C31.8132 7.74667 31.6999 7.54667 31.5666 7.36C31.3666 7.09333 31.1066 6.87333 30.7866 6.7C30.4666 6.52667 30.0599 6.44 29.5666 6.44C29.0999 6.44 28.7132 6.53333 28.4066 6.72C28.1132 6.90667 27.8799 7.17333 27.7066 7.52C27.5466 7.86667 27.4332 8.28667 27.3666 8.78C27.2999 9.26 27.2666 9.80667 27.2666 10.42ZM30.7266 0.58H33.9866V14.72H35.5266V15H32.3066V13.26H32.2666C32.2132 13.42 32.1332 13.6133 32.0266 13.84C31.9199 14.0667 31.7599 14.2867 31.5466 14.5C31.3466 14.7133 31.0866 14.8933 30.7666 15.04C30.4599 15.2 30.0799 15.28 29.6266 15.28C29.0399 15.28 28.4799 15.1533 27.9466 14.9C27.4266 14.6467 26.9666 14.3067 26.5666 13.88C26.1666 13.4533 25.8466 12.9667 25.6066 12.42C25.3799 11.86 25.2666 11.2733 25.2666 10.66C25.2666 10.06 25.3799 9.48667 25.6066 8.94C25.8332 8.39333 26.1399 7.92 26.5266 7.52C26.9132 7.10667 27.3599 6.78 27.8666 6.54C28.3732 6.28667 28.9132 6.16 29.4866 6.16C30.2199 6.16 30.8132 6.34 31.2666 6.7C31.7199 7.06 32.0399 7.5 32.2266 8.02H32.2666V0.86H30.7266V0.58ZM38.982 10.72C38.982 11.6667 39.0554 12.42 39.202 12.98C39.3487 13.54 39.542 13.9733 39.782 14.28C40.022 14.5733 40.302 14.7667 40.622 14.86C40.942 14.9533 41.282 15 41.642 15C42.002 15 42.342 14.9533 42.662 14.86C42.982 14.7667 43.262 14.5733 43.502 14.28C43.742 13.9733 43.9354 13.54 44.082 12.98C44.2287 12.42 44.302 11.6667 44.302 10.72C44.302 9.92 44.2487 9.25333 44.142 8.72C44.0354 8.17333 43.8687 7.73333 43.642 7.4C43.4287 7.05333 43.1554 6.80667 42.822 6.66C42.4887 6.51333 42.0954 6.44 41.642 6.44C41.1887 6.44 40.7954 6.51333 40.462 6.66C40.1287 6.80667 39.8487 7.05333 39.622 7.4C39.4087 7.73333 39.2487 8.17333 39.142 8.72C39.0354 9.25333 38.982 9.92 38.982 10.72ZM36.982 10.72C36.982 10.0667 37.122 9.46 37.402 8.9C37.6954 8.34 38.062 7.86 38.502 7.46C38.9554 7.04667 39.4554 6.72667 40.002 6.5C40.562 6.27333 41.1087 6.16 41.642 6.16C42.1754 6.16 42.7154 6.27333 43.262 6.5C43.822 6.72667 44.322 7.04667 44.762 7.46C45.2154 7.86 45.582 8.34 45.862 8.9C46.1554 9.46 46.302 10.0667 46.302 10.72C46.302 11.3467 46.1687 11.94 45.902 12.5C45.6354 13.0467 45.282 13.5267 44.842 13.94C44.4154 14.3533 43.922 14.68 43.362 14.92C42.802 15.16 42.2287 15.28 41.642 15.28C41.0554 15.28 40.482 15.16 39.922 14.92C39.362 14.68 38.862 14.3533 38.422 13.94C37.9954 13.5267 37.6487 13.0467 37.382 12.5C37.1154 11.94 36.982 11.3467 36.982 10.72ZM47.5353 6.42H49.0753V3.84C49.182 3.88 49.282 3.91333 49.3753 3.94C49.4686 3.96667 49.6286 3.98 49.8553 3.98C50.0553 3.98 50.2286 3.96 50.3753 3.92C50.522 3.86667 50.662 3.78667 50.7953 3.68V6.42H53.6353V6.7H50.7953V13.24C50.7953 13.6133 50.8286 13.92 50.8953 14.16C50.9753 14.3867 51.0753 14.5667 51.1953 14.7C51.3153 14.82 51.442 14.9 51.5753 14.94C51.722 14.98 51.862 15 51.9953 15C52.462 15 52.8353 14.8333 53.1153 14.5C53.4086 14.1533 53.5953 13.76 53.6753 13.32L53.9553 13.42C53.9153 13.5933 53.8553 13.7867 53.7753 14C53.6953 14.2133 53.5686 14.42 53.3953 14.62C53.2353 14.8067 53.022 14.96 52.7553 15.08C52.4886 15.2133 52.1553 15.28 51.7553 15.28C50.7553 15.28 50.0553 15.0867 49.6553 14.7C49.2686 14.3133 49.0753 13.7667 49.0753 13.06V6.7H47.5353V6.42ZM61.2619 9.98H64.9819V11.3H61.2619V9.98ZM77.2106 7.22H79.0506C79.424 7.22 79.764 7.17333 80.0706 7.08C80.3773 6.98667 80.6373 6.82667 80.8506 6.6C81.0773 6.36 81.2506 6.04 81.3706 5.64C81.4906 5.24 81.5506 4.73333 81.5506 4.12C81.5506 3.42667 81.4573 2.87333 81.2706 2.46C81.0973 2.03333 80.864 1.71333 80.5706 1.5C80.2906 1.28667 79.9706 1.14667 79.6106 1.08C79.264 1.01333 78.9173 0.979999 78.5706 0.979999C78.3306 0.979999 78.084 0.986666 77.8306 0.999999C77.5906 0.999999 77.384 1.01333 77.2106 1.04V7.22ZM72.9906 14.72H75.2106V1.04H72.9906V0.76H76.7906C76.9506 0.76 77.1106 0.76 77.2706 0.76C77.4306 0.746666 77.5906 0.733332 77.7506 0.719999C77.9106 0.719999 78.0706 0.719999 78.2306 0.719999C78.3906 0.706666 78.5506 0.699999 78.7106 0.699999C79.4973 0.699999 80.1906 0.746666 80.7906 0.84C81.3906 0.92 81.9506 1.16667 82.4706 1.58C82.9373 1.94 83.264 2.34667 83.4506 2.8C83.6506 3.25333 83.7506 3.68 83.7506 4.08C83.7506 4.28 83.7106 4.54 83.6306 4.86C83.564 5.16667 83.404 5.48667 83.1506 5.82C82.9106 6.14 82.5573 6.44 82.0906 6.72C81.624 6.98667 81.004 7.16667 80.2306 7.26V7.3C80.444 7.32667 80.7306 7.38 81.0906 7.46C81.464 7.52667 81.8373 7.64667 82.2106 7.82C82.5973 7.99333 82.9506 8.22667 83.2706 8.52C83.5906 8.8 83.8173 9.16667 83.9506 9.62C84.0306 9.88667 84.084 10.1933 84.1106 10.54C84.1506 10.8733 84.1773 11.22 84.1906 11.58C84.2173 11.94 84.2373 12.2867 84.2506 12.62C84.2773 12.9533 84.3173 13.2333 84.3706 13.46C84.4506 13.8067 84.5773 14.12 84.7506 14.4C84.924 14.68 85.204 14.82 85.5906 14.82C85.764 14.82 85.944 14.7867 86.1306 14.72C86.3173 14.6533 86.484 14.5467 86.6306 14.4L86.8106 14.62C86.744 14.6733 86.664 14.7333 86.5706 14.8C86.4906 14.8533 86.384 14.9067 86.2506 14.96C86.1173 15.0133 85.9506 15.0533 85.7506 15.08C85.564 15.12 85.3306 15.14 85.0506 15.14C84.5173 15.14 84.0706 15.0733 83.7106 14.94C83.364 14.8067 83.084 14.6133 82.8706 14.36C82.6573 14.0933 82.4973 13.7733 82.3906 13.4C82.2973 13.0133 82.2306 12.5667 82.1906 12.06L82.0506 10.24C81.9973 9.57333 81.864 9.05333 81.6506 8.68C81.4373 8.30667 81.184 8.03333 80.8906 7.86C80.6106 7.68667 80.3173 7.58667 80.0106 7.56C79.704 7.52 79.4373 7.5 79.2106 7.5H77.2106V14.72H79.4306V15H72.9906V14.72ZM93.8642 9.76C93.8909 9.57333 93.9042 9.4 93.9042 9.24C93.9042 9.08 93.9042 8.91333 93.9042 8.74C93.9042 8.28667 93.8576 7.91333 93.7642 7.62C93.6842 7.32667 93.5642 7.09333 93.4042 6.92C93.2576 6.74667 93.0709 6.62667 92.8442 6.56C92.6309 6.48 92.3976 6.44 92.1442 6.44C91.6909 6.44 91.3176 6.53333 91.0242 6.72C90.7309 6.89333 90.4976 7.13333 90.3242 7.44C90.1509 7.74667 90.0176 8.1 89.9242 8.5C89.8442 8.9 89.7909 9.32 89.7642 9.76H93.8642ZM89.7442 10.04C89.7442 10.1733 89.7376 10.3133 89.7242 10.46C89.7242 10.5933 89.7242 10.7667 89.7242 10.98C89.7242 11.42 89.7509 11.88 89.8042 12.36C89.8576 12.84 89.9709 13.2733 90.1442 13.66C90.3309 14.0467 90.5976 14.3667 90.9442 14.62C91.3042 14.8733 91.7776 15 92.3642 15C92.9509 15 93.4309 14.9133 93.8042 14.74C94.1909 14.5667 94.4909 14.36 94.7042 14.12C94.9309 13.8667 95.0976 13.6133 95.2042 13.36C95.3109 13.1067 95.3909 12.9 95.4442 12.74L95.7442 12.8C95.7042 12.9467 95.6242 13.16 95.5042 13.44C95.3976 13.7067 95.2176 13.98 94.9642 14.26C94.7242 14.5267 94.3909 14.7667 93.9642 14.98C93.5509 15.18 93.0109 15.28 92.3442 15.28C91.6776 15.28 91.0576 15.1733 90.4842 14.96C89.9242 14.7467 89.4376 14.44 89.0242 14.04C88.6109 13.64 88.2909 13.1667 88.0642 12.62C87.8376 12.06 87.7242 11.44 87.7242 10.76C87.7242 10.1733 87.8376 9.60667 88.0642 9.06C88.3042 8.5 88.6242 8.00667 89.0242 7.58C89.4376 7.15333 89.9176 6.81333 90.4642 6.56C91.0109 6.29333 91.5976 6.16 92.2242 6.16C92.5976 6.16 92.9976 6.22667 93.4242 6.36C93.8509 6.49333 94.2442 6.71333 94.6042 7.02C94.9776 7.31333 95.2842 7.70667 95.5242 8.2C95.7776 8.69333 95.9042 9.30667 95.9042 10.04H89.7442ZM100.704 15.6C100.531 15.7067 100.351 15.8133 100.164 15.92C99.9909 16.04 99.8309 16.1867 99.6842 16.36C99.5509 16.5333 99.4376 16.7333 99.3442 16.96C99.2642 17.2 99.2242 17.4933 99.2242 17.84C99.2242 18.32 99.3042 18.7133 99.4642 19.02C99.6376 19.34 99.8509 19.5933 100.104 19.78C100.371 19.98 100.664 20.12 100.984 20.2C101.304 20.28 101.618 20.32 101.924 20.32C102.404 20.32 102.838 20.2467 103.224 20.1C103.624 19.9533 103.964 19.7533 104.244 19.5C104.538 19.26 104.758 18.98 104.904 18.66C105.064 18.34 105.144 18.0067 105.144 17.66C105.144 16.9133 104.938 16.38 104.524 16.06C104.124 15.7533 103.571 15.6 102.864 15.6H100.704ZM103.944 9.1C103.944 8.79333 103.924 8.48667 103.884 8.18C103.844 7.86 103.758 7.57333 103.624 7.32C103.504 7.05333 103.311 6.84 103.044 6.68C102.791 6.52 102.444 6.44 102.004 6.44C101.324 6.44 100.811 6.64667 100.464 7.06C100.118 7.47333 99.9442 8.15333 99.9442 9.1C99.9442 9.5 99.9709 9.86 100.024 10.18C100.091 10.5 100.204 10.78 100.364 11.02C100.524 11.2467 100.738 11.42 101.004 11.54C101.271 11.66 101.611 11.72 102.024 11.72C102.718 11.72 103.211 11.5067 103.504 11.08C103.798 10.64 103.944 9.98 103.944 9.1ZM97.7042 13.7C97.7042 13.34 97.7709 13.0333 97.9042 12.78C98.0376 12.5133 98.1976 12.2867 98.3842 12.1C98.5842 11.9 98.7909 11.74 99.0042 11.62C99.2309 11.5 99.4309 11.4 99.6042 11.32C98.8309 10.7867 98.4442 10.0667 98.4442 9.16C98.4442 8.69333 98.5576 8.27333 98.7842 7.9C99.0109 7.52667 99.2976 7.21333 99.6442 6.96C99.9909 6.69333 100.371 6.49333 100.784 6.36C101.211 6.22667 101.618 6.16 102.004 6.16C102.604 6.16 103.118 6.28 103.544 6.52C103.984 6.76 104.304 6.98 104.504 7.18C104.651 6.92667 104.864 6.69333 105.144 6.48C105.438 6.26667 105.798 6.16 106.224 6.16C106.491 6.16 106.738 6.22 106.964 6.34C107.191 6.44667 107.304 6.68667 107.304 7.06C107.304 7.3 107.224 7.48 107.064 7.6C106.918 7.72 106.764 7.78 106.604 7.78C106.418 7.78 106.284 7.72667 106.204 7.62C106.124 7.51333 106.051 7.4 105.984 7.28C105.931 7.16 105.871 7.04667 105.804 6.94C105.738 6.83333 105.638 6.78 105.504 6.78C105.371 6.78 105.231 6.84 105.084 6.96C104.951 7.06667 104.831 7.19333 104.724 7.34C104.844 7.47333 104.998 7.7 105.184 8.02C105.371 8.34 105.464 8.74 105.464 9.22C105.464 9.62 105.364 9.98667 105.164 10.32C104.964 10.6533 104.698 10.9467 104.364 11.2C104.044 11.4533 103.664 11.6533 103.224 11.8C102.798 11.9333 102.358 12 101.904 12C101.438 12 101.031 11.94 100.684 11.82C100.338 11.6867 100.071 11.5733 99.8842 11.48C99.7376 11.5467 99.5776 11.62 99.4042 11.7C99.2442 11.78 99.0909 11.88 98.9442 12C98.8109 12.12 98.6976 12.2667 98.6042 12.44C98.5109 12.6 98.4642 12.7867 98.4642 13C98.4642 13.2 98.5042 13.3667 98.5842 13.5C98.6642 13.6333 98.7642 13.7333 98.8842 13.8C99.0176 13.8667 99.1642 13.9133 99.3242 13.94C99.4842 13.9667 99.6509 13.98 99.8242 13.98H102.984C103.918 13.98 104.658 14.2067 105.204 14.66C105.764 15.1 106.044 15.8 106.044 16.76C106.044 17.3467 105.918 17.88 105.664 18.36C105.411 18.84 105.071 19.2533 104.644 19.6C104.231 19.96 103.751 20.2333 103.204 20.42C102.658 20.62 102.098 20.72 101.524 20.72C101.004 20.72 100.524 20.66 100.084 20.54C99.6576 20.42 99.2842 20.2533 98.9642 20.04C98.6442 19.84 98.3909 19.5933 98.2042 19.3C98.0309 19.0067 97.9442 18.68 97.9442 18.32C97.9442 17.9733 98.0109 17.6533 98.1442 17.36C98.2909 17.08 98.4709 16.8267 98.6842 16.6C98.9109 16.3867 99.1642 16.2 99.4442 16.04C99.7242 15.88 100.004 15.7467 100.284 15.64V15.6C99.4042 15.6 98.7509 15.4533 98.3242 15.16C97.9109 14.88 97.7042 14.3933 97.7042 13.7ZM118.575 15H115.355V12.98H115.315C115.195 13.2467 115.049 13.52 114.875 13.8C114.715 14.0667 114.509 14.3133 114.255 14.54C114.015 14.7533 113.729 14.9267 113.395 15.06C113.075 15.2067 112.695 15.28 112.255 15.28C111.722 15.28 111.289 15.22 110.955 15.1C110.622 14.98 110.362 14.8533 110.175 14.72C110.082 14.6533 109.975 14.5733 109.855 14.48C109.749 14.3733 109.649 14.2333 109.555 14.06C109.462 13.8867 109.382 13.6667 109.315 13.4C109.249 13.12 109.215 12.78 109.215 12.38V6.7H107.675V6.42H110.935V12.56C110.935 12.9067 110.955 13.2267 110.995 13.52C111.049 13.8133 111.142 14.0733 111.275 14.3C111.409 14.5133 111.582 14.6867 111.795 14.82C112.009 14.94 112.289 15 112.635 15C112.929 15 113.229 14.9133 113.535 14.74C113.855 14.5667 114.142 14.32 114.395 14C114.662 13.68 114.882 13.3 115.055 12.86C115.229 12.4067 115.315 11.9 115.315 11.34V6.7H113.795V6.42H117.035V14.72H118.575V15ZM119.611 14.72H121.151V0.86H119.611V0.58H122.871V14.72H124.411V15H119.611V14.72ZM131.029 10.1H130.989C130.962 10.2733 130.742 10.4467 130.329 10.62L128.829 11.22C128.402 11.3933 128.075 11.64 127.849 11.96C127.622 12.2667 127.509 12.6533 127.509 13.12C127.509 13.32 127.529 13.5267 127.569 13.74C127.609 13.9533 127.682 14.1467 127.789 14.32C127.895 14.48 128.042 14.6133 128.229 14.72C128.429 14.8267 128.682 14.88 128.989 14.88C129.429 14.88 129.782 14.7867 130.049 14.6C130.329 14.4133 130.535 14.18 130.669 13.9C130.815 13.62 130.909 13.32 130.949 13C131.002 12.6667 131.029 12.3667 131.029 12.1V10.1ZM134.529 14.78C134.355 14.9133 134.149 15.0267 133.909 15.12C133.669 15.2267 133.375 15.28 133.029 15.28C132.389 15.28 131.922 15.1467 131.629 14.88C131.349 14.6 131.155 14.2133 131.049 13.72H131.009C130.955 13.84 130.882 13.9933 130.789 14.18C130.695 14.3533 130.549 14.5267 130.349 14.7C130.162 14.86 129.909 14.9933 129.589 15.1C129.269 15.22 128.862 15.28 128.369 15.28C127.809 15.28 127.362 15.2133 127.029 15.08C126.695 14.96 126.435 14.8067 126.249 14.62C126.062 14.4333 125.935 14.2267 125.869 14C125.815 13.76 125.789 13.54 125.789 13.34C125.789 12.8733 125.882 12.5 126.069 12.22C126.255 11.94 126.495 11.72 126.789 11.56C127.095 11.3867 127.429 11.2467 127.789 11.14C128.162 11.0333 128.535 10.92 128.909 10.8C129.349 10.6533 129.709 10.5267 129.989 10.42C130.282 10.3133 130.509 10.1867 130.669 10.04C130.829 9.88 130.935 9.68667 130.989 9.46C131.055 9.22 131.089 8.9 131.089 8.5C131.089 8.18 131.069 7.89333 131.029 7.64C130.989 7.38667 130.915 7.17333 130.809 7C130.702 6.81333 130.549 6.67333 130.349 6.58C130.149 6.48667 129.882 6.44 129.549 6.44C129.109 6.44 128.742 6.52 128.449 6.68C128.169 6.82667 128.029 7.07333 128.029 7.42C128.029 7.64667 128.049 7.87333 128.089 8.1C128.129 8.31333 128.149 8.47333 128.149 8.58C128.149 8.76667 128.082 8.92667 127.949 9.06C127.815 9.18 127.622 9.24 127.369 9.24C126.929 9.24 126.655 9.16 126.549 9C126.442 8.84 126.389 8.63333 126.389 8.38C126.389 8.08667 126.455 7.80667 126.589 7.54C126.722 7.27333 126.915 7.04 127.169 6.84C127.435 6.62667 127.762 6.46 128.149 6.34C128.549 6.22 129.002 6.16 129.509 6.16C130.122 6.16 130.635 6.24 131.049 6.4C131.462 6.54667 131.795 6.75333 132.049 7.02C132.302 7.27333 132.482 7.56667 132.589 7.9C132.695 8.22 132.749 8.56 132.749 8.92V13.9C132.749 14.2867 132.809 14.5467 132.929 14.68C133.049 14.8133 133.222 14.88 133.449 14.88C133.595 14.88 133.749 14.8533 133.909 14.8C134.069 14.7467 134.222 14.6667 134.369 14.56L134.529 14.78ZM135.138 14.72H136.678V6.7H135.138V6.42H138.358V8.44H138.398C138.451 8.24 138.538 8.01333 138.658 7.76C138.778 7.50667 138.944 7.26667 139.158 7.04C139.371 6.8 139.624 6.6 139.918 6.44C140.224 6.28 140.591 6.2 141.018 6.2C141.324 6.2 141.591 6.25333 141.818 6.36C142.044 6.45333 142.231 6.58 142.378 6.74C142.524 6.88667 142.631 7.06 142.698 7.26C142.764 7.46 142.798 7.66 142.798 7.86C142.798 8.3 142.698 8.59333 142.498 8.74C142.298 8.88667 142.064 8.96 141.798 8.96C141.211 8.96 140.918 8.77333 140.918 8.4C140.918 8.28 140.931 8.18667 140.958 8.12C140.984 8.04 141.011 7.96667 141.038 7.9C141.078 7.82 141.111 7.73333 141.138 7.64C141.164 7.54667 141.178 7.41333 141.178 7.24C141.178 6.81333 140.944 6.6 140.478 6.6C140.264 6.6 140.038 6.68 139.798 6.84C139.558 7 139.331 7.23333 139.118 7.54C138.918 7.84667 138.744 8.22 138.598 8.66C138.464 9.08667 138.398 9.58 138.398 10.14V14.72H140.138V15H135.138V14.72ZM4.32 64.7L9.2 51.04H10.92C11.52 51.04 12.0067 51.08 12.38 51.16C12.7533 51.24 13.1 51.36 13.42 51.52C13.8467 51.7467 14.2133 52.12 14.52 52.64C14.84 53.1467 15 53.78 15 54.54C15 55.42 14.8933 56.3133 14.68 57.22C14.48 58.1133 14.18 58.9667 13.78 59.78C13.38 60.5933 12.8933 61.34 12.32 62.02C11.76 62.7 11.12 63.2667 10.4 63.72C10.0533 63.9333 9.72667 64.1133 9.42 64.26C9.12667 64.3933 8.83333 64.5 8.54 64.58C8.26 64.66 7.97333 64.72 7.68 64.76C7.38667 64.7867 7.06667 64.8 6.72 64.8C6.30667 64.8 5.9 64.7867 5.5 64.76C5.1 64.7333 4.70667 64.7133 4.32 64.7ZM7.4 51.04L2.48 64.72H0.44L0.36 65H3.72C4 65 4.28 65 4.56 65C4.84 65 5.12667 65.0067 5.42 65.02C5.7 65.0333 5.98 65.04 6.26 65.04C6.54 65.0533 6.82 65.06 7.1 65.06C8.51333 65.06 9.80667 64.8 10.98 64.28C12.1533 63.76 13.16 63.08 14 62.24C14.8533 61.4 15.5133 60.4533 15.98 59.4C16.4467 58.3467 16.68 57.28 16.68 56.2C16.68 55.48 16.5733 54.7933 16.36 54.14C16.1467 53.4867 15.8133 52.9133 15.36 52.42C14.92 51.9133 14.3533 51.5133 13.66 51.22C12.98 50.9133 12.1667 50.76 11.22 50.76H5.18L5.1 51.04H7.4ZM21.858 51.7C21.858 51.9667 21.9446 52.1933 22.118 52.38C22.3046 52.5533 22.5313 52.64 22.798 52.64C23.0646 52.64 23.2846 52.5533 23.458 52.38C23.6446 52.1933 23.738 51.9667 23.738 51.7C23.738 51.4333 23.6446 51.2133 23.458 51.04C23.2846 50.8533 23.0646 50.76 22.798 50.76C22.5313 50.76 22.3046 50.8533 22.118 51.04C21.9446 51.2133 21.858 51.4333 21.858 51.7ZM20.618 56.7L18.558 62.56C18.478 62.7867 18.398 63.04 18.318 63.32C18.238 63.5867 18.198 63.8333 18.198 64.06C18.198 64.4867 18.3246 64.7933 18.578 64.98C18.8446 65.1533 19.198 65.24 19.638 65.24C20.038 65.24 20.3846 65.16 20.678 65C20.9713 64.84 21.218 64.6533 21.418 64.44C21.618 64.2133 21.7713 63.9933 21.878 63.78C21.998 63.5533 22.0846 63.3867 22.138 63.28L21.898 63.18C21.8446 63.3 21.758 63.46 21.638 63.66C21.518 63.86 21.3713 64.06 21.198 64.26C21.0246 64.4467 20.8313 64.6133 20.618 64.76C20.418 64.9067 20.2113 64.98 19.998 64.98C19.8113 64.98 19.6713 64.9267 19.578 64.82C19.4846 64.7 19.438 64.56 19.438 64.4C19.438 64.2133 19.4713 64.02 19.538 63.82C19.6046 63.6067 19.6713 63.4 19.738 63.2L22.098 56.42H18.918L18.838 56.7H20.618ZM30.5844 59.04L29.5244 61.98C29.4577 62.1667 29.3044 62.4267 29.0644 62.76C28.8244 63.0933 28.5377 63.4267 28.2044 63.76C27.871 64.0933 27.5044 64.38 27.1044 64.62C26.7044 64.86 26.311 64.98 25.9244 64.98C25.5377 64.98 25.2577 64.8467 25.0844 64.58C24.9244 64.3133 24.8444 63.9667 24.8444 63.54C24.8444 63.1667 24.9044 62.7333 25.0244 62.24C25.1444 61.7467 25.311 61.24 25.5244 60.72C25.751 60.1867 26.0177 59.6667 26.3244 59.16C26.631 58.64 26.9644 58.18 27.3244 57.78C27.6977 57.38 28.091 57.06 28.5044 56.82C28.931 56.5667 29.3644 56.44 29.8044 56.44C30.0444 56.44 30.2377 56.4867 30.3844 56.58C30.531 56.66 30.6444 56.76 30.7244 56.88C30.8177 57 30.8777 57.1333 30.9044 57.28C30.9444 57.4133 30.9644 57.54 30.9644 57.66C30.9644 57.7933 30.9377 57.9533 30.8844 58.14C30.8444 58.3133 30.7444 58.6133 30.5844 59.04ZM30.7444 62.48L35.2844 49.8H32.1044L32.0244 50.08H33.7844L31.1844 57.4H31.1444C31.1444 57.0267 31.0044 56.7267 30.7244 56.5C30.4444 56.2733 30.1044 56.16 29.7044 56.16C29.3577 56.16 28.9577 56.2467 28.5044 56.42C28.0644 56.5933 27.611 56.8333 27.1444 57.14C26.691 57.4467 26.2377 57.8067 25.7844 58.22C25.3444 58.6333 24.951 59.0867 24.6044 59.58C24.271 60.06 23.9977 60.5667 23.7844 61.1C23.571 61.6333 23.4644 62.1667 23.4644 62.7C23.4644 63.14 23.5177 63.52 23.6244 63.84C23.7444 64.16 23.9044 64.4267 24.1044 64.64C24.3044 64.84 24.531 64.9867 24.7844 65.08C25.051 65.1867 25.3244 65.24 25.6044 65.24C26.0444 65.24 26.4444 65.16 26.8044 65C27.1644 64.8533 27.491 64.6667 27.7844 64.44C28.091 64.2 28.3644 63.9467 28.6044 63.68C28.8444 63.4 29.0577 63.1467 29.2444 62.92H29.2844C29.2177 63.1067 29.1644 63.32 29.1244 63.56C29.0844 63.7867 29.0644 63.9467 29.0644 64.04C29.0644 64.84 29.5044 65.24 30.3844 65.24C30.7577 65.24 31.0844 65.16 31.3644 65C31.6444 64.8533 31.891 64.68 32.1044 64.48C32.3177 64.2667 32.491 64.0467 32.6244 63.82C32.7577 63.5933 32.8577 63.4067 32.9244 63.26L32.6644 63.12C32.6244 63.2 32.551 63.34 32.4444 63.54C32.351 63.7267 32.2244 63.92 32.0644 64.12C31.9177 64.3067 31.7377 64.48 31.5244 64.64C31.311 64.7867 31.071 64.86 30.8044 64.86C30.471 64.86 30.3044 64.6867 30.3044 64.34C30.3044 64.0867 30.3444 63.8 30.4244 63.48C30.5177 63.16 30.6244 62.8267 30.7444 62.48ZM35.5466 62.98C35.5466 62.6333 35.5866 62.2333 35.6666 61.78C35.7466 61.3133 35.8599 60.84 36.0066 60.36C36.1666 59.8667 36.3599 59.3867 36.5866 58.92C36.8132 58.4533 37.0666 58.04 37.3466 57.68C37.6399 57.3067 37.9599 57.0067 38.3066 56.78C38.6532 56.5533 39.0199 56.44 39.4066 56.44C40.0866 56.44 40.5599 56.6267 40.8266 57C41.1066 57.3733 41.2466 57.88 41.2466 58.52C41.2466 58.7867 41.2066 59.1333 41.1266 59.56C41.0466 59.9867 40.9266 60.44 40.7666 60.92C40.6199 61.4 40.4332 61.88 40.2066 62.36C39.9799 62.84 39.7199 63.28 39.4266 63.68C39.1332 64.0667 38.8066 64.38 38.4466 64.62C38.0866 64.86 37.6999 64.98 37.2866 64.98C36.7799 64.98 36.3599 64.82 36.0266 64.5C35.7066 64.1667 35.5466 63.66 35.5466 62.98ZM34.2266 61.86C34.2266 62.3133 34.2999 62.7467 34.4466 63.16C34.5932 63.56 34.7999 63.9133 35.0666 64.22C35.3466 64.5267 35.6732 64.7733 36.0466 64.96C36.4332 65.1467 36.8666 65.24 37.3466 65.24C37.9066 65.24 38.4932 65.0933 39.1066 64.8C39.7332 64.4933 40.2999 64.08 40.8066 63.56C41.3132 63.04 41.7332 62.44 42.0666 61.76C42.3999 61.0667 42.5666 60.3333 42.5666 59.56C42.5666 59.1867 42.5066 58.8 42.3866 58.4C42.2666 58 42.0799 57.6333 41.8266 57.3C41.5732 56.9667 41.2532 56.6933 40.8666 56.48C40.4799 56.2667 40.0266 56.16 39.5066 56.16C38.9332 56.16 38.3332 56.3067 37.7066 56.6C37.0799 56.8933 36.5066 57.2933 35.9866 57.8C35.4799 58.3067 35.0599 58.9133 34.7266 59.62C34.3932 60.3133 34.2266 61.06 34.2266 61.86ZM47.3555 54.46L46.6355 56.42H44.8355L44.7555 56.7H46.5555L44.5955 62.14C44.4888 62.42 44.3821 62.7333 44.2755 63.08C44.1821 63.4133 44.1355 63.7133 44.1355 63.98C44.1355 64.3267 44.2621 64.6267 44.5155 64.88C44.7688 65.12 45.1488 65.24 45.6555 65.24C46.0688 65.24 46.4221 65.16 46.7155 65C47.0221 64.84 47.2755 64.6533 47.4755 64.44C47.6755 64.2133 47.8355 63.9933 47.9555 63.78C48.0755 63.5533 48.1621 63.3867 48.2155 63.28L47.9755 63.18C47.9221 63.3 47.8355 63.46 47.7155 63.66C47.5955 63.86 47.4488 64.06 47.2755 64.26C47.1021 64.4467 46.9088 64.6133 46.6955 64.76C46.4821 64.9067 46.2555 64.98 46.0155 64.98C45.7888 64.98 45.6221 64.92 45.5155 64.8C45.4221 64.68 45.3755 64.52 45.3755 64.32C45.3755 64.1067 45.4088 63.8933 45.4755 63.68C45.5421 63.4667 45.6088 63.26 45.6755 63.06L47.9555 56.7H50.1355L50.2155 56.42H48.0355L48.7555 54.46H47.3555ZM55.9381 60.12L55.6181 61.32H59.0981L59.4181 60.12H55.9381ZM65.2252 64.72L65.1452 65H71.2852L71.3652 64.72H69.0852L73.9852 51.04H76.0852L76.1652 50.76H69.9652L69.8852 51.04H72.1852L67.2652 64.72H65.2252ZM78.0586 54.46L77.3386 56.42H75.5386L75.4586 56.7H77.2586L75.2986 62.14C75.1919 62.42 75.0853 62.7333 74.9786 63.08C74.8853 63.4133 74.8386 63.7133 74.8386 63.98C74.8386 64.3267 74.9653 64.6267 75.2186 64.88C75.4719 65.12 75.8519 65.24 76.3586 65.24C76.7719 65.24 77.1253 65.16 77.4186 65C77.7253 64.84 77.9786 64.6533 78.1786 64.44C78.3786 64.2133 78.5386 63.9933 78.6586 63.78C78.7786 63.5533 78.8653 63.3867 78.9186 63.28L78.6786 63.18C78.6253 63.3 78.5386 63.46 78.4186 63.66C78.2986 63.86 78.1519 64.06 77.9786 64.26C77.8053 64.4467 77.6119 64.6133 77.3986 64.76C77.1853 64.9067 76.9586 64.98 76.7186 64.98C76.4919 64.98 76.3253 64.92 76.2186 64.8C76.1253 64.68 76.0786 64.52 76.0786 64.32C76.0786 64.1067 76.1119 63.8933 76.1786 63.68C76.2453 63.4667 76.3119 63.26 76.3786 63.06L78.6586 56.7H80.8386L80.9186 56.42H78.7386L79.4586 54.46H78.0586ZM87.5766 59.04L86.5166 61.98C86.4499 62.1667 86.2966 62.4267 86.0566 62.76C85.8166 63.0933 85.5299 63.4267 85.1966 63.76C84.8632 64.0933 84.4966 64.38 84.0966 64.62C83.6966 64.86 83.3032 64.98 82.9166 64.98C82.5299 64.98 82.2499 64.8467 82.0766 64.58C81.9166 64.3133 81.8366 63.9667 81.8366 63.54C81.8366 63.1667 81.8966 62.7333 82.0166 62.24C82.1366 61.7467 82.3032 61.24 82.5166 60.72C82.7432 60.1867 83.0099 59.6667 83.3166 59.16C83.6232 58.64 83.9566 58.18 84.3166 57.78C84.6899 57.38 85.0832 57.06 85.4966 56.82C85.9232 56.5667 86.3566 56.44 86.7966 56.44C87.0366 56.44 87.2299 56.4867 87.3766 56.58C87.5232 56.66 87.6366 56.76 87.7166 56.88C87.8099 57 87.8699 57.1333 87.8966 57.28C87.9366 57.4133 87.9566 57.54 87.9566 57.66C87.9566 57.7933 87.9299 57.9533 87.8766 58.14C87.8366 58.3133 87.7366 58.6133 87.5766 59.04ZM87.7366 62.48L89.9166 56.42H88.5166L88.1766 57.4H88.1366C88.1366 57.0267 87.9966 56.7267 87.7166 56.5C87.4366 56.2733 87.0966 56.16 86.6966 56.16C86.3499 56.16 85.9499 56.2467 85.4966 56.42C85.0566 56.5933 84.6032 56.8333 84.1366 57.14C83.6832 57.4467 83.2299 57.8067 82.7766 58.22C82.3366 58.6333 81.9432 59.0867 81.5966 59.58C81.2632 60.06 80.9899 60.5667 80.7766 61.1C80.5632 61.6333 80.4566 62.1667 80.4566 62.7C80.4566 63.14 80.5099 63.52 80.6166 63.84C80.7366 64.16 80.8966 64.4267 81.0966 64.64C81.2966 64.84 81.5232 64.9867 81.7766 65.08C82.0432 65.1867 82.3166 65.24 82.5966 65.24C83.0366 65.24 83.4366 65.16 83.7966 65C84.1566 64.8533 84.4832 64.6667 84.7766 64.44C85.0832 64.2 85.3566 63.9467 85.5966 63.68C85.8366 63.4 86.0499 63.1467 86.2366 62.92H86.2766C86.2099 63.1067 86.1566 63.32 86.1166 63.56C86.0766 63.7867 86.0566 63.9467 86.0566 64.04C86.0566 64.84 86.4966 65.24 87.3766 65.24C87.7499 65.24 88.0766 65.16 88.3566 65C88.6366 64.8533 88.8832 64.68 89.0966 64.48C89.3099 64.2667 89.4832 64.0467 89.6166 63.82C89.7499 63.5933 89.8499 63.4067 89.9166 63.26L89.6566 63.12C89.6166 63.2 89.5432 63.34 89.4366 63.54C89.3432 63.7267 89.2166 63.92 89.0566 64.12C88.9099 64.3067 88.7299 64.48 88.5166 64.64C88.3032 64.7867 88.0632 64.86 87.7966 64.86C87.4632 64.86 87.2966 64.6867 87.2966 64.34C87.2966 64.0867 87.3366 63.8 87.4166 63.48C87.5099 63.16 87.6166 62.8267 87.7366 62.48ZM97.7988 49.8H94.6188L94.5388 50.08H96.3188L91.8588 62.56C91.7788 62.7867 91.6988 63.04 91.6188 63.32C91.5388 63.5867 91.4988 63.8333 91.4988 64.06C91.4988 64.4867 91.6254 64.7933 91.8787 64.98C92.1454 65.1533 92.4988 65.24 92.9388 65.24C93.3388 65.24 93.6854 65.16 93.9788 65C94.2721 64.84 94.5188 64.6533 94.7188 64.44C94.9188 64.2133 95.0721 63.9933 95.1788 63.78C95.2988 63.5533 95.3854 63.3867 95.4388 63.28L95.1988 63.18C95.1454 63.3 95.0588 63.46 94.9388 63.66C94.8188 63.86 94.6721 64.06 94.4988 64.26C94.3254 64.4467 94.1321 64.6133 93.9188 64.76C93.7188 64.9067 93.5121 64.98 93.2988 64.98C93.1121 64.98 92.9721 64.9267 92.8788 64.82C92.7854 64.7 92.7388 64.56 92.7388 64.4C92.7388 64.2133 92.7721 64.02 92.8388 63.82C92.9054 63.6067 92.9721 63.4 93.0388 63.2L97.7988 49.8ZM100.725 51.7C100.725 51.9667 100.812 52.1933 100.985 52.38C101.172 52.5533 101.398 52.64 101.665 52.64C101.932 52.64 102.152 52.5533 102.325 52.38C102.512 52.1933 102.605 51.9667 102.605 51.7C102.605 51.4333 102.512 51.2133 102.325 51.04C102.152 50.8533 101.932 50.76 101.665 50.76C101.398 50.76 101.172 50.8533 100.985 51.04C100.812 51.2133 100.725 51.4333 100.725 51.7ZM99.4852 56.7L97.4252 62.56C97.3452 62.7867 97.2652 63.04 97.1852 63.32C97.1052 63.5867 97.0652 63.8333 97.0652 64.06C97.0652 64.4867 97.1918 64.7933 97.4452 64.98C97.7118 65.1533 98.0652 65.24 98.5052 65.24C98.9052 65.24 99.2518 65.16 99.5452 65C99.8385 64.84 100.085 64.6533 100.285 64.44C100.485 64.2133 100.638 63.9933 100.745 63.78C100.865 63.5533 100.952 63.3867 101.005 63.28L100.765 63.18C100.712 63.3 100.625 63.46 100.505 63.66C100.385 63.86 100.238 64.06 100.065 64.26C99.8918 64.4467 99.6985 64.6133 99.4852 64.76C99.2852 64.9067 99.0785 64.98 98.8652 64.98C98.6785 64.98 98.5385 64.9267 98.4452 64.82C98.3518 64.7 98.3052 64.56 98.3052 64.4C98.3052 64.2133 98.3385 64.02 98.4052 63.82C98.4718 63.6067 98.5385 63.4 98.6052 63.2L100.965 56.42H97.7852L97.7052 56.7H99.4852ZM109.232 63.04L108.952 62.88C108.832 63.08 108.678 63.3067 108.492 63.56C108.305 63.8 108.085 64.0267 107.832 64.24C107.578 64.4533 107.292 64.6333 106.972 64.78C106.665 64.9133 106.325 64.98 105.952 64.98C105.272 64.98 104.765 64.78 104.432 64.38C104.112 63.98 103.952 63.4933 103.952 62.92C103.952 62.5333 103.992 62.1067 104.072 61.64C104.165 61.1733 104.298 60.7 104.472 60.22C104.645 59.74 104.852 59.2733 105.092 58.82C105.332 58.3667 105.605 57.9667 105.912 57.62C106.232 57.26 106.578 56.9733 106.952 56.76C107.325 56.5467 107.725 56.44 108.152 56.44C108.418 56.44 108.625 56.48 108.772 56.56C108.932 56.64 109.012 56.7867 109.012 57C109.012 57.16 108.985 57.2933 108.932 57.4C108.878 57.4933 108.812 57.58 108.732 57.66C108.665 57.74 108.605 57.8333 108.552 57.94C108.498 58.0333 108.472 58.16 108.472 58.32C108.472 58.4533 108.518 58.5733 108.612 58.68C108.705 58.7733 108.872 58.82 109.112 58.82C109.352 58.82 109.578 58.7533 109.792 58.62C110.018 58.4867 110.132 58.2 110.132 57.76C110.132 57.4533 110.072 57.2 109.952 57C109.845 56.7867 109.705 56.62 109.532 56.5C109.358 56.38 109.158 56.2933 108.932 56.24C108.718 56.1867 108.498 56.16 108.272 56.16C107.538 56.16 106.825 56.3533 106.132 56.74C105.452 57.1133 104.845 57.6 104.312 58.2C103.778 58.7867 103.352 59.44 103.032 60.16C102.712 60.8667 102.552 61.56 102.552 62.24C102.552 62.6533 102.618 63.04 102.752 63.4C102.898 63.76 103.098 64.08 103.352 64.36C103.618 64.6267 103.945 64.84 104.332 65C104.718 65.16 105.158 65.24 105.652 65.24C106.118 65.24 106.538 65.1733 106.912 65.04C107.285 64.9067 107.612 64.7333 107.892 64.52C108.185 64.3067 108.438 64.0733 108.652 63.82C108.878 63.5533 109.072 63.2933 109.232 63.04ZM7.38 115.72V102.04C7.51333 102.013 7.68667 102 7.9 102C8.11333 101.987 8.35333 101.98 8.62 101.98C9.78 101.98 10.7133 102.147 11.42 102.48C12.14 102.813 12.6933 103.293 13.08 103.92C13.48 104.533 13.7467 105.28 13.88 106.16C14.0133 107.027 14.08 108 14.08 109.08C14.08 109.52 14.06 109.993 14.02 110.5C13.98 110.993 13.8933 111.493 13.76 112C13.64 112.493 13.4533 112.967 13.2 113.42C12.96 113.873 12.6267 114.28 12.2 114.64C11.7867 114.987 11.2733 115.267 10.66 115.48C10.0467 115.68 9.30667 115.78 8.44 115.78C8.12 115.78 7.76667 115.76 7.38 115.72ZM4.48 102.04V115.72H2.64V116H4.48C5.24 116 5.99333 116.007 6.74 116.02C7.5 116.033 8.26 116.04 9.02 116.04C9.54 116.04 10.1 116 10.7 115.92C11.3133 115.84 11.9267 115.7 12.54 115.5C13.1667 115.287 13.7667 115.007 14.34 114.66C14.9133 114.313 15.42 113.873 15.86 113.34C16.3133 112.807 16.6733 112.173 16.94 111.44C17.2067 110.707 17.34 109.853 17.34 108.88C17.34 107.893 17.2067 107.033 16.94 106.3C16.6733 105.567 16.3133 104.933 15.86 104.4C15.4067 103.867 14.8867 103.427 14.3 103.08C13.7133 102.733 13.0933 102.46 12.44 102.26C11.7867 102.047 11.1267 101.9 10.46 101.82C9.79333 101.74 9.16 101.7 8.56 101.7C7.88 101.7 7.2 101.713 6.52 101.74C5.84 101.753 5.16 101.76 4.48 101.76H2.64V102.04H4.48ZM20.1686 103.12C20.1686 103.507 20.3086 103.84 20.5886 104.12C20.8686 104.4 21.2019 104.54 21.5886 104.54C21.9753 104.54 22.3086 104.4 22.5886 104.12C22.8686 103.84 23.0086 103.507 23.0086 103.12C23.0086 102.733 22.8686 102.4 22.5886 102.12C22.3086 101.84 21.9753 101.7 21.5886 101.7C21.2019 101.7 20.8686 101.84 20.5886 102.12C20.3086 102.4 20.1686 102.733 20.1686 103.12ZM19.0286 107.42V107.7H20.3686V115.72H19.0286V116H24.1486V115.72H22.8086V107.42H19.0286ZM32.0972 111.72C32.0972 112.133 32.0772 112.593 32.0372 113.1C32.0105 113.593 31.9172 114.06 31.7572 114.5C31.5972 114.927 31.3572 115.287 31.0372 115.58C30.7305 115.86 30.2972 116 29.7372 116C29.3639 116 29.0639 115.9 28.8372 115.7C28.6239 115.5 28.4572 115.213 28.3372 114.84C28.2305 114.467 28.1572 114.02 28.1172 113.5C28.0905 112.967 28.0772 112.373 28.0772 111.72C28.0772 110.92 28.1039 110.247 28.1572 109.7C28.2239 109.14 28.3305 108.693 28.4772 108.36C28.6239 108.027 28.8105 107.787 29.0372 107.64C29.2772 107.493 29.5639 107.42 29.8972 107.42C30.3905 107.42 30.7839 107.56 31.0772 107.84C31.3705 108.12 31.5905 108.473 31.7372 108.9C31.8839 109.327 31.9772 109.793 32.0172 110.3C32.0705 110.807 32.0972 111.28 32.0972 111.72ZM34.5372 115.72V101.58H30.7372V101.86H32.0972V108.82H32.0572C31.8572 108.26 31.5705 107.84 31.1972 107.56C30.8239 107.28 30.3372 107.14 29.7372 107.14C28.9639 107.14 28.3039 107.293 27.7572 107.6C27.2105 107.893 26.7572 108.267 26.3972 108.72C26.0505 109.173 25.7905 109.667 25.6172 110.2C25.4572 110.733 25.3772 111.233 25.3772 111.7C25.3772 112.3 25.4839 112.873 25.6972 113.42C25.9105 113.967 26.2039 114.453 26.5772 114.88C26.9639 115.293 27.4239 115.627 27.9572 115.88C28.4905 116.133 29.0839 116.26 29.7372 116.26C30.3372 116.26 30.8239 116.113 31.1972 115.82C31.5839 115.513 31.8839 115.08 32.0972 114.52H32.1372V116H35.8572V115.72H34.5372ZM42.0327 116C41.5127 116 41.106 115.88 40.8127 115.64C40.5193 115.387 40.2993 115.06 40.1527 114.66C40.0193 114.26 39.9327 113.8 39.8927 113.28C39.866 112.76 39.8527 112.233 39.8527 111.7C39.8527 111.167 39.866 110.647 39.8927 110.14C39.9327 109.62 40.0193 109.16 40.1527 108.76C40.2993 108.36 40.5193 108.04 40.8127 107.8C41.106 107.547 41.5127 107.42 42.0327 107.42C42.5527 107.42 42.9593 107.547 43.2527 107.8C43.546 108.04 43.7593 108.36 43.8927 108.76C44.0393 109.16 44.126 109.62 44.1527 110.14C44.1927 110.647 44.2127 111.167 44.2127 111.7C44.2127 112.233 44.1927 112.76 44.1527 113.28C44.126 113.8 44.0393 114.26 43.8927 114.66C43.7593 115.06 43.546 115.387 43.2527 115.64C42.9593 115.88 42.5527 116 42.0327 116ZM42.0327 107.14C41.3393 107.14 40.6927 107.267 40.0927 107.52C39.506 107.76 38.9927 108.087 38.5527 108.5C38.1127 108.913 37.766 109.4 37.5127 109.96C37.2727 110.507 37.1527 111.087 37.1527 111.7C37.1527 112.327 37.2727 112.92 37.5127 113.48C37.766 114.027 38.1127 114.507 38.5527 114.92C38.9927 115.333 39.506 115.66 40.0927 115.9C40.6927 116.14 41.3393 116.26 42.0327 116.26C42.726 116.26 43.366 116.14 43.9527 115.9C44.5527 115.66 45.0727 115.333 45.5127 114.92C45.9527 114.507 46.2927 114.027 46.5327 113.48C46.786 112.92 46.9127 112.327 46.9127 111.7C46.9127 111.087 46.786 110.507 46.5327 109.96C46.2927 109.4 45.9527 108.913 45.5127 108.5C45.0727 108.087 44.5527 107.76 43.9527 107.52C43.366 107.267 42.726 107.14 42.0327 107.14ZM49.6059 104.84V107.42H48.2659V107.7H49.6059V113.86C49.6059 114.1 49.6193 114.36 49.6459 114.64C49.6726 114.92 49.7726 115.18 49.9459 115.42C50.1326 115.66 50.4126 115.86 50.7859 116.02C51.1726 116.18 51.7126 116.26 52.4059 116.26C52.6593 116.26 52.9259 116.233 53.2059 116.18C53.4859 116.14 53.7459 116.047 53.9859 115.9C54.2393 115.753 54.4593 115.547 54.6459 115.28C54.8459 115 54.9859 114.633 55.0659 114.18L54.7659 114.12C54.7126 114.32 54.6393 114.527 54.5459 114.74C54.4659 114.953 54.3593 115.147 54.2259 115.32C54.0926 115.48 53.9326 115.613 53.7459 115.72C53.5726 115.827 53.3593 115.88 53.1059 115.88C52.8793 115.88 52.6926 115.84 52.5459 115.76C52.4126 115.68 52.3059 115.573 52.2259 115.44C52.1593 115.293 52.1126 115.133 52.0859 114.96C52.0593 114.787 52.0459 114.6 52.0459 114.4V107.7H54.3859V107.42H52.0459V104.84C51.8459 104.92 51.6393 104.987 51.4259 105.04C51.2259 105.093 51.0259 105.12 50.8259 105.12C50.6259 105.12 50.4193 105.093 50.2059 105.04C50.0059 104.987 49.8059 104.92 49.6059 104.84ZM62.3747 110.72V112.68H66.1347V110.72H62.3747ZM78.9634 108.22V102.04C79.1101 102.027 79.2568 102.013 79.4034 102C79.5501 101.987 79.6968 101.98 79.8434 101.98C80.3501 101.98 80.7634 102.047 81.0834 102.18C81.4168 102.313 81.6768 102.52 81.8634 102.8C82.0501 103.067 82.1834 103.413 82.2634 103.84C82.3434 104.253 82.3834 104.753 82.3834 105.34C82.3834 105.7 82.3568 106.053 82.3034 106.4C82.2634 106.747 82.1568 107.06 81.9834 107.34C81.8101 107.607 81.5501 107.82 81.2034 107.98C80.8568 108.14 80.3834 108.22 79.7834 108.22H78.9634ZM78.9634 115.72V108.5H80.1234C80.7901 108.5 81.3034 108.64 81.6634 108.92C82.0368 109.187 82.3101 109.507 82.4834 109.88C82.6701 110.253 82.7834 110.633 82.8234 111.02C82.8634 111.393 82.8834 111.693 82.8834 111.92C82.8834 112.733 82.8168 113.393 82.6834 113.9C82.5634 114.393 82.3834 114.78 82.1434 115.06C81.9034 115.34 81.6101 115.533 81.2634 115.64C80.9301 115.733 80.5501 115.78 80.1234 115.78C79.7101 115.78 79.3234 115.76 78.9634 115.72ZM76.0634 102.04V115.72H74.2234V116H77.2434C77.8034 116 78.3568 116.007 78.9034 116.02C79.4634 116.033 80.0234 116.04 80.5834 116.04C81.0901 116.04 81.6634 115.987 82.3034 115.88C82.9434 115.76 83.5434 115.553 84.1034 115.26C84.6768 114.967 85.1568 114.567 85.5434 114.06C85.9434 113.553 86.1434 112.913 86.1434 112.14C86.1434 111.433 85.9901 110.847 85.6834 110.38C85.3768 109.913 84.9901 109.54 84.5234 109.26C84.0568 108.967 83.5434 108.753 82.9834 108.62C82.4234 108.487 81.8834 108.4 81.3634 108.36V108.28C81.6834 108.24 82.0701 108.153 82.5234 108.02C82.9901 107.887 83.4368 107.693 83.8634 107.44C84.2901 107.187 84.6501 106.867 84.9434 106.48C85.2501 106.08 85.4034 105.593 85.4034 105.02C85.4034 104.38 85.2501 103.847 84.9434 103.42C84.6368 102.993 84.2434 102.653 83.7634 102.4C83.2968 102.147 82.7768 101.967 82.2034 101.86C81.6301 101.753 81.0834 101.7 80.5634 101.7C80.0034 101.7 79.4501 101.713 78.9034 101.74C78.3568 101.753 77.8034 101.76 77.2434 101.76H74.2234V102.04H76.0634ZM92.7748 116C92.2548 116 91.8482 115.88 91.5548 115.64C91.2615 115.387 91.0415 115.06 90.8948 114.66C90.7615 114.26 90.6748 113.8 90.6348 113.28C90.6082 112.76 90.5948 112.233 90.5948 111.7C90.5948 111.167 90.6082 110.647 90.6348 110.14C90.6748 109.62 90.7615 109.16 90.8948 108.76C91.0415 108.36 91.2615 108.04 91.5548 107.8C91.8482 107.547 92.2548 107.42 92.7748 107.42C93.2948 107.42 93.7015 107.547 93.9948 107.8C94.2882 108.04 94.5015 108.36 94.6348 108.76C94.7815 109.16 94.8682 109.62 94.8948 110.14C94.9348 110.647 94.9548 111.167 94.9548 111.7C94.9548 112.233 94.9348 112.76 94.8948 113.28C94.8682 113.8 94.7815 114.26 94.6348 114.66C94.5015 115.06 94.2882 115.387 93.9948 115.64C93.7015 115.88 93.2948 116 92.7748 116ZM92.7748 107.14C92.0815 107.14 91.4348 107.267 90.8348 107.52C90.2482 107.76 89.7348 108.087 89.2948 108.5C88.8548 108.913 88.5082 109.4 88.2548 109.96C88.0148 110.507 87.8948 111.087 87.8948 111.7C87.8948 112.327 88.0148 112.92 88.2548 113.48C88.5082 114.027 88.8548 114.507 89.2948 114.92C89.7348 115.333 90.2482 115.66 90.8348 115.9C91.4348 116.14 92.0815 116.26 92.7748 116.26C93.4682 116.26 94.1082 116.14 94.6948 115.9C95.2948 115.66 95.8148 115.333 96.2548 114.92C96.6948 114.507 97.0348 114.027 97.2748 113.48C97.5282 112.92 97.6548 112.327 97.6548 111.7C97.6548 111.087 97.5282 110.507 97.2748 109.96C97.0348 109.4 96.6948 108.913 96.2548 108.5C95.8148 108.087 95.2948 107.76 94.6948 107.52C94.1082 107.267 93.4682 107.14 92.7748 107.14ZM99.0481 101.58V101.86H100.388V115.72H99.0481V116H104.168V115.72H102.828V101.58H99.0481ZM112.117 111.72C112.117 112.133 112.097 112.593 112.057 113.1C112.03 113.593 111.937 114.06 111.777 114.5C111.617 114.927 111.377 115.287 111.057 115.58C110.75 115.86 110.317 116 109.757 116C109.383 116 109.083 115.9 108.857 115.7C108.643 115.5 108.477 115.213 108.357 114.84C108.25 114.467 108.177 114.02 108.137 113.5C108.11 112.967 108.097 112.373 108.097 111.72C108.097 110.92 108.123 110.247 108.177 109.7C108.243 109.14 108.35 108.693 108.497 108.36C108.643 108.027 108.83 107.787 109.057 107.64C109.297 107.493 109.583 107.42 109.917 107.42C110.41 107.42 110.803 107.56 111.097 107.84C111.39 108.12 111.61 108.473 111.757 108.9C111.903 109.327 111.997 109.793 112.037 110.3C112.09 110.807 112.117 111.28 112.117 111.72ZM114.557 115.72V101.58H110.757V101.86H112.117V108.82H112.077C111.877 108.26 111.59 107.84 111.217 107.56C110.843 107.28 110.357 107.14 109.757 107.14C108.983 107.14 108.323 107.293 107.777 107.6C107.23 107.893 106.777 108.267 106.417 108.72C106.07 109.173 105.81 109.667 105.637 110.2C105.477 110.733 105.397 111.233 105.397 111.7C105.397 112.3 105.503 112.873 105.717 113.42C105.93 113.967 106.223 114.453 106.597 114.88C106.983 115.293 107.443 115.627 107.977 115.88C108.51 116.133 109.103 116.26 109.757 116.26C110.357 116.26 110.843 116.113 111.217 115.82C111.603 115.513 111.903 115.08 112.117 114.52H112.157V116H115.877V115.72H114.557Z" fill="white"/>
</svg>
