<svg width="420" height="154" viewBox="0 0 420 154" fill="none" xmlns="http://www.w3.org/2000/svg">
<circle cx="50" cy="50" r="49" fill="#FDF8EF" stroke="white" stroke-width="2"/>
<circle cx="210" cy="50" r="49" fill="#DE652A" stroke="white" stroke-width="2"/>
<circle cx="370" cy="50" r="49" fill="#084B83" stroke="white" stroke-width="2"/>
<path d="M5.61852 142.9L7.05852 138.94H10.4385L8.99852 142.9H5.61852ZM3.75852 148L5.47852 143.26H8.85852L7.13852 148H7.55852L9.27852 143.26H11.9385L12.0785 142.9H9.41852L10.8585 138.94H13.5185L13.6585 138.58H10.9985L12.7385 133.76H12.3185L10.5785 138.58H7.19852L8.93852 133.76H8.51852L6.77852 138.58H4.11852L3.97852 138.94H6.63852L5.19852 142.9H2.53852L2.41852 143.26H5.05852L3.33852 148H3.75852ZM16.1718 134.04V147.72H14.3318V148H20.9318V147.72H19.0718V140.76H20.4118C20.8785 140.76 21.2651 140.84 21.5718 141C21.8918 141.16 22.1585 141.38 22.3718 141.66C22.5851 141.927 22.7518 142.24 22.8718 142.6C23.0051 142.96 23.1185 143.333 23.2118 143.72H23.4718V137.5H23.2118C23.1185 137.953 22.9985 138.367 22.8518 138.74C22.7051 139.1 22.5185 139.413 22.2918 139.68C22.0651 139.933 21.7785 140.133 21.4318 140.28C21.0985 140.413 20.6851 140.48 20.1918 140.48H19.0718V134.04H22.0918C22.6251 134.04 23.0851 134.113 23.4718 134.26C23.8718 134.407 24.2185 134.62 24.5118 134.9C24.8051 135.167 25.0585 135.493 25.2718 135.88C25.4985 136.267 25.7051 136.7 25.8918 137.18H26.1518V133.76H14.3318V134.04H16.1718ZM32.6632 147.72V134.04C32.7965 134.013 32.9699 134 33.1832 134C33.3965 133.987 33.6365 133.98 33.9032 133.98C35.0632 133.98 35.9965 134.147 36.7032 134.48C37.4232 134.813 37.9765 135.293 38.3632 135.92C38.7632 136.533 39.0299 137.28 39.1632 138.16C39.2965 139.027 39.3632 140 39.3632 141.08C39.3632 141.52 39.3432 141.993 39.3032 142.5C39.2632 142.993 39.1765 143.493 39.0432 144C38.9232 144.493 38.7365 144.967 38.4832 145.42C38.2432 145.873 37.9099 146.28 37.4832 146.64C37.0699 146.987 36.5565 147.267 35.9432 147.48C35.3299 147.68 34.5899 147.78 33.7232 147.78C33.4032 147.78 33.0499 147.76 32.6632 147.72ZM29.7632 134.04V147.72H27.9232V148H29.7632C30.5232 148 31.2765 148.007 32.0232 148.02C32.7832 148.033 33.5432 148.04 34.3032 148.04C34.8232 148.04 35.3832 148 35.9832 147.92C36.5965 147.84 37.2099 147.7 37.8232 147.5C38.4499 147.287 39.0499 147.007 39.6232 146.66C40.1965 146.313 40.7032 145.873 41.1432 145.34C41.5965 144.807 41.9565 144.173 42.2232 143.44C42.4899 142.707 42.6232 141.853 42.6232 140.88C42.6232 139.893 42.4899 139.033 42.2232 138.3C41.9565 137.567 41.5965 136.933 41.1432 136.4C40.6899 135.867 40.1699 135.427 39.5832 135.08C38.9965 134.733 38.3765 134.46 37.7232 134.26C37.0699 134.047 36.4099 133.9 35.7432 133.82C35.0765 133.74 34.4432 133.7 33.8432 133.7C33.1632 133.7 32.4832 133.713 31.8032 133.74C31.1232 133.753 30.4432 133.76 29.7632 133.76H27.9232V134.04H29.7632ZM46.1718 134.04V147.72H44.3318V148H50.9318V147.72H49.0718V140.76H50.4118C50.8785 140.76 51.2651 140.84 51.5718 141C51.8918 141.16 52.1585 141.38 52.3718 141.66C52.5851 141.927 52.7518 142.24 52.8718 142.6C53.0051 142.96 53.1185 143.333 53.2118 143.72H53.4718V137.5H53.2118C53.1185 137.953 52.9985 138.367 52.8518 138.74C52.7051 139.1 52.5185 139.413 52.2918 139.68C52.0651 139.933 51.7785 140.133 51.4318 140.28C51.0985 140.413 50.6851 140.48 50.1918 140.48H49.0718V134.04H52.0918C52.6251 134.04 53.0851 134.113 53.4718 134.26C53.8718 134.407 54.2185 134.62 54.5118 134.9C54.8051 135.167 55.0585 135.493 55.2718 135.88C55.4985 136.267 55.7051 136.7 55.8918 137.18H56.1518V133.76H44.3318V134.04H46.1718ZM60.5432 136.14C60.5432 135.807 60.5965 135.493 60.7032 135.2C60.8232 134.907 60.9832 134.653 61.1832 134.44C61.3832 134.213 61.6232 134.04 61.9032 133.92C62.1965 133.787 62.5099 133.72 62.8432 133.72C63.3099 133.72 63.6699 133.833 63.9232 134.06C64.1899 134.273 64.3832 134.533 64.5032 134.84C64.6232 135.133 64.6965 135.433 64.7232 135.74C64.7499 136.047 64.7632 136.293 64.7632 136.48C64.7632 137.053 64.7365 137.52 64.6832 137.88C64.6299 138.227 64.5565 138.507 64.4632 138.72C64.3832 138.92 64.2899 139.073 64.1832 139.18C64.0899 139.287 63.9965 139.38 63.9032 139.46C63.3965 139.233 62.9365 139.02 62.5232 138.82C62.1099 138.607 61.7565 138.38 61.4632 138.14C61.1699 137.887 60.9432 137.6 60.7832 137.28C60.6232 136.96 60.5432 136.58 60.5432 136.14ZM61.5432 140.98L63.2432 141.88C63.5899 142.067 63.8965 142.253 64.1632 142.44C64.4299 142.627 64.6499 142.84 64.8232 143.08C65.0099 143.32 65.1499 143.593 65.2432 143.9C65.3365 144.207 65.3832 144.573 65.3832 145C65.3832 145.293 65.3365 145.62 65.2432 145.98C65.1632 146.327 65.0165 146.653 64.8032 146.96C64.6032 147.253 64.3232 147.5 63.9632 147.7C63.6032 147.9 63.1499 148 62.6032 148C62.2699 148 61.9565 147.947 61.6632 147.84C61.3699 147.72 61.1165 147.527 60.9032 147.26C60.7032 146.98 60.5432 146.62 60.4232 146.18C60.3032 145.727 60.2432 145.167 60.2432 144.5C60.2432 144.22 60.2499 143.913 60.2632 143.58C60.2899 143.247 60.3432 142.92 60.4232 142.6C60.5165 142.28 60.6499 141.98 60.8232 141.7C60.9965 141.407 61.2365 141.167 61.5432 140.98ZM58.0632 144.58C58.0632 145.113 58.1832 145.607 58.4232 146.06C58.6765 146.513 59.0099 146.907 59.4232 147.24C59.8365 147.56 60.3165 147.813 60.8632 148C61.4099 148.173 61.9899 148.26 62.6032 148.26C63.3365 148.26 64.0032 148.12 64.6032 147.84C65.2032 147.547 65.7099 147.18 66.1232 146.74C66.5499 146.287 66.8765 145.787 67.1032 145.24C67.3432 144.693 67.4632 144.16 67.4632 143.64C67.4632 142.707 67.1832 141.927 66.6232 141.3C66.0632 140.66 65.2432 140.093 64.1632 139.6C65.0832 139.173 65.7565 138.707 66.1832 138.2C66.6232 137.693 66.8432 137.113 66.8432 136.46C66.8432 136.033 66.7432 135.64 66.5432 135.28C66.3432 134.907 66.0699 134.587 65.7232 134.32C65.3899 134.04 64.9965 133.827 64.5432 133.68C64.0899 133.52 63.6032 133.44 63.0832 133.44C62.4565 133.44 61.8699 133.533 61.3232 133.72C60.7899 133.907 60.3232 134.167 59.9232 134.5C59.5232 134.833 59.2099 135.24 58.9832 135.72C58.7565 136.187 58.6432 136.7 58.6432 137.26C58.6432 137.78 58.7099 138.22 58.8432 138.58C58.9899 138.94 59.1765 139.26 59.4032 139.54C59.6432 139.807 59.9165 140.04 60.2232 140.24C60.5432 140.44 60.8832 140.64 61.2432 140.84C60.8032 141.053 60.3899 141.273 60.0032 141.5C59.6299 141.713 59.2965 141.967 59.0032 142.26C58.7099 142.54 58.4765 142.867 58.3032 143.24C58.1432 143.613 58.0632 144.06 58.0632 144.58ZM69.1365 133.76V134.04H70.9765V147.72H69.1365V148H81.9165V143.62H81.6565C81.5232 144.193 81.3298 144.733 81.0765 145.24C80.8232 145.733 80.5032 146.167 80.1165 146.54C79.7432 146.913 79.3098 147.207 78.8165 147.42C78.3232 147.62 77.7698 147.72 77.1565 147.72H73.8765V140.5H75.2165C75.6832 140.5 76.0698 140.58 76.3765 140.74C76.6965 140.9 76.9632 141.12 77.1765 141.4C77.3898 141.667 77.5565 141.98 77.6765 142.34C77.8098 142.7 77.9232 143.073 78.0165 143.46H78.2765V137.24H78.0165C77.9232 137.693 77.8032 138.107 77.6565 138.48C77.5098 138.84 77.3232 139.153 77.0965 139.42C76.8698 139.673 76.5832 139.873 76.2365 140.02C75.9032 140.153 75.4898 140.22 74.9965 140.22H73.8765V134.04H77.0565C77.7098 134.04 78.2632 134.167 78.7165 134.42C79.1698 134.66 79.5365 134.947 79.8165 135.28C80.1098 135.613 80.3365 135.96 80.4965 136.32C80.6565 136.667 80.7698 136.953 80.8365 137.18H81.0965V133.76H69.1365ZM85.4101 134.04V147.72H83.5701V148H90.1701V147.72H88.3101V140.76H89.6501C90.1167 140.76 90.5034 140.84 90.8101 141C91.1301 141.16 91.3967 141.38 91.6101 141.66C91.8234 141.927 91.9901 142.24 92.1101 142.6C92.2434 142.96 92.3567 143.333 92.4501 143.72H92.7101V137.5H92.4501C92.3567 137.953 92.2367 138.367 92.0901 138.74C91.9434 139.1 91.7567 139.413 91.5301 139.68C91.3034 139.933 91.0167 140.133 90.6701 140.28C90.3367 140.413 89.9234 140.48 89.4301 140.48H88.3101V134.04H91.3301C91.8634 134.04 92.3234 134.113 92.7101 134.26C93.1101 134.407 93.4567 134.62 93.7501 134.9C94.0434 135.167 94.2967 135.493 94.5101 135.88C94.7367 136.267 94.9434 136.7 95.1301 137.18H95.3901V133.76H83.5701V134.04H85.4101Z" fill="white"/>
<path d="M167.454 142.9L168.894 138.94H172.274L170.834 142.9H167.454ZM165.594 148L167.314 143.26H170.694L168.974 148H169.394L171.114 143.26H173.774L173.914 142.9H171.254L172.694 138.94H175.354L175.494 138.58H172.834L174.574 133.76H174.154L172.414 138.58H169.034L170.774 133.76H170.354L168.614 138.58H165.954L165.814 138.94H168.474L167.034 142.9H164.374L164.254 143.26H166.894L165.174 148H165.594ZM180.808 147.72V134.04C180.941 134.013 181.114 134 181.328 134C181.541 133.987 181.781 133.98 182.048 133.98C183.208 133.98 184.141 134.147 184.848 134.48C185.568 134.813 186.121 135.293 186.508 135.92C186.908 136.533 187.174 137.28 187.308 138.16C187.441 139.027 187.508 140 187.508 141.08C187.508 141.52 187.488 141.993 187.448 142.5C187.408 142.993 187.321 143.493 187.188 144C187.068 144.493 186.881 144.967 186.628 145.42C186.388 145.873 186.054 146.28 185.628 146.64C185.214 146.987 184.701 147.267 184.088 147.48C183.474 147.68 182.734 147.78 181.868 147.78C181.548 147.78 181.194 147.76 180.808 147.72ZM177.908 134.04V147.72H176.068V148H177.908C178.668 148 179.421 148.007 180.168 148.02C180.928 148.033 181.688 148.04 182.448 148.04C182.968 148.04 183.528 148 184.128 147.92C184.741 147.84 185.354 147.7 185.968 147.5C186.594 147.287 187.194 147.007 187.768 146.66C188.341 146.313 188.848 145.873 189.288 145.34C189.741 144.807 190.101 144.173 190.368 143.44C190.634 142.707 190.768 141.853 190.768 140.88C190.768 139.893 190.634 139.033 190.368 138.3C190.101 137.567 189.741 136.933 189.288 136.4C188.834 135.867 188.314 135.427 187.728 135.08C187.141 134.733 186.521 134.46 185.868 134.26C185.214 134.047 184.554 133.9 183.888 133.82C183.221 133.74 182.588 133.7 181.988 133.7C181.308 133.7 180.628 133.713 179.948 133.74C179.268 133.753 178.588 133.76 177.908 133.76H176.068V134.04H177.908ZM192.476 133.76V134.04H194.316V147.72H192.476V148H205.256V143.62H204.996C204.863 144.193 204.67 144.733 204.416 145.24C204.163 145.733 203.843 146.167 203.456 146.54C203.083 146.913 202.65 147.207 202.156 147.42C201.663 147.62 201.11 147.72 200.496 147.72H197.216V140.5H198.556C199.023 140.5 199.41 140.58 199.716 140.74C200.036 140.9 200.303 141.12 200.516 141.4C200.73 141.667 200.896 141.98 201.016 142.34C201.15 142.7 201.263 143.073 201.356 143.46H201.616V137.24H201.356C201.263 137.693 201.143 138.107 200.996 138.48C200.85 138.84 200.663 139.153 200.436 139.42C200.21 139.673 199.923 139.873 199.576 140.02C199.243 140.153 198.83 140.22 198.336 140.22H197.216V134.04H200.396C201.05 134.04 201.603 134.167 202.056 134.42C202.51 134.66 202.876 134.947 203.156 135.28C203.45 135.613 203.676 135.96 203.836 136.32C203.996 136.667 204.11 136.953 204.176 137.18H204.436V133.76H192.476ZM213.95 143.38C213.95 144.447 213.89 145.287 213.77 145.9C213.663 146.513 213.51 146.98 213.31 147.3C213.123 147.607 212.897 147.8 212.63 147.88C212.377 147.96 212.097 148 211.79 148C211.55 148 211.29 147.967 211.01 147.9C210.743 147.82 210.49 147.62 210.25 147.3C210.023 146.967 209.83 146.46 209.67 145.78C209.523 145.087 209.45 144.133 209.45 142.92C209.45 142.52 209.457 142.187 209.47 141.92C209.497 141.653 209.53 141.433 209.57 141.26C209.623 141.073 209.683 140.92 209.75 140.8C209.817 140.68 209.897 140.56 209.99 140.44C210.297 140.04 210.63 139.787 210.99 139.68C211.363 139.573 211.683 139.52 211.95 139.52C212.683 139.52 213.197 139.847 213.49 140.5C213.797 141.14 213.95 142.1 213.95 143.38ZM206.81 142C206.81 143 206.937 143.893 207.19 144.68C207.457 145.453 207.817 146.107 208.27 146.64C208.723 147.173 209.257 147.58 209.87 147.86C210.497 148.127 211.163 148.26 211.87 148.26C212.47 148.26 213.057 148.147 213.63 147.92C214.203 147.68 214.71 147.353 215.15 146.94C215.603 146.527 215.963 146.047 216.23 145.5C216.51 144.953 216.65 144.367 216.65 143.74C216.65 143.113 216.523 142.527 216.27 141.98C216.03 141.433 215.697 140.96 215.27 140.56C214.857 140.147 214.377 139.827 213.83 139.6C213.283 139.36 212.703 139.24 212.09 139.24C211.69 139.24 211.343 139.287 211.05 139.38C210.77 139.46 210.53 139.567 210.33 139.7C210.13 139.833 209.963 139.98 209.83 140.14C209.71 140.287 209.603 140.42 209.51 140.54L209.47 140.5C209.51 140.1 209.557 139.66 209.61 139.18C209.677 138.687 209.763 138.193 209.87 137.7C209.99 137.193 210.13 136.7 210.29 136.22C210.463 135.74 210.677 135.32 210.93 134.96C211.183 134.587 211.483 134.287 211.83 134.06C212.19 133.833 212.61 133.72 213.09 133.72C213.317 133.72 213.49 133.76 213.61 133.84C213.743 133.907 213.837 133.987 213.89 134.08C213.957 134.173 213.997 134.267 214.01 134.36C214.037 134.453 214.05 134.52 214.05 134.56C214.05 134.747 213.99 134.967 213.87 135.22C213.763 135.46 213.71 135.7 213.71 135.94C213.71 136.207 213.79 136.42 213.95 136.58C214.11 136.74 214.423 136.82 214.89 136.82C215.69 136.82 216.09 136.427 216.09 135.64C216.09 135.253 216.003 134.927 215.83 134.66C215.67 134.38 215.45 134.153 215.17 133.98C214.903 133.793 214.597 133.66 214.25 133.58C213.903 133.487 213.55 133.44 213.19 133.44C212.283 133.44 211.437 133.673 210.65 134.14C209.877 134.607 209.203 135.233 208.63 136.02C208.07 136.807 207.623 137.72 207.29 138.76C206.97 139.787 206.81 140.867 206.81 142ZM220.183 133.58L218.843 141.84H219.103C219.197 141.64 219.31 141.407 219.443 141.14C219.59 140.86 219.77 140.6 219.983 140.36C220.197 140.12 220.457 139.913 220.763 139.74C221.07 139.567 221.443 139.48 221.883 139.48C222.217 139.48 222.523 139.527 222.803 139.62C223.097 139.7 223.35 139.88 223.563 140.16C223.79 140.44 223.963 140.847 224.083 141.38C224.217 141.9 224.283 142.6 224.283 143.48C224.283 144.6 224.197 145.467 224.023 146.08C223.863 146.693 223.657 147.14 223.403 147.42C223.163 147.7 222.89 147.867 222.583 147.92C222.29 147.973 222.01 148 221.743 148C221.637 148 221.51 147.987 221.363 147.96C221.23 147.92 221.103 147.853 220.983 147.76C220.863 147.667 220.757 147.54 220.663 147.38C220.583 147.22 220.543 147.013 220.543 146.76C220.543 146.72 220.55 146.66 220.563 146.58C220.577 146.487 220.583 146.393 220.583 146.3C220.597 146.193 220.61 146.1 220.623 146.02C220.637 145.927 220.643 145.86 220.643 145.82C220.643 145.593 220.563 145.393 220.403 145.22C220.257 145.033 219.93 144.94 219.423 144.94C219.357 144.94 219.257 144.947 219.123 144.96C218.99 144.973 218.85 145.02 218.703 145.1C218.57 145.167 218.45 145.273 218.343 145.42C218.25 145.567 218.203 145.78 218.203 146.06C218.203 146.353 218.29 146.633 218.463 146.9C218.65 147.167 218.903 147.4 219.223 147.6C219.557 147.8 219.943 147.96 220.383 148.08C220.837 148.2 221.323 148.26 221.843 148.26C222.67 148.26 223.397 148.107 224.023 147.8C224.663 147.493 225.203 147.1 225.643 146.62C226.083 146.14 226.417 145.607 226.643 145.02C226.87 144.433 226.983 143.867 226.983 143.32C226.983 142.693 226.857 142.127 226.603 141.62C226.363 141.1 226.03 140.66 225.603 140.3C225.19 139.927 224.703 139.64 224.143 139.44C223.597 139.24 223.01 139.14 222.383 139.14C221.943 139.14 221.57 139.18 221.263 139.26C220.957 139.327 220.69 139.427 220.463 139.56C220.237 139.68 220.043 139.827 219.883 140C219.723 140.16 219.563 140.34 219.403 140.54L219.363 140.5L220.083 136.12C220.283 136.2 220.51 136.293 220.763 136.4C221.017 136.493 221.277 136.587 221.543 136.68C221.823 136.773 222.097 136.853 222.363 136.92C222.643 136.973 222.897 137 223.123 137C223.51 137 223.843 136.953 224.123 136.86C224.417 136.753 224.703 136.573 224.983 136.32C225.263 136.067 225.557 135.733 225.863 135.32C226.183 134.907 226.563 134.387 227.003 133.76L226.743 133.64C226.503 133.987 226.25 134.253 225.983 134.44C225.73 134.627 225.483 134.767 225.243 134.86C225.017 134.953 224.803 135.007 224.603 135.02C224.417 135.033 224.277 135.04 224.183 135.04C223.77 135.04 223.377 134.987 223.003 134.88C222.643 134.76 222.31 134.62 222.003 134.46C221.71 134.3 221.457 134.14 221.243 133.98C221.03 133.807 220.877 133.673 220.783 133.58H220.183ZM235.776 145.92H231.376L234.336 143L235.776 141.52C236.216 141.067 236.57 140.633 236.836 140.22C237.116 139.807 237.33 139.42 237.476 139.06C237.636 138.7 237.743 138.373 237.796 138.08C237.863 137.787 237.896 137.533 237.896 137.32C237.896 136.827 237.816 136.347 237.656 135.88C237.51 135.413 237.263 135 236.916 134.64C236.583 134.28 236.15 133.993 235.616 133.78C235.083 133.553 234.443 133.44 233.696 133.44C232.95 133.44 232.31 133.547 231.776 133.76C231.256 133.96 230.83 134.207 230.496 134.5C230.176 134.793 229.936 135.107 229.776 135.44C229.63 135.76 229.556 136.033 229.556 136.26C229.556 136.513 229.603 136.713 229.696 136.86C229.79 136.993 229.896 137.093 230.016 137.16C230.15 137.213 230.283 137.247 230.416 137.26C230.563 137.273 230.683 137.28 230.776 137.28C231.083 137.28 231.35 137.22 231.576 137.1C231.803 136.967 231.916 136.733 231.916 136.4C231.916 136.36 231.91 136.287 231.896 136.18C231.883 136.073 231.87 135.96 231.856 135.84C231.843 135.72 231.83 135.607 231.816 135.5C231.803 135.393 231.796 135.32 231.796 135.28C231.796 134.947 231.843 134.68 231.936 134.48C232.043 134.28 232.176 134.127 232.336 134.02C232.496 133.9 232.67 133.82 232.856 133.78C233.056 133.74 233.25 133.72 233.436 133.72C233.823 133.72 234.13 133.813 234.356 134C234.596 134.173 234.776 134.427 234.896 134.76C235.016 135.08 235.096 135.467 235.136 135.92C235.176 136.36 235.196 136.853 235.196 137.4C235.196 138.507 235.096 139.453 234.896 140.24C234.696 141.027 234.363 141.78 233.896 142.5C233.43 143.22 232.803 143.98 232.016 144.78C231.243 145.567 230.276 146.513 229.116 147.62L228.996 147.72V148H238.116V143.9H237.836C237.81 144.407 237.703 144.8 237.516 145.08C237.343 145.347 237.136 145.547 236.896 145.68C236.67 145.8 236.45 145.873 236.236 145.9C236.023 145.913 235.87 145.92 235.776 145.92ZM245.57 136.62L247.93 142.08H243.33L245.57 136.62ZM239.01 147.72V148H242.79V147.72H241.01L243.23 142.36H248.03L250.35 147.72H248.49V148H255.21V147.72H253.49L247.19 133.2H246.65L240.69 147.72H239.01Z" fill="white"/>
<path d="M333.454 142.9L334.894 138.94H338.274L336.834 142.9H333.454ZM331.594 148L333.314 143.26H336.694L334.974 148H335.394L337.114 143.26H339.774L339.914 142.9H337.254L338.694 138.94H341.354L341.494 138.58H338.834L340.574 133.76H340.154L338.414 138.58H335.034L336.774 133.76H336.354L334.614 138.58H331.954L331.814 138.94H334.474L333.034 142.9H330.374L330.254 143.26H332.894L331.174 148H331.594ZM344.808 140.86C344.808 139.593 344.821 138.513 344.848 137.62C344.888 136.713 344.981 135.973 345.128 135.4C345.274 134.827 345.488 134.407 345.768 134.14C346.061 133.86 346.468 133.72 346.988 133.72C347.508 133.72 347.908 133.847 348.188 134.1C348.481 134.34 348.701 134.747 348.848 135.32C348.994 135.88 349.081 136.613 349.108 137.52C349.148 138.427 349.168 139.54 349.168 140.86C349.168 142.113 349.148 143.193 349.108 144.1C349.081 145.007 348.994 145.747 348.848 146.32C348.701 146.893 348.481 147.32 348.188 147.6C347.908 147.867 347.508 148 346.988 148C346.468 148 346.061 147.867 345.768 147.6C345.488 147.32 345.274 146.893 345.128 146.32C344.981 145.747 344.888 145.007 344.848 144.1C344.821 143.193 344.808 142.113 344.808 140.86ZM342.108 140.86C342.108 141.113 342.114 141.473 342.128 141.94C342.141 142.407 342.194 142.913 342.288 143.46C342.381 144.007 342.521 144.567 342.708 145.14C342.908 145.7 343.188 146.213 343.548 146.68C343.908 147.147 344.368 147.527 344.928 147.82C345.488 148.113 346.174 148.26 346.988 148.26C347.721 148.26 348.348 148.127 348.868 147.86C349.401 147.58 349.848 147.22 350.208 146.78C350.568 146.327 350.854 145.827 351.068 145.28C351.294 144.733 351.461 144.187 351.568 143.64C351.688 143.08 351.768 142.56 351.808 142.08C351.848 141.587 351.868 141.18 351.868 140.86C351.868 140.607 351.861 140.253 351.848 139.8C351.834 139.333 351.781 138.827 351.688 138.28C351.594 137.72 351.448 137.153 351.248 136.58C351.061 136.007 350.788 135.493 350.428 135.04C350.068 134.573 349.608 134.193 349.048 133.9C348.488 133.593 347.801 133.44 346.988 133.44C346.254 133.44 345.621 133.58 345.088 133.86C344.568 134.14 344.128 134.5 343.768 134.94C343.408 135.38 343.114 135.88 342.888 136.44C342.674 136.987 342.508 137.54 342.388 138.1C342.281 138.647 342.208 139.167 342.168 139.66C342.128 140.14 342.108 140.54 342.108 140.86ZM355.801 136.14C355.801 135.807 355.854 135.493 355.961 135.2C356.081 134.907 356.241 134.653 356.441 134.44C356.641 134.213 356.881 134.04 357.161 133.92C357.454 133.787 357.768 133.72 358.101 133.72C358.568 133.72 358.928 133.833 359.181 134.06C359.448 134.273 359.641 134.533 359.761 134.84C359.881 135.133 359.954 135.433 359.981 135.74C360.008 136.047 360.021 136.293 360.021 136.48C360.021 137.053 359.994 137.52 359.941 137.88C359.888 138.227 359.814 138.507 359.721 138.72C359.641 138.92 359.548 139.073 359.441 139.18C359.348 139.287 359.254 139.38 359.161 139.46C358.654 139.233 358.194 139.02 357.781 138.82C357.368 138.607 357.014 138.38 356.721 138.14C356.428 137.887 356.201 137.6 356.041 137.28C355.881 136.96 355.801 136.58 355.801 136.14ZM356.801 140.98L358.501 141.88C358.848 142.067 359.154 142.253 359.421 142.44C359.688 142.627 359.908 142.84 360.081 143.08C360.268 143.32 360.408 143.593 360.501 143.9C360.594 144.207 360.641 144.573 360.641 145C360.641 145.293 360.594 145.62 360.501 145.98C360.421 146.327 360.274 146.653 360.061 146.96C359.861 147.253 359.581 147.5 359.221 147.7C358.861 147.9 358.408 148 357.861 148C357.528 148 357.214 147.947 356.921 147.84C356.628 147.72 356.374 147.527 356.161 147.26C355.961 146.98 355.801 146.62 355.681 146.18C355.561 145.727 355.501 145.167 355.501 144.5C355.501 144.22 355.508 143.913 355.521 143.58C355.548 143.247 355.601 142.92 355.681 142.6C355.774 142.28 355.908 141.98 356.081 141.7C356.254 141.407 356.494 141.167 356.801 140.98ZM353.321 144.58C353.321 145.113 353.441 145.607 353.681 146.06C353.934 146.513 354.268 146.907 354.681 147.24C355.094 147.56 355.574 147.813 356.121 148C356.668 148.173 357.248 148.26 357.861 148.26C358.594 148.26 359.261 148.12 359.861 147.84C360.461 147.547 360.968 147.18 361.381 146.74C361.808 146.287 362.134 145.787 362.361 145.24C362.601 144.693 362.721 144.16 362.721 143.64C362.721 142.707 362.441 141.927 361.881 141.3C361.321 140.66 360.501 140.093 359.421 139.6C360.341 139.173 361.014 138.707 361.441 138.2C361.881 137.693 362.101 137.113 362.101 136.46C362.101 136.033 362.001 135.64 361.801 135.28C361.601 134.907 361.328 134.587 360.981 134.32C360.648 134.04 360.254 133.827 359.801 133.68C359.348 133.52 358.861 133.44 358.341 133.44C357.714 133.44 357.128 133.533 356.581 133.72C356.048 133.907 355.581 134.167 355.181 134.5C354.781 134.833 354.468 135.24 354.241 135.72C354.014 136.187 353.901 136.7 353.901 137.26C353.901 137.78 353.968 138.22 354.101 138.58C354.248 138.94 354.434 139.26 354.661 139.54C354.901 139.807 355.174 140.04 355.481 140.24C355.801 140.44 356.141 140.64 356.501 140.84C356.061 141.053 355.648 141.273 355.261 141.5C354.888 141.713 354.554 141.967 354.261 142.26C353.968 142.54 353.734 142.867 353.561 143.24C353.401 143.613 353.321 144.06 353.321 144.58ZM369.934 139.42V144.54H364.654C364.934 143.9 365.274 143.24 365.674 142.56C366.088 141.88 366.521 141.213 366.974 140.56C367.441 139.893 367.914 139.26 368.394 138.66C368.874 138.047 369.334 137.487 369.774 136.98C370.228 136.46 370.641 136.013 371.014 135.64C371.388 135.253 371.694 134.96 371.934 134.76C372.054 134.653 372.154 134.553 372.234 134.46C372.314 134.353 372.354 134.227 372.354 134.08C372.354 133.933 372.314 133.82 372.234 133.74C372.168 133.66 372.074 133.6 371.954 133.56C371.848 133.507 371.728 133.473 371.594 133.46C371.461 133.447 371.334 133.44 371.214 133.44C371.014 133.44 370.828 133.453 370.654 133.48C370.481 133.507 370.294 133.587 370.094 133.72C369.894 133.853 369.674 134.067 369.434 134.36C369.194 134.653 368.914 135.067 368.594 135.6C368.181 136.293 367.748 137.087 367.294 137.98C366.854 138.86 366.428 139.74 366.014 140.62C365.614 141.5 365.254 142.32 364.934 143.08C364.628 143.827 364.408 144.407 364.274 144.82H369.934V147.72H368.174V148H374.154V147.72H372.374V144.82H374.154V144.54H372.374V139.42H369.934ZM380.208 140.22V134.04C380.354 134.027 380.501 134.013 380.648 134C380.794 133.987 380.941 133.98 381.088 133.98C381.594 133.98 382.008 134.047 382.328 134.18C382.661 134.313 382.921 134.52 383.108 134.8C383.294 135.067 383.428 135.413 383.508 135.84C383.588 136.253 383.628 136.753 383.628 137.34C383.628 137.7 383.601 138.053 383.548 138.4C383.508 138.747 383.401 139.06 383.228 139.34C383.054 139.607 382.794 139.82 382.448 139.98C382.101 140.14 381.628 140.22 381.028 140.22H380.208ZM380.208 147.72V140.5H381.368C382.034 140.5 382.548 140.64 382.908 140.92C383.281 141.187 383.554 141.507 383.728 141.88C383.914 142.253 384.028 142.633 384.068 143.02C384.108 143.393 384.128 143.693 384.128 143.92C384.128 144.733 384.061 145.393 383.928 145.9C383.808 146.393 383.628 146.78 383.388 147.06C383.148 147.34 382.854 147.533 382.508 147.64C382.174 147.733 381.794 147.78 381.368 147.78C380.954 147.78 380.568 147.76 380.208 147.72ZM377.308 134.04V147.72H375.468V148H378.488C379.048 148 379.601 148.007 380.148 148.02C380.708 148.033 381.268 148.04 381.828 148.04C382.334 148.04 382.908 147.987 383.548 147.88C384.188 147.76 384.788 147.553 385.348 147.26C385.921 146.967 386.401 146.567 386.788 146.06C387.188 145.553 387.388 144.913 387.388 144.14C387.388 143.433 387.234 142.847 386.928 142.38C386.621 141.913 386.234 141.54 385.768 141.26C385.301 140.967 384.788 140.753 384.228 140.62C383.668 140.487 383.128 140.4 382.608 140.36V140.28C382.928 140.24 383.314 140.153 383.768 140.02C384.234 139.887 384.681 139.693 385.108 139.44C385.534 139.187 385.894 138.867 386.188 138.48C386.494 138.08 386.648 137.593 386.648 137.02C386.648 136.38 386.494 135.847 386.188 135.42C385.881 134.993 385.488 134.653 385.008 134.4C384.541 134.147 384.021 133.967 383.448 133.86C382.874 133.753 382.328 133.7 381.808 133.7C381.248 133.7 380.694 133.713 380.148 133.74C379.601 133.753 379.048 133.76 378.488 133.76H375.468V134.04H377.308ZM391.719 136.14C391.719 135.807 391.772 135.493 391.879 135.2C391.999 134.907 392.159 134.653 392.359 134.44C392.559 134.213 392.799 134.04 393.079 133.92C393.372 133.787 393.686 133.72 394.019 133.72C394.486 133.72 394.846 133.833 395.099 134.06C395.366 134.273 395.559 134.533 395.679 134.84C395.799 135.133 395.872 135.433 395.899 135.74C395.926 136.047 395.939 136.293 395.939 136.48C395.939 137.053 395.912 137.52 395.859 137.88C395.806 138.227 395.732 138.507 395.639 138.72C395.559 138.92 395.466 139.073 395.359 139.18C395.266 139.287 395.172 139.38 395.079 139.46C394.572 139.233 394.112 139.02 393.699 138.82C393.286 138.607 392.932 138.38 392.639 138.14C392.346 137.887 392.119 137.6 391.959 137.28C391.799 136.96 391.719 136.58 391.719 136.14ZM392.719 140.98L394.419 141.88C394.766 142.067 395.072 142.253 395.339 142.44C395.606 142.627 395.826 142.84 395.999 143.08C396.186 143.32 396.326 143.593 396.419 143.9C396.512 144.207 396.559 144.573 396.559 145C396.559 145.293 396.512 145.62 396.419 145.98C396.339 146.327 396.192 146.653 395.979 146.96C395.779 147.253 395.499 147.5 395.139 147.7C394.779 147.9 394.326 148 393.779 148C393.446 148 393.132 147.947 392.839 147.84C392.546 147.72 392.292 147.527 392.079 147.26C391.879 146.98 391.719 146.62 391.599 146.18C391.479 145.727 391.419 145.167 391.419 144.5C391.419 144.22 391.426 143.913 391.439 143.58C391.466 143.247 391.519 142.92 391.599 142.6C391.692 142.28 391.826 141.98 391.999 141.7C392.172 141.407 392.412 141.167 392.719 140.98ZM389.239 144.58C389.239 145.113 389.359 145.607 389.599 146.06C389.852 146.513 390.186 146.907 390.599 147.24C391.012 147.56 391.492 147.813 392.039 148C392.586 148.173 393.166 148.26 393.779 148.26C394.512 148.26 395.179 148.12 395.779 147.84C396.379 147.547 396.886 147.18 397.299 146.74C397.726 146.287 398.052 145.787 398.279 145.24C398.519 144.693 398.639 144.16 398.639 143.64C398.639 142.707 398.359 141.927 397.799 141.3C397.239 140.66 396.419 140.093 395.339 139.6C396.259 139.173 396.932 138.707 397.359 138.2C397.799 137.693 398.019 137.113 398.019 136.46C398.019 136.033 397.919 135.64 397.719 135.28C397.519 134.907 397.246 134.587 396.899 134.32C396.566 134.04 396.172 133.827 395.719 133.68C395.266 133.52 394.779 133.44 394.259 133.44C393.632 133.44 393.046 133.533 392.499 133.72C391.966 133.907 391.499 134.167 391.099 134.5C390.699 134.833 390.386 135.24 390.159 135.72C389.932 136.187 389.819 136.7 389.819 137.26C389.819 137.78 389.886 138.22 390.019 138.58C390.166 138.94 390.352 139.26 390.579 139.54C390.819 139.807 391.092 140.04 391.399 140.24C391.719 140.44 392.059 140.64 392.419 140.84C391.979 141.053 391.566 141.273 391.179 141.5C390.806 141.713 390.472 141.967 390.179 142.26C389.886 142.54 389.652 142.867 389.479 143.24C389.319 143.613 389.239 144.06 389.239 144.58ZM400.292 145.06L399.972 145.16C400.106 145.747 400.299 146.24 400.552 146.64C400.819 147.027 401.132 147.34 401.492 147.58C401.852 147.82 402.252 147.993 402.692 148.1C403.146 148.207 403.619 148.26 404.112 148.26C405.059 148.26 405.872 148.12 406.552 147.84C407.232 147.56 407.792 147.207 408.232 146.78C408.672 146.353 408.999 145.88 409.212 145.36C409.426 144.827 409.532 144.32 409.532 143.84C409.532 143.187 409.399 142.633 409.132 142.18C408.866 141.713 408.512 141.327 408.072 141.02C407.632 140.7 407.126 140.447 406.552 140.26C405.979 140.073 405.386 139.927 404.772 139.82V139.78C405.359 139.633 405.912 139.473 406.432 139.3C406.966 139.127 407.426 138.913 407.812 138.66C408.212 138.393 408.526 138.08 408.752 137.72C408.992 137.347 409.112 136.9 409.112 136.38C409.112 136.127 409.052 135.833 408.932 135.5C408.826 135.167 408.619 134.847 408.312 134.54C408.006 134.233 407.579 133.973 407.032 133.76C406.486 133.547 405.779 133.44 404.912 133.44C403.712 133.44 402.759 133.673 402.052 134.14C401.346 134.593 400.992 135.22 400.992 136.02C400.992 136.393 401.112 136.647 401.352 136.78C401.592 136.913 401.839 136.98 402.092 136.98C402.212 136.98 402.346 136.98 402.492 136.98C402.639 136.967 402.772 136.933 402.892 136.88C403.026 136.813 403.132 136.72 403.212 136.6C403.306 136.467 403.352 136.28 403.352 136.04C403.352 136 403.346 135.927 403.332 135.82C403.319 135.7 403.299 135.573 403.272 135.44C403.259 135.307 403.239 135.187 403.212 135.08C403.199 134.96 403.192 134.873 403.192 134.82C403.192 134.42 403.332 134.14 403.612 133.98C403.892 133.807 404.219 133.72 404.592 133.72C405.072 133.72 405.439 133.82 405.692 134.02C405.959 134.207 406.152 134.44 406.272 134.72C406.392 134.987 406.459 135.26 406.472 135.54C406.499 135.82 406.512 136.053 406.512 136.24C406.512 136.987 406.426 137.58 406.252 138.02C406.079 138.447 405.872 138.78 405.632 139.02C405.392 139.247 405.146 139.4 404.892 139.48C404.639 139.56 404.432 139.62 404.272 139.66C403.792 139.753 403.346 139.86 402.932 139.98C402.532 140.087 402.112 140.28 401.672 140.56L401.832 140.84C402.219 140.6 402.606 140.407 402.992 140.26C403.379 140.113 403.792 140.04 404.232 140.04C404.886 140.04 405.386 140.16 405.732 140.4C406.092 140.627 406.352 140.92 406.512 141.28C406.672 141.64 406.766 142.033 406.792 142.46C406.819 142.873 406.832 143.267 406.832 143.64C406.832 144.213 406.799 144.767 406.732 145.3C406.666 145.82 406.526 146.28 406.312 146.68C406.099 147.08 405.792 147.4 405.392 147.64C405.006 147.88 404.486 148 403.832 148C403.219 148 402.699 147.893 402.272 147.68C401.846 147.467 401.492 147.213 401.212 146.92C400.932 146.613 400.719 146.293 400.572 145.96C400.426 145.613 400.332 145.313 400.292 145.06Z" fill="white"/>
</svg>
