<svg width="86" height="87" viewBox="0 0 86 87" fill="none" xmlns="http://www.w3.org/2000/svg">
<path d="M85.75 43.5C85.75 67.389 66.6075 86.75 43 86.75C19.3925 86.75 0.25 67.389 0.25 43.5C0.25 19.611 19.3925 0.25 43 0.25C66.6075 0.25 85.75 19.611 85.75 43.5Z" stroke="white" stroke-width="0.5"/>
<path d="M21.8929 71.2128L23.5711 72.4499L24.7187 71.6823L25.2635 72.0839L20.7808 74.962L20.3186 74.6213L21.7392 69.4859L22.2812 69.8854L21.8929 71.2128ZM23.0911 72.767L21.7293 71.7631L21.0304 74.1396L23.0911 72.767Z" fill="white"/>
<path d="M17.5023 66.2764L13.4538 67.8519L12.9889 67.305L17.976 65.488L18.3523 65.9307L15.7539 70.5576L15.2912 70.0133L17.5023 66.2764Z" fill="white"/>
<path d="M12.4376 59.1195L13.3885 60.975L14.7579 60.7994L15.0666 61.4017L9.771 61.98L9.50912 61.469L13.0698 57.5051L13.3769 58.1043L12.4376 59.1195ZM12.8175 61.0449L12.0459 59.5392L10.361 61.3551L12.8175 61.0449Z" fill="white"/>
<path d="M11.7683 53.3948L11.9479 54.026L7.16134 55.3879L6.98174 54.7567L11.7683 53.3948Z" fill="white"/>
<path d="M10.3088 48.409L10.0912 46.0607L10.6255 46.0111L10.904 49.0163L5.94868 49.4755L5.88781 48.8187L10.3088 48.409Z" fill="white"/>
<path d="M9.82099 39.459L9.55682 41.5271L10.7858 42.1562L10.7001 42.8275L6.00443 40.3119L6.07719 39.7423L11.2549 38.4844L11.1695 39.1523L9.82099 39.459ZM9.04625 41.2621L9.26062 39.5838L6.84434 40.1297L9.04625 41.2621Z" fill="white"/>
<path d="M12.2355 35.0694L7.57454 33.3253L8.1447 31.8016C8.33395 31.2958 8.58066 30.955 8.88484 30.7793C9.18981 30.6015 9.54717 30.5892 9.95692 30.7425C10.1746 30.824 10.3446 30.9581 10.4669 31.145C10.587 31.3311 10.653 31.548 10.665 31.7957C10.8296 31.5703 11.0383 31.4221 11.2911 31.3512C11.5425 31.2774 11.8049 31.2917 12.078 31.3939C12.4963 31.5504 12.7743 31.8089 12.9119 32.1694C13.0495 32.5298 13.0257 32.9576 12.8404 33.4527L12.2355 35.0694ZM10.2855 33.639L11.9629 34.2667L12.3426 33.2519C12.4496 32.9659 12.4602 32.7132 12.3745 32.4938C12.2873 32.2714 12.1136 32.1115 11.8532 32.0141C11.292 31.8041 10.8971 32.0043 10.6688 32.6146L10.2855 33.639ZM9.79247 33.4546L10.1398 32.5262C10.2405 32.2573 10.2535 32.0177 10.1789 31.8073C10.1052 31.5948 9.95303 31.4454 9.72255 31.3592C9.46645 31.2634 9.25283 31.2686 9.08169 31.3748C8.90841 31.4803 8.76468 31.6856 8.65049 31.9908L8.31031 32.9L9.79247 33.4546Z" fill="white"/>
<path d="M15.2695 27.4664L16.557 25.4905L17.0066 25.7834L15.3589 28.3121L11.1894 25.5952L11.5495 25.0425L15.2695 27.4664Z" fill="white"/>
<path d="M19.7719 19.3781L18.2469 20.9031L19.494 22.1502L21.2655 20.3786L21.645 20.7581L19.4094 22.9937L15.8904 19.4747L18.1019 17.2633L18.4837 17.6452L16.7363 19.3926L17.8674 20.5237L19.3925 18.9986L19.7719 19.3781Z" fill="white"/>
<path d="M30.5901 12.8888L28.6797 13.7324L29.5674 15.7429L28.9671 16.0079L26.9569 11.4554L29.7773 10.2101L29.9954 10.7041L27.7754 11.6844L28.4629 13.2415L30.3734 12.3979L30.5901 12.8888Z" fill="white"/>
<path d="M38.5434 10.7239C38.6385 11.2022 38.6412 11.6361 38.5514 12.0257C38.4612 12.413 38.2873 12.7299 38.0296 12.9763C37.7719 13.2227 37.4464 13.385 37.0531 13.4633C36.6687 13.5397 36.3092 13.5137 35.9746 13.3851C35.6396 13.2542 35.3547 13.0309 35.12 12.7152C34.8871 12.3968 34.7226 12.0078 34.6265 11.5483L34.5565 11.1963C34.4632 10.727 34.4623 10.2962 34.5539 9.90395C34.6454 9.51169 34.8209 9.19101 35.0804 8.94193C35.3416 8.69016 35.6645 8.52605 36.0488 8.44958C36.4399 8.37179 36.803 8.39831 37.138 8.52915C37.4748 8.65731 37.7595 8.88529 37.992 9.2131C38.224 9.53867 38.3874 9.93947 38.4821 10.4155L38.5434 10.7239ZM37.8404 10.5362C37.7253 9.95732 37.5208 9.53682 37.2271 9.27464C36.9329 9.01023 36.5768 8.91958 36.1589 9.00271C35.7521 9.08362 35.4623 9.30273 35.2895 9.66006C35.1184 10.0147 35.0842 10.4676 35.1868 11.0187L35.2582 11.3774C35.3697 11.9383 35.5749 12.3564 35.8735 12.6315C36.174 12.904 36.531 12.9991 36.9444 12.9169C37.3601 12.8342 37.6519 12.6193 37.8199 12.2723C37.9874 11.923 38.0182 11.465 37.9125 10.8982L37.8404 10.5362Z" fill="white"/>
<path d="M44.5084 10.8895L43.3401 10.849L43.2704 12.861L42.6111 12.8381L42.7835 7.86455L44.43 7.92163C44.9902 7.94105 45.4162 8.08349 45.708 8.34897C46.002 8.61452 46.1406 8.99097 46.1237 9.47831C46.1129 9.78802 46.0193 10.055 45.8428 10.2791C45.6686 10.5034 45.4304 10.6672 45.1281 10.7708L46.2232 12.9223L46.2218 12.9633L45.5181 12.9389L44.5084 10.8895ZM43.3587 10.3127L44.3664 10.3476C44.6921 10.3589 44.9535 10.2836 45.1506 10.1217C45.35 9.95993 45.4546 9.73784 45.4644 9.45545C45.4751 9.14802 45.391 8.90913 45.2122 8.73877C45.0357 8.56849 44.7744 8.47621 44.4284 8.46193L43.4241 8.42712L43.3587 10.3127Z" fill="white"/>
<path d="M58.3764 14.3103L56.466 13.4668L55.5783 15.4773L54.9779 15.2122L56.9881 10.6597L59.8084 11.905L59.5903 12.399L57.3703 11.4188L56.6827 12.9759L58.5932 13.8195L58.3764 14.3103Z" fill="white"/>
<path d="M63.5357 17.794L62.5948 17.1003L61.4002 18.7208L60.8692 18.3294L63.8222 14.3236L65.1483 15.3012C65.5995 15.6338 65.8704 15.992 65.9611 16.3759C66.0536 16.7612 65.9552 17.1501 65.6658 17.5426C65.4819 17.792 65.2538 17.9593 64.9816 18.0445C64.7111 18.1311 64.4219 18.1316 64.1141 18.0462L63.8016 20.4401L63.7772 20.4731L63.2105 20.0553L63.5357 17.794ZM62.9132 16.6684L63.7248 17.2667C63.9871 17.46 64.2453 17.5456 64.4994 17.5235C64.7554 17.5027 64.9672 17.3786 65.1348 17.1512C65.3174 16.9035 65.383 16.659 65.3318 16.4174C65.2824 16.1771 65.119 15.9534 64.8416 15.746L64.0327 15.1497L62.9132 16.6684Z" fill="white"/>
<path d="M70.0979 23.7974L68.6821 22.1704L67.3516 23.3281L68.9963 25.2181L68.5915 25.5704L66.516 23.1853L70.2702 19.9185L72.3232 22.2778L71.9158 22.6323L70.2936 20.7681L69.0869 21.8181L70.5027 23.4451L70.0979 23.7974Z" fill="white"/>
<path d="M73.9016 29.8747L72.8521 27.9905L71.3114 28.8487L72.5305 31.0374L72.0617 31.2986L70.5232 28.5365L74.8709 26.1149L76.3927 28.8471L75.9209 29.1099L74.7184 26.951L73.321 27.7294L74.3704 29.6135L73.9016 29.8747Z" fill="white"/>
<path d="M74.047 35.0708L74.7446 37.3237L74.232 37.4824L73.3393 34.5994L78.0931 33.1274L78.2883 33.7575L74.047 35.0708Z" fill="white"/>
<path d="M76.3718 43.7273L76.2034 41.6492L74.871 41.2874L74.8164 40.6128L79.9302 42.1051L79.9765 42.6774L75.17 44.9769L75.1156 44.3058L76.3718 43.7273ZM76.7577 41.8032L76.8944 43.4895L79.1459 42.4567L76.7577 41.8032Z" fill="white"/>
<path d="M74.343 52.3026L74.4417 51.6504L78.6083 49.7469L74.8165 49.1732L74.9152 48.5209L79.8358 49.2654L79.7371 49.9176L75.5526 51.8253L79.3613 52.4016L79.2636 53.0471L74.343 52.3026Z" fill="white"/>
<path d="M73.3769 59.7504C72.9112 59.4975 72.6061 59.1653 72.4617 58.7539C72.3185 58.3455 72.3478 57.8896 72.5495 57.3862C72.7682 56.8405 73.1393 56.4811 73.6628 56.3079C74.1855 56.1369 74.7747 56.1828 75.4304 56.4455L75.8746 56.6235C76.3039 56.7956 76.651 57.0231 76.9157 57.3059C77.1795 57.5908 77.3418 57.9087 77.4025 58.2595C77.4653 58.6112 77.4226 58.9721 77.2742 59.3422C77.0776 59.833 76.7824 60.1713 76.3888 60.3572C75.9973 60.544 75.5496 60.5646 75.0457 60.4192L75.2911 59.8068C75.6803 59.9014 75.993 59.893 76.2292 59.7814C76.4645 59.672 76.6458 59.4586 76.7729 59.1414C76.9289 58.7522 76.9076 58.3889 76.7089 58.0515C76.5094 57.7163 76.1442 57.4423 75.6133 57.2295L75.166 57.0502C74.6647 56.8494 74.224 56.7943 73.844 56.885C73.4639 56.9757 73.1985 57.2093 73.0476 57.5858C72.912 57.9242 72.8843 58.2139 72.9645 58.4547C73.046 58.6985 73.2653 58.9262 73.6223 59.138L73.3769 59.7504Z" fill="white"/>
<path d="M70.3016 66.069L71.5205 64.2897L70.0654 63.293L68.6496 65.3599L68.2068 65.0567L69.9936 62.4483L74.0992 65.2608L72.3318 67.8409L71.8863 67.5357L73.2828 65.497L71.9632 64.593L70.7443 66.3723L70.3016 66.069Z" fill="white"/>
<path d="M63.4647 73.1732C63.5786 73.3354 63.621 73.5048 63.5917 73.6812C63.5606 73.859 63.4593 74.0081 63.2877 74.1285C63.118 74.2477 62.944 74.2933 62.7657 74.2654C62.5887 74.2393 62.4393 74.1395 62.3175 73.9661L62.2448 73.8626C62.1309 73.7004 62.0892 73.5319 62.1198 73.3574C62.1503 73.1828 62.2533 73.0339 62.4286 72.9109C62.602 72.7891 62.7769 72.7428 62.9534 72.7721C63.1293 72.8045 63.2748 72.9028 63.3901 73.0669L63.4647 73.1732Z" fill="white"/>
</svg>
