<svg width="580" height="154" viewBox="0 0 580 154" fill="none" xmlns="http://www.w3.org/2000/svg">
<circle cx="50" cy="50" r="49" fill="#F5CD79" stroke="white" stroke-width="2"/>
<circle cx="210" cy="50" r="49" fill="#574B90" stroke="white" stroke-width="2"/>
<circle cx="370" cy="50" r="49" fill="#E15F41" stroke="white" stroke-width="2"/>
<circle cx="530" cy="50" r="49" fill="#C44569" stroke="white" stroke-width="2"/>
<path d="M8.19664 142.9L9.63664 138.94H13.0166L11.5766 142.9H8.19664ZM6.33664 148L8.05664 143.26H11.4366L9.71664 148H10.1366L11.8566 143.26H14.5166L14.6566 142.9H11.9966L13.4366 138.94H16.0966L16.2366 138.58H13.5766L15.3166 133.76H14.8966L13.1566 138.58H9.77664L11.5166 133.76H11.0966L9.35664 138.58H6.69664L6.55664 138.94H9.21664L7.77664 142.9H5.11664L4.99664 143.26H7.63664L5.91664 148H6.33664ZM18.7499 134.04V147.72H16.9099V148H23.5099V147.72H21.6499V140.76H22.9899C23.4566 140.76 23.8433 140.84 24.1499 141C24.4699 141.16 24.7366 141.38 24.9499 141.66C25.1633 141.927 25.3299 142.24 25.4499 142.6C25.5833 142.96 25.6966 143.333 25.7899 143.72H26.0499V137.5H25.7899C25.6966 137.953 25.5766 138.367 25.4299 138.74C25.2833 139.1 25.0966 139.413 24.8699 139.68C24.6433 139.933 24.3566 140.133 24.0099 140.28C23.6766 140.413 23.2633 140.48 22.7699 140.48H21.6499V134.04H24.6699C25.2033 134.04 25.6633 134.113 26.0499 134.26C26.4499 134.407 26.7966 134.62 27.0899 134.9C27.3833 135.167 27.6366 135.493 27.8499 135.88C28.0766 136.267 28.2833 136.7 28.4699 137.18H28.7299V133.76H16.9099V134.04H18.7499ZM32.7613 133.58L31.4213 141.84H31.6813C31.7747 141.64 31.888 141.407 32.0213 141.14C32.168 140.86 32.348 140.6 32.5613 140.36C32.7747 140.12 33.0347 139.913 33.3413 139.74C33.648 139.567 34.0213 139.48 34.4613 139.48C34.7947 139.48 35.1013 139.527 35.3813 139.62C35.6747 139.7 35.928 139.88 36.1413 140.16C36.368 140.44 36.5413 140.847 36.6613 141.38C36.7947 141.9 36.8613 142.6 36.8613 143.48C36.8613 144.6 36.7747 145.467 36.6013 146.08C36.4413 146.693 36.2347 147.14 35.9813 147.42C35.7413 147.7 35.468 147.867 35.1613 147.92C34.868 147.973 34.588 148 34.3213 148C34.2147 148 34.088 147.987 33.9413 147.96C33.808 147.92 33.6813 147.853 33.5613 147.76C33.4413 147.667 33.3347 147.54 33.2413 147.38C33.1613 147.22 33.1213 147.013 33.1213 146.76C33.1213 146.72 33.128 146.66 33.1413 146.58C33.1547 146.487 33.1613 146.393 33.1613 146.3C33.1747 146.193 33.188 146.1 33.2013 146.02C33.2147 145.927 33.2213 145.86 33.2213 145.82C33.2213 145.593 33.1413 145.393 32.9813 145.22C32.8347 145.033 32.508 144.94 32.0013 144.94C31.9347 144.94 31.8347 144.947 31.7013 144.96C31.568 144.973 31.428 145.02 31.2813 145.1C31.148 145.167 31.028 145.273 30.9213 145.42C30.828 145.567 30.7813 145.78 30.7813 146.06C30.7813 146.353 30.868 146.633 31.0413 146.9C31.228 147.167 31.4813 147.4 31.8013 147.6C32.1347 147.8 32.5213 147.96 32.9613 148.08C33.4147 148.2 33.9013 148.26 34.4213 148.26C35.248 148.26 35.9747 148.107 36.6013 147.8C37.2413 147.493 37.7813 147.1 38.2213 146.62C38.6613 146.14 38.9947 145.607 39.2213 145.02C39.448 144.433 39.5613 143.867 39.5613 143.32C39.5613 142.693 39.4347 142.127 39.1813 141.62C38.9413 141.1 38.608 140.66 38.1813 140.3C37.768 139.927 37.2813 139.64 36.7213 139.44C36.1747 139.24 35.588 139.14 34.9613 139.14C34.5213 139.14 34.148 139.18 33.8413 139.26C33.5347 139.327 33.268 139.427 33.0413 139.56C32.8147 139.68 32.6213 139.827 32.4613 140C32.3013 140.16 32.1413 140.34 31.9813 140.54L31.9413 140.5L32.6613 136.12C32.8613 136.2 33.088 136.293 33.3413 136.4C33.5947 136.493 33.8547 136.587 34.1213 136.68C34.4013 136.773 34.6747 136.853 34.9413 136.92C35.2213 136.973 35.4747 137 35.7013 137C36.088 137 36.4213 136.953 36.7013 136.86C36.9947 136.753 37.2813 136.573 37.5613 136.32C37.8413 136.067 38.1347 135.733 38.4413 135.32C38.7613 134.907 39.1413 134.387 39.5813 133.76L39.3213 133.64C39.0813 133.987 38.828 134.253 38.5613 134.44C38.308 134.627 38.0613 134.767 37.8213 134.86C37.5947 134.953 37.3813 135.007 37.1813 135.02C36.9947 135.033 36.8547 135.04 36.7613 135.04C36.348 135.04 35.9547 134.987 35.5813 134.88C35.2213 134.76 34.888 134.62 34.5813 134.46C34.288 134.3 34.0347 134.14 33.8213 133.98C33.608 133.807 33.4547 133.673 33.3613 133.58H32.7613ZM54.1146 137.84V133.76H53.7946C53.7546 133.947 53.6879 134.067 53.5946 134.12C53.5013 134.16 53.3613 134.18 53.1746 134.18C53.0013 134.18 52.7879 134.14 52.5346 134.06C52.2813 133.98 51.9946 133.9 51.6746 133.82C51.3679 133.727 51.0279 133.64 50.6546 133.56C50.2946 133.48 49.9013 133.44 49.4746 133.44C48.6213 133.44 47.7479 133.62 46.8546 133.98C45.9746 134.327 45.1746 134.827 44.4546 135.48C43.7346 136.133 43.1413 136.92 42.6746 137.84C42.2213 138.76 41.9946 139.787 41.9946 140.92C41.9946 141.96 42.2013 142.927 42.6146 143.82C43.0279 144.713 43.5746 145.493 44.2546 146.16C44.9479 146.813 45.7479 147.333 46.6546 147.72C47.5613 148.093 48.5013 148.28 49.4746 148.28C49.9013 148.28 50.3079 148.24 50.6946 148.16C51.0813 148.093 51.4346 148.02 51.7546 147.94C52.0879 147.847 52.3813 147.767 52.6346 147.7C52.8879 147.62 53.0946 147.58 53.2546 147.58C53.4413 147.58 53.5813 147.613 53.6746 147.68C53.7679 147.733 53.8479 147.84 53.9146 148H54.2346V143.76H53.9146C53.7946 144.307 53.6079 144.833 53.3546 145.34C53.1013 145.847 52.7879 146.3 52.4146 146.7C52.0413 147.087 51.6079 147.4 51.1146 147.64C50.6346 147.88 50.0946 148 49.4946 148C48.7479 148 48.1013 147.893 47.5546 147.68C47.0213 147.467 46.5813 147.093 46.2346 146.56C45.9013 146.027 45.6546 145.307 45.4946 144.4C45.3346 143.493 45.2546 142.347 45.2546 140.96C45.2546 139.907 45.2946 138.94 45.3746 138.06C45.4546 137.167 45.6346 136.4 45.9146 135.76C46.2079 135.12 46.6346 134.62 47.1946 134.26C47.7546 133.9 48.5213 133.72 49.4946 133.72C50.2146 133.72 50.8146 133.853 51.2946 134.12C51.7879 134.373 52.1946 134.707 52.5146 135.12C52.8479 135.52 53.1146 135.967 53.3146 136.46C53.5279 136.94 53.7079 137.4 53.8546 137.84H54.1146ZM60.7882 147.72V134.04C60.9215 134.013 61.0949 134 61.3082 134C61.5215 133.987 61.7615 133.98 62.0282 133.98C63.1882 133.98 64.1215 134.147 64.8282 134.48C65.5482 134.813 66.1015 135.293 66.4882 135.92C66.8882 136.533 67.1549 137.28 67.2882 138.16C67.4215 139.027 67.4882 140 67.4882 141.08C67.4882 141.52 67.4682 141.993 67.4282 142.5C67.3882 142.993 67.3015 143.493 67.1682 144C67.0482 144.493 66.8615 144.967 66.6082 145.42C66.3682 145.873 66.0349 146.28 65.6082 146.64C65.1949 146.987 64.6815 147.267 64.0682 147.48C63.4549 147.68 62.7149 147.78 61.8482 147.78C61.5282 147.78 61.1749 147.76 60.7882 147.72ZM57.8882 134.04V147.72H56.0482V148H57.8882C58.6482 148 59.4015 148.007 60.1482 148.02C60.9082 148.033 61.6682 148.04 62.4282 148.04C62.9482 148.04 63.5082 148 64.1082 147.92C64.7215 147.84 65.3349 147.7 65.9482 147.5C66.5749 147.287 67.1749 147.007 67.7482 146.66C68.3215 146.313 68.8282 145.873 69.2682 145.34C69.7215 144.807 70.0815 144.173 70.3482 143.44C70.6149 142.707 70.7482 141.853 70.7482 140.88C70.7482 139.893 70.6149 139.033 70.3482 138.3C70.0815 137.567 69.7215 136.933 69.2682 136.4C68.8149 135.867 68.2949 135.427 67.7082 135.08C67.1215 134.733 66.5015 134.46 65.8482 134.26C65.1949 134.047 64.5349 133.9 63.8682 133.82C63.2015 133.74 62.5682 133.7 61.9682 133.7C61.2882 133.7 60.6082 133.713 59.9282 133.74C59.2482 133.753 58.5682 133.76 57.8882 133.76H56.0482V134.04H57.8882ZM73.1768 133.76V137.72H73.4568C73.4701 137.573 73.5035 137.413 73.5568 137.24C73.6101 137.053 73.6835 136.887 73.7768 136.74C73.8835 136.58 74.0168 136.453 74.1768 136.36C74.3501 136.253 74.5568 136.2 74.7968 136.2H81.0168C80.9235 136.707 80.7568 137.327 80.5168 138.06C80.2768 138.78 79.9635 139.547 79.5768 140.36C79.1901 141.16 78.7168 141.967 78.1568 142.78C77.6101 143.593 76.9701 144.34 76.2368 145.02L74.4968 146.64C74.3768 146.76 74.2768 146.887 74.1968 147.02C74.1301 147.14 74.0968 147.293 74.0968 147.48C74.0968 147.787 74.2368 147.993 74.5168 148.1C74.7968 148.207 75.0968 148.26 75.4168 148.26C75.7901 148.26 76.1301 148.147 76.4368 147.92C76.7568 147.68 77.0701 147.313 77.3768 146.82C77.6968 146.327 78.0301 145.687 78.3768 144.9C78.7235 144.113 79.1168 143.173 79.5568 142.08C79.8901 141.253 80.1835 140.433 80.4368 139.62C80.7035 138.793 80.9235 138.013 81.0968 137.28C81.2701 136.533 81.3968 135.86 81.4768 135.26C81.5701 134.647 81.6168 134.147 81.6168 133.76H73.1768ZM86.0101 138.34C86.0101 137.327 86.0701 136.52 86.1901 135.92C86.3101 135.307 86.4701 134.84 86.6701 134.52C86.8701 134.187 87.0967 133.973 87.3501 133.88C87.6167 133.773 87.8901 133.72 88.1701 133.72C88.4101 133.72 88.6634 133.76 88.9301 133.84C89.1967 133.907 89.4434 134.107 89.6701 134.44C89.8967 134.76 90.0834 135.26 90.2301 135.94C90.3767 136.62 90.4501 137.573 90.4501 138.8C90.4501 139.133 90.4367 139.453 90.4101 139.76C90.3967 140.053 90.3767 140.26 90.3501 140.38C90.2301 140.953 89.9567 141.4 89.5301 141.72C89.1167 142.04 88.6101 142.2 88.0101 142.2C87.3301 142.2 86.8234 141.907 86.4901 141.32C86.1701 140.72 86.0101 139.727 86.0101 138.34ZM83.3101 137.98C83.3101 138.607 83.4301 139.193 83.6701 139.74C83.9234 140.287 84.2567 140.767 84.6701 141.18C85.0967 141.58 85.5834 141.9 86.1301 142.14C86.6767 142.367 87.2567 142.48 87.8701 142.48C88.2701 142.48 88.6101 142.44 88.8901 142.36C89.1834 142.267 89.4234 142.153 89.6101 142.02C89.8101 141.887 89.9701 141.747 90.0901 141.6C90.2101 141.44 90.3101 141.3 90.3901 141.18H90.4301C90.4301 142.153 90.3901 143.06 90.3101 143.9C90.2301 144.727 90.0767 145.447 89.8501 146.06C89.6234 146.66 89.3167 147.133 88.9301 147.48C88.5434 147.827 88.0367 148 87.4101 148C87.2901 148 87.1567 148 87.0101 148C86.8634 147.987 86.7234 147.953 86.5901 147.9C86.4701 147.833 86.3701 147.74 86.2901 147.62C86.2101 147.5 86.1701 147.327 86.1701 147.1C86.1701 147.02 86.1834 146.92 86.2101 146.8C86.2367 146.68 86.2634 146.553 86.2901 146.42C86.3167 146.287 86.3434 146.16 86.3701 146.04C86.3967 145.907 86.4101 145.8 86.4101 145.72C86.4101 145.533 86.3767 145.387 86.3101 145.28C86.2434 145.173 86.1567 145.093 86.0501 145.04C85.9434 144.973 85.8301 144.933 85.7101 144.92C85.5901 144.907 85.4767 144.9 85.3701 144.9C84.9567 144.9 84.6301 145 84.3901 145.2C84.1634 145.4 84.0501 145.713 84.0501 146.14C84.0501 146.327 84.0901 146.547 84.1701 146.8C84.2634 147.04 84.4301 147.273 84.6701 147.5C84.9101 147.713 85.2434 147.893 85.6701 148.04C86.1101 148.187 86.6701 148.26 87.3501 148.26C88.3767 148.26 89.2501 148.033 89.9701 147.58C90.7034 147.127 91.3034 146.513 91.7701 145.74C92.2501 144.967 92.5967 144.067 92.8101 143.04C93.0367 142 93.1501 140.893 93.1501 139.72C93.1501 138.72 93.0167 137.833 92.7501 137.06C92.4967 136.273 92.1434 135.613 91.6901 135.08C91.2367 134.547 90.6967 134.14 90.0701 133.86C89.4567 133.58 88.7967 133.44 88.0901 133.44C87.4901 133.44 86.9034 133.56 86.3301 133.8C85.7567 134.04 85.2434 134.367 84.7901 134.78C84.3501 135.193 83.9901 135.673 83.7101 136.22C83.4434 136.767 83.3101 137.353 83.3101 137.98Z" fill="white"/>
<path d="M172.454 142.9L173.894 138.94H177.274L175.834 142.9H172.454ZM170.594 148L172.314 143.26H175.694L173.974 148H174.394L176.114 143.26H178.774L178.914 142.9H176.254L177.694 138.94H180.354L180.494 138.58H177.834L179.574 133.76H179.154L177.414 138.58H174.034L175.774 133.76H175.354L173.614 138.58H170.954L170.814 138.94H173.474L172.034 142.9H169.374L169.254 143.26H171.894L170.174 148H170.594ZM183.328 133.58L181.988 141.84H182.248C182.341 141.64 182.454 141.407 182.588 141.14C182.734 140.86 182.914 140.6 183.128 140.36C183.341 140.12 183.601 139.913 183.908 139.74C184.214 139.567 184.588 139.48 185.028 139.48C185.361 139.48 185.668 139.527 185.948 139.62C186.241 139.7 186.494 139.88 186.708 140.16C186.934 140.44 187.108 140.847 187.228 141.38C187.361 141.9 187.428 142.6 187.428 143.48C187.428 144.6 187.341 145.467 187.168 146.08C187.008 146.693 186.801 147.14 186.548 147.42C186.308 147.7 186.034 147.867 185.728 147.92C185.434 147.973 185.154 148 184.888 148C184.781 148 184.654 147.987 184.508 147.96C184.374 147.92 184.248 147.853 184.128 147.76C184.008 147.667 183.901 147.54 183.808 147.38C183.728 147.22 183.688 147.013 183.688 146.76C183.688 146.72 183.694 146.66 183.708 146.58C183.721 146.487 183.728 146.393 183.728 146.3C183.741 146.193 183.754 146.1 183.768 146.02C183.781 145.927 183.788 145.86 183.788 145.82C183.788 145.593 183.708 145.393 183.548 145.22C183.401 145.033 183.074 144.94 182.568 144.94C182.501 144.94 182.401 144.947 182.268 144.96C182.134 144.973 181.994 145.02 181.848 145.1C181.714 145.167 181.594 145.273 181.488 145.42C181.394 145.567 181.348 145.78 181.348 146.06C181.348 146.353 181.434 146.633 181.608 146.9C181.794 147.167 182.048 147.4 182.368 147.6C182.701 147.8 183.088 147.96 183.528 148.08C183.981 148.2 184.468 148.26 184.988 148.26C185.814 148.26 186.541 148.107 187.168 147.8C187.808 147.493 188.348 147.1 188.788 146.62C189.228 146.14 189.561 145.607 189.788 145.02C190.014 144.433 190.128 143.867 190.128 143.32C190.128 142.693 190.001 142.127 189.748 141.62C189.508 141.1 189.174 140.66 188.748 140.3C188.334 139.927 187.848 139.64 187.288 139.44C186.741 139.24 186.154 139.14 185.528 139.14C185.088 139.14 184.714 139.18 184.408 139.26C184.101 139.327 183.834 139.427 183.608 139.56C183.381 139.68 183.188 139.827 183.028 140C182.868 140.16 182.708 140.34 182.548 140.54L182.508 140.5L183.228 136.12C183.428 136.2 183.654 136.293 183.908 136.4C184.161 136.493 184.421 136.587 184.688 136.68C184.968 136.773 185.241 136.853 185.508 136.92C185.788 136.973 186.041 137 186.268 137C186.654 137 186.988 136.953 187.268 136.86C187.561 136.753 187.848 136.573 188.128 136.32C188.408 136.067 188.701 135.733 189.008 135.32C189.328 134.907 189.708 134.387 190.148 133.76L189.888 133.64C189.648 133.987 189.394 134.253 189.128 134.44C188.874 134.627 188.628 134.767 188.388 134.86C188.161 134.953 187.948 135.007 187.748 135.02C187.561 135.033 187.421 135.04 187.328 135.04C186.914 135.04 186.521 134.987 186.148 134.88C185.788 134.76 185.454 134.62 185.148 134.46C184.854 134.3 184.601 134.14 184.388 133.98C184.174 133.807 184.021 133.673 183.928 133.58H183.328ZM193.001 133.76V137.72H193.281C193.294 137.573 193.328 137.413 193.381 137.24C193.434 137.053 193.508 136.887 193.601 136.74C193.708 136.58 193.841 136.453 194.001 136.36C194.174 136.253 194.381 136.2 194.621 136.2H200.841C200.748 136.707 200.581 137.327 200.341 138.06C200.101 138.78 199.788 139.547 199.401 140.36C199.014 141.16 198.541 141.967 197.981 142.78C197.434 143.593 196.794 144.34 196.061 145.02L194.321 146.64C194.201 146.76 194.101 146.887 194.021 147.02C193.954 147.14 193.921 147.293 193.921 147.48C193.921 147.787 194.061 147.993 194.341 148.1C194.621 148.207 194.921 148.26 195.241 148.26C195.614 148.26 195.954 148.147 196.261 147.92C196.581 147.68 196.894 147.313 197.201 146.82C197.521 146.327 197.854 145.687 198.201 144.9C198.548 144.113 198.941 143.173 199.381 142.08C199.714 141.253 200.008 140.433 200.261 139.62C200.528 138.793 200.748 138.013 200.921 137.28C201.094 136.533 201.221 135.86 201.301 135.26C201.394 134.647 201.441 134.147 201.441 133.76H193.001ZM208.934 139.42V144.54H203.654C203.934 143.9 204.274 143.24 204.674 142.56C205.088 141.88 205.521 141.213 205.974 140.56C206.441 139.893 206.914 139.26 207.394 138.66C207.874 138.047 208.334 137.487 208.774 136.98C209.228 136.46 209.641 136.013 210.014 135.64C210.388 135.253 210.694 134.96 210.934 134.76C211.054 134.653 211.154 134.553 211.234 134.46C211.314 134.353 211.354 134.227 211.354 134.08C211.354 133.933 211.314 133.82 211.234 133.74C211.168 133.66 211.074 133.6 210.954 133.56C210.848 133.507 210.728 133.473 210.594 133.46C210.461 133.447 210.334 133.44 210.214 133.44C210.014 133.44 209.828 133.453 209.654 133.48C209.481 133.507 209.294 133.587 209.094 133.72C208.894 133.853 208.674 134.067 208.434 134.36C208.194 134.653 207.914 135.067 207.594 135.6C207.181 136.293 206.748 137.087 206.294 137.98C205.854 138.86 205.428 139.74 205.014 140.62C204.614 141.5 204.254 142.32 203.934 143.08C203.628 143.827 203.408 144.407 203.274 144.82H208.934V147.72H207.174V148H213.154V147.72H211.374V144.82H213.154V144.54H211.374V139.42H208.934ZM219.208 140.22V134.04C219.354 134.027 219.501 134.013 219.648 134C219.794 133.987 219.941 133.98 220.088 133.98C220.594 133.98 221.008 134.047 221.328 134.18C221.661 134.313 221.921 134.52 222.108 134.8C222.294 135.067 222.428 135.413 222.508 135.84C222.588 136.253 222.628 136.753 222.628 137.34C222.628 137.7 222.601 138.053 222.548 138.4C222.508 138.747 222.401 139.06 222.228 139.34C222.054 139.607 221.794 139.82 221.448 139.98C221.101 140.14 220.628 140.22 220.028 140.22H219.208ZM219.208 147.72V140.5H220.368C221.034 140.5 221.548 140.64 221.908 140.92C222.281 141.187 222.554 141.507 222.728 141.88C222.914 142.253 223.028 142.633 223.068 143.02C223.108 143.393 223.128 143.693 223.128 143.92C223.128 144.733 223.061 145.393 222.928 145.9C222.808 146.393 222.628 146.78 222.388 147.06C222.148 147.34 221.854 147.533 221.508 147.64C221.174 147.733 220.794 147.78 220.368 147.78C219.954 147.78 219.568 147.76 219.208 147.72ZM216.308 134.04V147.72H214.468V148H217.488C218.048 148 218.601 148.007 219.148 148.02C219.708 148.033 220.268 148.04 220.828 148.04C221.334 148.04 221.908 147.987 222.548 147.88C223.188 147.76 223.788 147.553 224.348 147.26C224.921 146.967 225.401 146.567 225.788 146.06C226.188 145.553 226.388 144.913 226.388 144.14C226.388 143.433 226.234 142.847 225.928 142.38C225.621 141.913 225.234 141.54 224.768 141.26C224.301 140.967 223.788 140.753 223.228 140.62C222.668 140.487 222.128 140.4 221.608 140.36V140.28C221.928 140.24 222.314 140.153 222.768 140.02C223.234 139.887 223.681 139.693 224.108 139.44C224.534 139.187 224.894 138.867 225.188 138.48C225.494 138.08 225.648 137.593 225.648 137.02C225.648 136.38 225.494 135.847 225.188 135.42C224.881 134.993 224.488 134.653 224.008 134.4C223.541 134.147 223.021 133.967 222.448 133.86C221.874 133.753 221.328 133.7 220.808 133.7C220.248 133.7 219.694 133.713 219.148 133.74C218.601 133.753 218.048 133.76 217.488 133.76H214.468V134.04H216.308ZM230.639 138.34C230.639 137.327 230.699 136.52 230.819 135.92C230.939 135.307 231.099 134.84 231.299 134.52C231.499 134.187 231.726 133.973 231.979 133.88C232.246 133.773 232.519 133.72 232.799 133.72C233.039 133.72 233.292 133.76 233.559 133.84C233.826 133.907 234.072 134.107 234.299 134.44C234.526 134.76 234.712 135.26 234.859 135.94C235.006 136.62 235.079 137.573 235.079 138.8C235.079 139.133 235.066 139.453 235.039 139.76C235.026 140.053 235.006 140.26 234.979 140.38C234.859 140.953 234.586 141.4 234.159 141.72C233.746 142.04 233.239 142.2 232.639 142.2C231.959 142.2 231.452 141.907 231.119 141.32C230.799 140.72 230.639 139.727 230.639 138.34ZM227.939 137.98C227.939 138.607 228.059 139.193 228.299 139.74C228.552 140.287 228.886 140.767 229.299 141.18C229.726 141.58 230.212 141.9 230.759 142.14C231.306 142.367 231.886 142.48 232.499 142.48C232.899 142.48 233.239 142.44 233.519 142.36C233.812 142.267 234.052 142.153 234.239 142.02C234.439 141.887 234.599 141.747 234.719 141.6C234.839 141.44 234.939 141.3 235.019 141.18H235.059C235.059 142.153 235.019 143.06 234.939 143.9C234.859 144.727 234.706 145.447 234.479 146.06C234.252 146.66 233.946 147.133 233.559 147.48C233.172 147.827 232.666 148 232.039 148C231.919 148 231.786 148 231.639 148C231.492 147.987 231.352 147.953 231.219 147.9C231.099 147.833 230.999 147.74 230.919 147.62C230.839 147.5 230.799 147.327 230.799 147.1C230.799 147.02 230.812 146.92 230.839 146.8C230.866 146.68 230.892 146.553 230.919 146.42C230.946 146.287 230.972 146.16 230.999 146.04C231.026 145.907 231.039 145.8 231.039 145.72C231.039 145.533 231.006 145.387 230.939 145.28C230.872 145.173 230.786 145.093 230.679 145.04C230.572 144.973 230.459 144.933 230.339 144.92C230.219 144.907 230.106 144.9 229.999 144.9C229.586 144.9 229.259 145 229.019 145.2C228.792 145.4 228.679 145.713 228.679 146.14C228.679 146.327 228.719 146.547 228.799 146.8C228.892 147.04 229.059 147.273 229.299 147.5C229.539 147.713 229.872 147.893 230.299 148.04C230.739 148.187 231.299 148.26 231.979 148.26C233.006 148.26 233.879 148.033 234.599 147.58C235.332 147.127 235.932 146.513 236.399 145.74C236.879 144.967 237.226 144.067 237.439 143.04C237.666 142 237.779 140.893 237.779 139.72C237.779 138.72 237.646 137.833 237.379 137.06C237.126 136.273 236.772 135.613 236.319 135.08C235.866 134.547 235.326 134.14 234.699 133.86C234.086 133.58 233.426 133.44 232.719 133.44C232.119 133.44 231.532 133.56 230.959 133.8C230.386 134.04 229.872 134.367 229.419 134.78C228.979 135.193 228.619 135.673 228.339 136.22C228.072 136.767 227.939 137.353 227.939 137.98ZM241.952 140.86C241.952 139.593 241.966 138.513 241.992 137.62C242.032 136.713 242.126 135.973 242.272 135.4C242.419 134.827 242.632 134.407 242.912 134.14C243.206 133.86 243.612 133.72 244.132 133.72C244.652 133.72 245.052 133.847 245.332 134.1C245.626 134.34 245.846 134.747 245.992 135.32C246.139 135.88 246.226 136.613 246.252 137.52C246.292 138.427 246.312 139.54 246.312 140.86C246.312 142.113 246.292 143.193 246.252 144.1C246.226 145.007 246.139 145.747 245.992 146.32C245.846 146.893 245.626 147.32 245.332 147.6C245.052 147.867 244.652 148 244.132 148C243.612 148 243.206 147.867 242.912 147.6C242.632 147.32 242.419 146.893 242.272 146.32C242.126 145.747 242.032 145.007 241.992 144.1C241.966 143.193 241.952 142.113 241.952 140.86ZM239.252 140.86C239.252 141.113 239.259 141.473 239.272 141.94C239.286 142.407 239.339 142.913 239.432 143.46C239.526 144.007 239.666 144.567 239.852 145.14C240.052 145.7 240.332 146.213 240.692 146.68C241.052 147.147 241.512 147.527 242.072 147.82C242.632 148.113 243.319 148.26 244.132 148.26C244.866 148.26 245.492 148.127 246.012 147.86C246.546 147.58 246.992 147.22 247.352 146.78C247.712 146.327 247.999 145.827 248.212 145.28C248.439 144.733 248.606 144.187 248.712 143.64C248.832 143.08 248.912 142.56 248.952 142.08C248.992 141.587 249.012 141.18 249.012 140.86C249.012 140.607 249.006 140.253 248.992 139.8C248.979 139.333 248.926 138.827 248.832 138.28C248.739 137.72 248.592 137.153 248.392 136.58C248.206 136.007 247.932 135.493 247.572 135.04C247.212 134.573 246.752 134.193 246.192 133.9C245.632 133.593 244.946 133.44 244.132 133.44C243.399 133.44 242.766 133.58 242.232 133.86C241.712 134.14 241.272 134.5 240.912 134.94C240.552 135.38 240.259 135.88 240.032 136.44C239.819 136.987 239.652 137.54 239.532 138.1C239.426 138.647 239.352 139.167 239.312 139.66C239.272 140.14 239.252 140.54 239.252 140.86Z" fill="white"/>
<path d="M331.294 142.9L332.734 138.94H336.114L334.674 142.9H331.294ZM329.434 148L331.154 143.26H334.534L332.814 148H333.234L334.954 143.26H337.614L337.754 142.9H335.094L336.534 138.94H339.194L339.334 138.58H336.674L338.414 133.76H337.994L336.254 138.58H332.874L334.614 133.76H334.194L332.454 138.58H329.794L329.654 138.94H332.314L330.874 142.9H328.214L328.094 143.26H330.734L329.014 148H329.434ZM340.008 133.76V134.04H341.848V147.72H340.008V148H352.788V143.62H352.528C352.394 144.193 352.201 144.733 351.948 145.24C351.694 145.733 351.374 146.167 350.988 146.54C350.614 146.913 350.181 147.207 349.688 147.42C349.194 147.62 348.641 147.72 348.028 147.72H344.748V140.5H346.088C346.554 140.5 346.941 140.58 347.248 140.74C347.568 140.9 347.834 141.12 348.048 141.4C348.261 141.667 348.428 141.98 348.548 142.34C348.681 142.7 348.794 143.073 348.888 143.46H349.148V137.24H348.888C348.794 137.693 348.674 138.107 348.528 138.48C348.381 138.84 348.194 139.153 347.968 139.42C347.741 139.673 347.454 139.873 347.108 140.02C346.774 140.153 346.361 140.22 345.868 140.22H344.748V134.04H347.928C348.581 134.04 349.134 134.167 349.588 134.42C350.041 134.66 350.408 134.947 350.688 135.28C350.981 135.613 351.208 135.96 351.368 136.32C351.528 136.667 351.641 136.953 351.708 137.18H351.968V133.76H340.008ZM362.701 148V147.72H360.861V133.44H360.061C359.661 133.813 359.295 134.133 358.961 134.4C358.628 134.653 358.295 134.887 357.961 135.1C357.641 135.313 357.295 135.527 356.921 135.74C356.548 135.953 356.121 136.2 355.641 136.48L355.801 136.74C356.228 136.5 356.661 136.253 357.101 136C357.541 135.747 357.981 135.5 358.421 135.26V147.72H356.541V148H362.701ZM367.714 133.58L366.374 141.84H366.634C366.728 141.64 366.841 141.407 366.974 141.14C367.121 140.86 367.301 140.6 367.514 140.36C367.728 140.12 367.988 139.913 368.294 139.74C368.601 139.567 368.974 139.48 369.414 139.48C369.748 139.48 370.054 139.527 370.334 139.62C370.628 139.7 370.881 139.88 371.094 140.16C371.321 140.44 371.494 140.847 371.614 141.38C371.748 141.9 371.814 142.6 371.814 143.48C371.814 144.6 371.728 145.467 371.554 146.08C371.394 146.693 371.188 147.14 370.934 147.42C370.694 147.7 370.421 147.867 370.114 147.92C369.821 147.973 369.541 148 369.274 148C369.168 148 369.041 147.987 368.894 147.96C368.761 147.92 368.634 147.853 368.514 147.76C368.394 147.667 368.288 147.54 368.194 147.38C368.114 147.22 368.074 147.013 368.074 146.76C368.074 146.72 368.081 146.66 368.094 146.58C368.108 146.487 368.114 146.393 368.114 146.3C368.128 146.193 368.141 146.1 368.154 146.02C368.168 145.927 368.174 145.86 368.174 145.82C368.174 145.593 368.094 145.393 367.934 145.22C367.788 145.033 367.461 144.94 366.954 144.94C366.888 144.94 366.788 144.947 366.654 144.96C366.521 144.973 366.381 145.02 366.234 145.1C366.101 145.167 365.981 145.273 365.874 145.42C365.781 145.567 365.734 145.78 365.734 146.06C365.734 146.353 365.821 146.633 365.994 146.9C366.181 147.167 366.434 147.4 366.754 147.6C367.088 147.8 367.474 147.96 367.914 148.08C368.368 148.2 368.854 148.26 369.374 148.26C370.201 148.26 370.928 148.107 371.554 147.8C372.194 147.493 372.734 147.1 373.174 146.62C373.614 146.14 373.948 145.607 374.174 145.02C374.401 144.433 374.514 143.867 374.514 143.32C374.514 142.693 374.388 142.127 374.134 141.62C373.894 141.1 373.561 140.66 373.134 140.3C372.721 139.927 372.234 139.64 371.674 139.44C371.128 139.24 370.541 139.14 369.914 139.14C369.474 139.14 369.101 139.18 368.794 139.26C368.488 139.327 368.221 139.427 367.994 139.56C367.768 139.68 367.574 139.827 367.414 140C367.254 140.16 367.094 140.34 366.934 140.54L366.894 140.5L367.614 136.12C367.814 136.2 368.041 136.293 368.294 136.4C368.548 136.493 368.808 136.587 369.074 136.68C369.354 136.773 369.628 136.853 369.894 136.92C370.174 136.973 370.428 137 370.654 137C371.041 137 371.374 136.953 371.654 136.86C371.948 136.753 372.234 136.573 372.514 136.32C372.794 136.067 373.088 135.733 373.394 135.32C373.714 134.907 374.094 134.387 374.534 133.76L374.274 133.64C374.034 133.987 373.781 134.253 373.514 134.44C373.261 134.627 373.014 134.767 372.774 134.86C372.548 134.953 372.334 135.007 372.134 135.02C371.948 135.033 371.808 135.04 371.714 135.04C371.301 135.04 370.908 134.987 370.534 134.88C370.174 134.76 369.841 134.62 369.534 134.46C369.241 134.3 368.988 134.14 368.774 133.98C368.561 133.807 368.408 133.673 368.314 133.58H367.714ZM378.508 134.04V147.72H376.668V148H383.268V147.72H381.408V140.76H382.748C383.214 140.76 383.601 140.84 383.908 141C384.228 141.16 384.494 141.38 384.708 141.66C384.921 141.927 385.088 142.24 385.208 142.6C385.341 142.96 385.454 143.333 385.548 143.72H385.808V137.5H385.548C385.454 137.953 385.334 138.367 385.188 138.74C385.041 139.1 384.854 139.413 384.628 139.68C384.401 139.933 384.114 140.133 383.768 140.28C383.434 140.413 383.021 140.48 382.528 140.48H381.408V134.04H384.428C384.961 134.04 385.421 134.113 385.808 134.26C386.208 134.407 386.554 134.62 386.848 134.9C387.141 135.167 387.394 135.493 387.608 135.88C387.834 136.267 388.041 136.7 388.228 137.18H388.488V133.76H376.668V134.04H378.508ZM395.899 139.42V144.54H390.619C390.899 143.9 391.239 143.24 391.639 142.56C392.052 141.88 392.486 141.213 392.939 140.56C393.406 139.893 393.879 139.26 394.359 138.66C394.839 138.047 395.299 137.487 395.739 136.98C396.192 136.46 396.606 136.013 396.979 135.64C397.352 135.253 397.659 134.96 397.899 134.76C398.019 134.653 398.119 134.553 398.199 134.46C398.279 134.353 398.319 134.227 398.319 134.08C398.319 133.933 398.279 133.82 398.199 133.74C398.132 133.66 398.039 133.6 397.919 133.56C397.812 133.507 397.692 133.473 397.559 133.46C397.426 133.447 397.299 133.44 397.179 133.44C396.979 133.44 396.792 133.453 396.619 133.48C396.446 133.507 396.259 133.587 396.059 133.72C395.859 133.853 395.639 134.067 395.399 134.36C395.159 134.653 394.879 135.067 394.559 135.6C394.146 136.293 393.712 137.087 393.259 137.98C392.819 138.86 392.392 139.74 391.979 140.62C391.579 141.5 391.219 142.32 390.899 143.08C390.592 143.827 390.372 144.407 390.239 144.82H395.899V147.72H394.139V148H400.119V147.72H398.339V144.82H400.119V144.54H398.339V139.42H395.899ZM409.732 148V147.72H407.892V133.44H407.092C406.692 133.813 406.326 134.133 405.992 134.4C405.659 134.653 405.326 134.887 404.992 135.1C404.672 135.313 404.326 135.527 403.952 135.74C403.579 135.953 403.152 136.2 402.672 136.48L402.832 136.74C403.259 136.5 403.692 136.253 404.132 136C404.572 135.747 405.012 135.5 405.452 135.26V147.72H403.572V148H409.732Z" fill="white"/>
<path d="M492.583 142.9L494.023 138.94H497.403L495.963 142.9H492.583ZM490.723 148L492.443 143.26H495.823L494.103 148H494.523L496.243 143.26H498.903L499.043 142.9H496.383L497.823 138.94H500.483L500.623 138.58H497.963L499.703 133.76H499.283L497.543 138.58H494.163L495.903 133.76H495.483L493.743 138.58H491.083L490.943 138.94H493.603L492.163 142.9H489.503L489.383 143.26H492.023L490.303 148H490.723ZM513.697 137.84V133.76H513.377C513.337 133.947 513.27 134.067 513.177 134.12C513.083 134.16 512.943 134.18 512.757 134.18C512.583 134.18 512.37 134.14 512.117 134.06C511.863 133.98 511.577 133.9 511.257 133.82C510.95 133.727 510.61 133.64 510.237 133.56C509.877 133.48 509.483 133.44 509.057 133.44C508.203 133.44 507.33 133.62 506.437 133.98C505.557 134.327 504.757 134.827 504.037 135.48C503.317 136.133 502.723 136.92 502.257 137.84C501.803 138.76 501.577 139.787 501.577 140.92C501.577 141.96 501.783 142.927 502.197 143.82C502.61 144.713 503.157 145.493 503.837 146.16C504.53 146.813 505.33 147.333 506.237 147.72C507.143 148.093 508.083 148.28 509.057 148.28C509.483 148.28 509.89 148.24 510.277 148.16C510.663 148.093 511.017 148.02 511.337 147.94C511.67 147.847 511.963 147.767 512.217 147.7C512.47 147.62 512.677 147.58 512.837 147.58C513.023 147.58 513.163 147.613 513.257 147.68C513.35 147.733 513.43 147.84 513.497 148H513.817V143.76H513.497C513.377 144.307 513.19 144.833 512.937 145.34C512.683 145.847 512.37 146.3 511.997 146.7C511.623 147.087 511.19 147.4 510.697 147.64C510.217 147.88 509.677 148 509.077 148C508.33 148 507.683 147.893 507.137 147.68C506.603 147.467 506.163 147.093 505.817 146.56C505.483 146.027 505.237 145.307 505.077 144.4C504.917 143.493 504.837 142.347 504.837 140.96C504.837 139.907 504.877 138.94 504.957 138.06C505.037 137.167 505.217 136.4 505.497 135.76C505.79 135.12 506.217 134.62 506.777 134.26C507.337 133.9 508.103 133.72 509.077 133.72C509.797 133.72 510.397 133.853 510.877 134.12C511.37 134.373 511.777 134.707 512.097 135.12C512.43 135.52 512.697 135.967 512.897 136.46C513.11 136.94 513.29 137.4 513.437 137.84H513.697ZM521.27 139.42V144.54H515.99C516.27 143.9 516.61 143.24 517.01 142.56C517.424 141.88 517.857 141.213 518.31 140.56C518.777 139.893 519.25 139.26 519.73 138.66C520.21 138.047 520.67 137.487 521.11 136.98C521.564 136.46 521.977 136.013 522.35 135.64C522.724 135.253 523.03 134.96 523.27 134.76C523.39 134.653 523.49 134.553 523.57 134.46C523.65 134.353 523.69 134.227 523.69 134.08C523.69 133.933 523.65 133.82 523.57 133.74C523.504 133.66 523.41 133.6 523.29 133.56C523.184 133.507 523.064 133.473 522.93 133.46C522.797 133.447 522.67 133.44 522.55 133.44C522.35 133.44 522.164 133.453 521.99 133.48C521.817 133.507 521.63 133.587 521.43 133.72C521.23 133.853 521.01 134.067 520.77 134.36C520.53 134.653 520.25 135.067 519.93 135.6C519.517 136.293 519.084 137.087 518.63 137.98C518.19 138.86 517.764 139.74 517.35 140.62C516.95 141.5 516.59 142.32 516.27 143.08C515.964 143.827 515.744 144.407 515.61 144.82H521.27V147.72H519.51V148H525.49V147.72H523.71V144.82H525.49V144.54H523.71V139.42H521.27ZM532.384 139.42V144.54H527.104C527.384 143.9 527.724 143.24 528.124 142.56C528.537 141.88 528.97 141.213 529.424 140.56C529.89 139.893 530.364 139.26 530.844 138.66C531.324 138.047 531.784 137.487 532.224 136.98C532.677 136.46 533.09 136.013 533.464 135.64C533.837 135.253 534.144 134.96 534.384 134.76C534.504 134.653 534.604 134.553 534.684 134.46C534.764 134.353 534.804 134.227 534.804 134.08C534.804 133.933 534.764 133.82 534.684 133.74C534.617 133.66 534.524 133.6 534.404 133.56C534.297 133.507 534.177 133.473 534.044 133.46C533.91 133.447 533.784 133.44 533.664 133.44C533.464 133.44 533.277 133.453 533.104 133.48C532.93 133.507 532.744 133.587 532.544 133.72C532.344 133.853 532.124 134.067 531.884 134.36C531.644 134.653 531.364 135.067 531.044 135.6C530.63 136.293 530.197 137.087 529.744 137.98C529.304 138.86 528.877 139.74 528.464 140.62C528.064 141.5 527.704 142.32 527.384 143.08C527.077 143.827 526.857 144.407 526.724 144.82H532.384V147.72H530.624V148H536.604V147.72H534.824V144.82H536.604V144.54H534.824V139.42H532.384ZM540.117 133.58L538.777 141.84H539.037C539.13 141.64 539.243 141.407 539.377 141.14C539.523 140.86 539.703 140.6 539.917 140.36C540.13 140.12 540.39 139.913 540.697 139.74C541.003 139.567 541.377 139.48 541.817 139.48C542.15 139.48 542.457 139.527 542.737 139.62C543.03 139.7 543.283 139.88 543.497 140.16C543.723 140.44 543.897 140.847 544.017 141.38C544.15 141.9 544.217 142.6 544.217 143.48C544.217 144.6 544.13 145.467 543.957 146.08C543.797 146.693 543.59 147.14 543.337 147.42C543.097 147.7 542.823 147.867 542.517 147.92C542.223 147.973 541.943 148 541.677 148C541.57 148 541.443 147.987 541.297 147.96C541.163 147.92 541.037 147.853 540.917 147.76C540.797 147.667 540.69 147.54 540.597 147.38C540.517 147.22 540.477 147.013 540.477 146.76C540.477 146.72 540.483 146.66 540.497 146.58C540.51 146.487 540.517 146.393 540.517 146.3C540.53 146.193 540.543 146.1 540.557 146.02C540.57 145.927 540.577 145.86 540.577 145.82C540.577 145.593 540.497 145.393 540.337 145.22C540.19 145.033 539.863 144.94 539.357 144.94C539.29 144.94 539.19 144.947 539.057 144.96C538.923 144.973 538.783 145.02 538.637 145.1C538.503 145.167 538.383 145.273 538.277 145.42C538.183 145.567 538.137 145.78 538.137 146.06C538.137 146.353 538.223 146.633 538.397 146.9C538.583 147.167 538.837 147.4 539.157 147.6C539.49 147.8 539.877 147.96 540.317 148.08C540.77 148.2 541.257 148.26 541.777 148.26C542.603 148.26 543.33 148.107 543.957 147.8C544.597 147.493 545.137 147.1 545.577 146.62C546.017 146.14 546.35 145.607 546.577 145.02C546.803 144.433 546.917 143.867 546.917 143.32C546.917 142.693 546.79 142.127 546.537 141.62C546.297 141.1 545.963 140.66 545.537 140.3C545.123 139.927 544.637 139.64 544.077 139.44C543.53 139.24 542.943 139.14 542.317 139.14C541.877 139.14 541.503 139.18 541.197 139.26C540.89 139.327 540.623 139.427 540.397 139.56C540.17 139.68 539.977 139.827 539.817 140C539.657 140.16 539.497 140.34 539.337 140.54L539.297 140.5L540.017 136.12C540.217 136.2 540.443 136.293 540.697 136.4C540.95 136.493 541.21 136.587 541.477 136.68C541.757 136.773 542.03 136.853 542.297 136.92C542.577 136.973 542.83 137 543.057 137C543.443 137 543.777 136.953 544.057 136.86C544.35 136.753 544.637 136.573 544.917 136.32C545.197 136.067 545.49 135.733 545.797 135.32C546.117 134.907 546.497 134.387 546.937 133.76L546.677 133.64C546.437 133.987 546.183 134.253 545.917 134.44C545.663 134.627 545.417 134.767 545.177 134.86C544.95 134.953 544.737 135.007 544.537 135.02C544.35 135.033 544.21 135.04 544.117 135.04C543.703 135.04 543.31 134.987 542.937 134.88C542.577 134.76 542.243 134.62 541.937 134.46C541.643 134.3 541.39 134.14 541.177 133.98C540.963 133.807 540.81 133.673 540.717 133.58H540.117ZM556.11 143.38C556.11 144.447 556.05 145.287 555.93 145.9C555.823 146.513 555.67 146.98 555.47 147.3C555.283 147.607 555.057 147.8 554.79 147.88C554.537 147.96 554.257 148 553.95 148C553.71 148 553.45 147.967 553.17 147.9C552.903 147.82 552.65 147.62 552.41 147.3C552.183 146.967 551.99 146.46 551.83 145.78C551.683 145.087 551.61 144.133 551.61 142.92C551.61 142.52 551.617 142.187 551.63 141.92C551.657 141.653 551.69 141.433 551.73 141.26C551.783 141.073 551.843 140.92 551.91 140.8C551.977 140.68 552.057 140.56 552.15 140.44C552.457 140.04 552.79 139.787 553.15 139.68C553.523 139.573 553.843 139.52 554.11 139.52C554.843 139.52 555.357 139.847 555.65 140.5C555.957 141.14 556.11 142.1 556.11 143.38ZM548.97 142C548.97 143 549.097 143.893 549.35 144.68C549.617 145.453 549.977 146.107 550.43 146.64C550.883 147.173 551.417 147.58 552.03 147.86C552.657 148.127 553.323 148.26 554.03 148.26C554.63 148.26 555.217 148.147 555.79 147.92C556.363 147.68 556.87 147.353 557.31 146.94C557.763 146.527 558.123 146.047 558.39 145.5C558.67 144.953 558.81 144.367 558.81 143.74C558.81 143.113 558.683 142.527 558.43 141.98C558.19 141.433 557.857 140.96 557.43 140.56C557.017 140.147 556.537 139.827 555.99 139.6C555.443 139.36 554.863 139.24 554.25 139.24C553.85 139.24 553.503 139.287 553.21 139.38C552.93 139.46 552.69 139.567 552.49 139.7C552.29 139.833 552.123 139.98 551.99 140.14C551.87 140.287 551.763 140.42 551.67 140.54L551.63 140.5C551.67 140.1 551.717 139.66 551.77 139.18C551.837 138.687 551.923 138.193 552.03 137.7C552.15 137.193 552.29 136.7 552.45 136.22C552.623 135.74 552.837 135.32 553.09 134.96C553.343 134.587 553.643 134.287 553.99 134.06C554.35 133.833 554.77 133.72 555.25 133.72C555.477 133.72 555.65 133.76 555.77 133.84C555.903 133.907 555.997 133.987 556.05 134.08C556.117 134.173 556.157 134.267 556.17 134.36C556.197 134.453 556.21 134.52 556.21 134.56C556.21 134.747 556.15 134.967 556.03 135.22C555.923 135.46 555.87 135.7 555.87 135.94C555.87 136.207 555.95 136.42 556.11 136.58C556.27 136.74 556.583 136.82 557.05 136.82C557.85 136.82 558.25 136.427 558.25 135.64C558.25 135.253 558.163 134.927 557.99 134.66C557.83 134.38 557.61 134.153 557.33 133.98C557.063 133.793 556.757 133.66 556.41 133.58C556.063 133.487 555.71 133.44 555.35 133.44C554.443 133.44 553.597 133.673 552.81 134.14C552.037 134.607 551.363 135.233 550.79 136.02C550.23 136.807 549.783 137.72 549.45 138.76C549.13 139.787 548.97 140.867 548.97 142ZM562.623 138.34C562.623 137.327 562.683 136.52 562.803 135.92C562.923 135.307 563.083 134.84 563.283 134.52C563.483 134.187 563.71 133.973 563.963 133.88C564.23 133.773 564.503 133.72 564.783 133.72C565.023 133.72 565.277 133.76 565.543 133.84C565.81 133.907 566.057 134.107 566.283 134.44C566.51 134.76 566.697 135.26 566.843 135.94C566.99 136.62 567.063 137.573 567.063 138.8C567.063 139.133 567.05 139.453 567.023 139.76C567.01 140.053 566.99 140.26 566.963 140.38C566.843 140.953 566.57 141.4 566.143 141.72C565.73 142.04 565.223 142.2 564.623 142.2C563.943 142.2 563.437 141.907 563.103 141.32C562.783 140.72 562.623 139.727 562.623 138.34ZM559.923 137.98C559.923 138.607 560.043 139.193 560.283 139.74C560.537 140.287 560.87 140.767 561.283 141.18C561.71 141.58 562.197 141.9 562.743 142.14C563.29 142.367 563.87 142.48 564.483 142.48C564.883 142.48 565.223 142.44 565.503 142.36C565.797 142.267 566.037 142.153 566.223 142.02C566.423 141.887 566.583 141.747 566.703 141.6C566.823 141.44 566.923 141.3 567.003 141.18H567.043C567.043 142.153 567.003 143.06 566.923 143.9C566.843 144.727 566.69 145.447 566.463 146.06C566.237 146.66 565.93 147.133 565.543 147.48C565.157 147.827 564.65 148 564.023 148C563.903 148 563.77 148 563.623 148C563.477 147.987 563.337 147.953 563.203 147.9C563.083 147.833 562.983 147.74 562.903 147.62C562.823 147.5 562.783 147.327 562.783 147.1C562.783 147.02 562.797 146.92 562.823 146.8C562.85 146.68 562.877 146.553 562.903 146.42C562.93 146.287 562.957 146.16 562.983 146.04C563.01 145.907 563.023 145.8 563.023 145.72C563.023 145.533 562.99 145.387 562.923 145.28C562.857 145.173 562.77 145.093 562.663 145.04C562.557 144.973 562.443 144.933 562.323 144.92C562.203 144.907 562.09 144.9 561.983 144.9C561.57 144.9 561.243 145 561.003 145.2C560.777 145.4 560.663 145.713 560.663 146.14C560.663 146.327 560.703 146.547 560.783 146.8C560.877 147.04 561.043 147.273 561.283 147.5C561.523 147.713 561.857 147.893 562.283 148.04C562.723 148.187 563.283 148.26 563.963 148.26C564.99 148.26 565.863 148.033 566.583 147.58C567.317 147.127 567.917 146.513 568.383 145.74C568.863 144.967 569.21 144.067 569.423 143.04C569.65 142 569.763 140.893 569.763 139.72C569.763 138.72 569.63 137.833 569.363 137.06C569.11 136.273 568.757 135.613 568.303 135.08C567.85 134.547 567.31 134.14 566.683 133.86C566.07 133.58 565.41 133.44 564.703 133.44C564.103 133.44 563.517 133.56 562.943 133.8C562.37 134.04 561.857 134.367 561.403 134.78C560.963 135.193 560.603 135.673 560.323 136.22C560.057 136.767 559.923 137.353 559.923 137.98Z" fill="white"/>
</svg>
