<svg width="264" height="16" viewBox="0 0 264 16" fill="none" xmlns="http://www.w3.org/2000/svg">
<path d="M1.52 15H0.78V1.08H1.58L6.44 9.66L11.28 1.08H12.02V15H11.28V2.56L6.78 10.5H6.08L1.52 2.46V15ZM20.8247 1.08H21.6047L27.3247 15H26.5247L24.6447 10.4H17.7847L15.8847 15H15.1047L20.8247 1.08ZM18.0847 9.68H24.3447L21.2047 2.04L18.0847 9.68ZM35.7694 15.3C34.8227 15.3 33.9427 15.0867 33.1294 14.66C32.316 14.22 31.6494 13.62 31.1294 12.86C30.6094 12.1 30.3027 11.26 30.2094 10.34H30.9494C31.0427 11.1267 31.316 11.8467 31.7694 12.5C32.2227 13.14 32.796 13.6467 33.4894 14.02C34.196 14.38 34.956 14.56 35.7694 14.56C36.6627 14.56 37.4827 14.34 38.2294 13.9C38.976 13.46 39.5694 12.8533 40.0094 12.08C40.4494 11.3067 40.6694 10.44 40.6694 9.48V1.82H34.4294V1.08H41.3894V9.48C41.3894 10.5733 41.136 11.5667 40.6294 12.46C40.136 13.34 39.456 14.0333 38.5894 14.54C37.736 15.0467 36.796 15.3 35.7694 15.3ZM50.8141 0.779999C51.8541 0.779999 52.8141 1.04 53.6941 1.56C54.5741 2.06667 55.2674 2.76 55.7741 3.64C56.2941 4.52 56.5541 5.48 56.5541 6.52V9.56C56.5541 10.6 56.2941 11.56 55.7741 12.44C55.2674 13.32 54.5741 14.02 53.6941 14.54C52.8141 15.0467 51.8541 15.3 50.8141 15.3C49.7741 15.3 48.8141 15.0467 47.9341 14.54C47.0541 14.02 46.3541 13.32 45.8341 12.44C45.3274 11.56 45.0741 10.6 45.0741 9.56V6.52C45.0741 5.48 45.3274 4.52 45.8341 3.64C46.3541 2.76 47.0541 2.06667 47.9341 1.56C48.8141 1.04 49.7741 0.779999 50.8141 0.779999ZM45.8141 9.56C45.8141 10.4667 46.0341 11.3067 46.4741 12.08C46.9274 12.84 47.5341 13.4467 48.2941 13.9C49.0674 14.34 49.9074 14.56 50.8141 14.56C51.7207 14.56 52.5541 14.34 53.3141 13.9C54.0874 13.4467 54.6941 12.84 55.1341 12.08C55.5874 11.3067 55.8141 10.4667 55.8141 9.56V6.52C55.8141 5.61333 55.5874 4.78 55.1341 4.02C54.6941 3.24667 54.0874 2.64 53.3141 2.2C52.5541 1.74667 51.7207 1.52 50.8141 1.52C49.9074 1.52 49.0674 1.74667 48.2941 2.2C47.5341 2.64 46.9274 3.24667 46.4741 4.02C46.0341 4.78 45.8141 5.61333 45.8141 6.52V9.56ZM68.6388 1.54C69.4388 1.91333 70.0654 2.46667 70.5188 3.2C70.9854 3.93333 71.2188 4.74667 71.2188 5.64C71.2188 6.68 70.8988 7.61333 70.2588 8.44C69.6321 9.25333 68.8254 9.79333 67.8388 10.06L71.3788 15H70.4988L67.0788 10.2L66.4388 10.22H61.4188V15H60.6788V1.08H65.9788C66.5654 1.08 67.0654 1.12 67.4788 1.2C67.9054 1.26667 68.2921 1.38 68.6388 1.54ZM66.6388 9.48C67.3321 9.48 67.9721 9.30667 68.5588 8.96C69.1454 8.61333 69.6121 8.14667 69.9588 7.56C70.3054 6.97333 70.4788 6.33333 70.4788 5.64C70.4788 4.86667 70.2721 4.16667 69.8588 3.54C69.4588 2.91333 68.8988 2.44667 68.1788 2.14C67.6588 1.92667 66.9254 1.82 65.9788 1.82H61.4188V9.48H66.6388ZM90.3481 15H89.6081V1.08H90.4081L95.2681 9.66L100.108 1.08H100.848V15H100.108V2.56L95.6081 10.5H94.9081L90.3481 2.46V15ZM110.033 0.779999C111.073 0.779999 112.033 1.04 112.913 1.56C113.793 2.06667 114.486 2.76 114.993 3.64C115.513 4.52 115.773 5.48 115.773 6.52V9.56C115.773 10.6 115.513 11.56 114.993 12.44C114.486 13.32 113.793 14.02 112.913 14.54C112.033 15.0467 111.073 15.3 110.033 15.3C108.993 15.3 108.033 15.0467 107.153 14.54C106.273 14.02 105.573 13.32 105.053 12.44C104.546 11.56 104.293 10.6 104.293 9.56V6.52C104.293 5.48 104.546 4.52 105.053 3.64C105.573 2.76 106.273 2.06667 107.153 1.56C108.033 1.04 108.993 0.779999 110.033 0.779999ZM105.033 9.56C105.033 10.4667 105.253 11.3067 105.693 12.08C106.146 12.84 106.753 13.4467 107.513 13.9C108.286 14.34 109.126 14.56 110.033 14.56C110.939 14.56 111.773 14.34 112.533 13.9C113.306 13.4467 113.913 12.84 114.353 12.08C114.806 11.3067 115.033 10.4667 115.033 9.56V6.52C115.033 5.61333 114.806 4.78 114.353 4.02C113.913 3.24667 113.306 2.64 112.533 2.2C111.773 1.74667 110.939 1.52 110.033 1.52C109.126 1.52 108.286 1.74667 107.513 2.2C106.753 2.64 106.146 3.24667 105.693 4.02C105.253 4.78 105.033 5.61333 105.033 6.52V9.56ZM119.398 15V1.08H120.178L129.898 10.52V1.08H130.638V15H129.898V11.56L120.138 2.04V15H119.398ZM139.642 0.779999C140.682 0.779999 141.642 1.04 142.522 1.56C143.402 2.06667 144.096 2.76 144.602 3.64C145.122 4.52 145.382 5.48 145.382 6.52V9.56C145.382 10.6 145.122 11.56 144.602 12.44C144.096 13.32 143.402 14.02 142.522 14.54C141.642 15.0467 140.682 15.3 139.642 15.3C138.602 15.3 137.642 15.0467 136.762 14.54C135.882 14.02 135.182 13.32 134.662 12.44C134.156 11.56 133.902 10.6 133.902 9.56V6.52C133.902 5.48 134.156 4.52 134.662 3.64C135.182 2.76 135.882 2.06667 136.762 1.56C137.642 1.04 138.602 0.779999 139.642 0.779999ZM134.642 9.56C134.642 10.4667 134.862 11.3067 135.302 12.08C135.756 12.84 136.362 13.4467 137.122 13.9C137.896 14.34 138.736 14.56 139.642 14.56C140.549 14.56 141.382 14.34 142.142 13.9C142.916 13.4467 143.522 12.84 143.962 12.08C144.416 11.3067 144.642 10.4667 144.642 9.56V6.52C144.642 5.61333 144.416 4.78 143.962 4.02C143.522 3.24667 142.916 2.64 142.142 2.2C141.382 1.74667 140.549 1.52 139.642 1.52C138.736 1.52 137.896 1.74667 137.122 2.2C136.362 2.64 135.756 3.24667 135.302 4.02C134.862 4.78 134.642 5.61333 134.642 6.52V9.56ZM169.112 1.08C170.125 1.08 171.058 1.33333 171.912 1.84C172.778 2.34667 173.465 3.03333 173.972 3.9C174.478 4.75333 174.732 5.68667 174.732 6.7V9.38C174.732 10.3933 174.478 11.3333 173.972 12.2C173.465 13.0533 172.778 13.7333 171.912 14.24C171.058 14.7467 170.125 15 169.112 15H163.972V1.08H169.112ZM173.992 6.7C173.992 5.82 173.772 5.00667 173.332 4.26C172.892 3.51333 172.292 2.92 171.532 2.48C170.785 2.04 169.972 1.82 169.092 1.82H164.712V14.26H169.092C169.972 14.26 170.785 14.04 171.532 13.6C172.292 13.16 172.892 12.5667 173.332 11.82C173.772 11.0733 173.992 10.26 173.992 9.38V6.7ZM188.576 1.08V1.82H184.416V14.26H188.576V15H179.556V14.26H183.696V1.82H179.556V1.08H188.576ZM199.161 8.34C198.028 8.11333 197.101 7.86667 196.381 7.6C195.674 7.32 195.114 6.94667 194.701 6.48C194.301 6 194.101 5.38667 194.101 4.64C194.101 3.86667 194.301 3.18667 194.701 2.6C195.114 2.01333 195.688 1.56 196.421 1.24C197.168 0.92 198.028 0.76 199.001 0.76C199.934 0.76 200.788 0.96 201.561 1.36C202.348 1.74667 202.968 2.29333 203.421 3C203.874 3.70667 204.101 4.51333 204.101 5.42H203.361C203.361 4.63333 203.168 3.94 202.781 3.34C202.394 2.74 201.868 2.28 201.201 1.96C200.534 1.62667 199.794 1.46 198.981 1.46C198.261 1.46 197.588 1.57333 196.961 1.8C196.334 2.02667 195.821 2.37333 195.421 2.84C195.034 3.30667 194.841 3.89333 194.841 4.6C194.841 5.24 195.028 5.75333 195.401 6.14C195.774 6.51333 196.261 6.8 196.861 7C197.461 7.2 198.301 7.41333 199.381 7.64C200.474 7.86667 201.321 8.08667 201.921 8.3C202.534 8.5 203.048 8.84 203.461 9.32C203.888 9.8 204.101 10.4733 204.101 11.34C204.101 12.2067 203.868 12.94 203.401 13.54C202.948 14.1267 202.341 14.5667 201.581 14.86C200.821 15.1533 199.994 15.3 199.101 15.3C197.994 15.3 197.021 15.0933 196.181 14.68C195.341 14.2667 194.694 13.6867 194.241 12.94C193.801 12.18 193.581 11.3133 193.581 10.34H194.321C194.321 11.1933 194.508 11.94 194.881 12.58C195.268 13.22 195.821 13.72 196.541 14.08C197.261 14.4267 198.114 14.6 199.101 14.6C200.328 14.6 201.341 14.3067 202.141 13.72C202.954 13.1333 203.361 12.3333 203.361 11.32C203.361 10.6267 203.188 10.0933 202.841 9.72C202.494 9.34667 202.054 9.08 201.521 8.92C201.001 8.74667 200.214 8.55333 199.161 8.34ZM209.786 15H209.046V1.08H214.646C215.579 1.08 216.439 1.28 217.226 1.68C218.026 2.08 218.659 2.64667 219.126 3.38C219.592 4.11333 219.826 4.96 219.826 5.92C219.826 6.84 219.586 7.68667 219.106 8.46C218.639 9.23333 217.999 9.82667 217.186 10.24C216.479 10.6 215.632 10.78 214.646 10.78H209.786V15ZM209.786 10.04H214.646C215.499 10.04 216.199 9.90667 216.746 9.64C217.452 9.30667 218.019 8.80667 218.446 8.14C218.872 7.47333 219.086 6.73333 219.086 5.92C219.086 5.12 218.872 4.38667 218.446 3.72C218.019 3.05333 217.446 2.55333 216.726 2.22C216.179 1.95333 215.486 1.82 214.646 1.82H209.786V10.04ZM224.17 15V1.08H224.91V14.26H234.61V15H224.17ZM242.895 1.08H243.675L249.395 15H248.595L246.715 10.4H239.855L237.955 15H237.175L242.895 1.08ZM240.155 9.68H246.415L243.275 2.04L240.155 9.68ZM253.16 1.08L258.1 8.52L263 1.08H263.88L258.46 9.3V15H257.72V9.3L252.28 1.08H253.16Z" fill="white"/>
</svg>
